<?xml version='1.0' encoding='UTF-8'?>
<svg xmlns="http://www.w3.org/2000/svg" version="1.1" viewBox="0 0 610 610" width="512" height="512">
<g transform="translate(17.5, 19.5)"><path d="M0 0 C188.1 0 376.2 0 570 0 C570 187.77 570 375.54 570 569 C381.9 569 193.8 569 0 569 C0 381.23 0 193.46 0 0 Z " fill="#B68731" transform="translate(3,2)" />
<path d="M0 0 C1.59 1.34 3.18 2.7 4.75 4.06 C5.51 4.69 6.27 5.32 7.05 5.96 C13.08 11.07 17.91 16.84 22.75 23.06 C23.97 24.6 23.97 24.6 25.22 26.16 C36.36 40.24 45.43 55.58 53.56 71.56 C62.43 88.98 71.76 105.24 85.75 119.06 C86.82 120.15 86.82 120.15 87.91 121.25 C102.91 135.58 124.15 144.67 144.87 144.41 C158.52 143.93 173.01 138.64 183.01 129.07 C195.41 114.77 199.33 97.23 199.19 78.75 C199.18 78.07 199.18 77.38 199.18 76.68 C199.11 66.63 198.67 57.45 194.75 48.06 C194.33 47.01 193.9 45.95 193.46 44.87 C187.06 30.62 176.29 21.77 161.97 16.16 C142.72 9.58 124.91 10.63 106.5 19.25 C99.86 22.77 94.28 26.99 88.75 32.06 C87.91 32.83 87.07 33.61 86.2 34.4 C80.89 39.49 76.37 44.88 72.24 50.95 C70.35 53.59 69.34 54.94 66.1 55.62 C63.75 55.06 63.75 55.06 61.5 52 C61.1 51.28 60.7 50.56 60.29 49.82 C59.05 47.61 57.77 45.5 56.4 43.37 C55.56 42.04 54.72 40.71 53.88 39.38 C53.46 38.73 53.04 38.09 52.61 37.43 C50.92 34.7 49.75 32.68 49.75 29.43 C57.56 11.01 81.52 -5.52 99.56 -13.11 C105.8 -15.46 112.31 -17.01 118.81 -18.49 C120.12 -18.79 121.43 -19.12 122.72 -19.48 C144.14 -24.3 171.37 -16.83 189.75 -5.94 C210.45 7.89 223.66 27.17 229.26 51.43 C235.16 81.67 231.45 113.95 214.5 139.97 C201.33 159.02 181.94 169.6 159.75 175.06 C158.98 175.26 158.21 175.45 157.42 175.65 C133.38 179.34 110.72 172.19 89.75 161.06 C88.7 160.52 87.64 159.97 86.55 159.41 C77.98 154.73 70.93 148.6 63.75 142.06 C63.02 141.42 62.29 140.77 61.54 140.11 C45.71 125.31 35.53 105.63 25.77 86.62 C18.23 72.05 10.14 57.82 -0.25 45.06 C-0.7 44.5 -1.15 43.93 -1.61 43.35 C-14.52 27.16 -31.39 14.32 -52.59 11.78 C-70.38 10.49 -88.5 14.96 -102.62 26.25 C-115.38 38.49 -120.09 54.72 -120.55 71.94 C-120.57 74.31 -120.57 76.69 -120.56 79.06 C-120.58 80.24 -120.59 81.42 -120.61 82.64 C-120.62 98.62 -116.08 112.2 -105.25 124.06 C-105.25 124.72 -105.25 125.38 -105.25 126.06 C-104.68 126.32 -104.12 126.59 -103.53 126.86 C-101.07 128.16 -98.98 129.7 -96.75 131.38 C-85.83 139.09 -73.81 142.46 -60.56 142.44 C-59.69 142.44 -58.83 142.44 -57.93 142.43 C-50.18 142.29 -43.53 140.8 -36.25 138.06 C-35.47 137.78 -34.68 137.49 -33.88 137.2 C-30.39 135.93 -30.39 135.93 -28.25 133.06 C-29.11 132.69 -29.11 132.69 -29.98 132.3 C-32.56 130.89 -34.44 129.28 -36.56 127.25 C-37.28 126.58 -38 125.92 -38.74 125.23 C-40.25 123.06 -40.25 123.06 -39.84 120.43 C-39.65 119.65 -39.45 118.87 -39.25 118.06 C-26.25 114.19 -13.24 110.45 -0.09 107.1 C0.79 106.88 1.68 106.65 2.59 106.42 C3.44 106.2 4.29 105.99 5.17 105.76 C8.64 104.82 12.05 103.69 15.45 102.52 C18.16 101.98 20.09 102.37 22.75 103.06 C22.95 110.21 22.2 116.91 21.07 123.96 C20.9 125.07 20.72 126.18 20.55 127.32 C20.18 129.65 19.81 131.98 19.44 134.31 C18.87 137.88 18.32 141.45 17.77 145.02 C17.41 147.29 17.05 149.56 16.7 151.83 C16.45 153.43 16.45 153.43 16.2 155.06 C15.96 156.55 15.96 156.55 15.71 158.07 C15.57 158.94 15.44 159.81 15.29 160.71 C14.75 163.08 13.93 164.94 12.75 167.06 C10.61 167.38 10.61 167.38 7.75 167.06 C5.61 165.45 3.82 163.92 1.94 162.06 C1.44 161.59 0.93 161.11 0.42 160.62 C-0.82 159.44 -2.03 158.25 -3.25 157.06 C-7.37 158.56 -10.89 160.6 -14.62 162.88 C-36.06 175.43 -63.4 177.4 -87.29 171.29 C-112.33 163.6 -131.51 147.06 -143.78 124.22 C-150.32 110.7 -152.44 97.12 -152.44 82.28 C-152.44 80.1 -152.46 77.91 -152.47 75.73 C-152.53 63.47 -151.61 51.53 -147.5 39.88 C-147.24 39.11 -146.98 38.35 -146.7 37.57 C-143.13 27.53 -138.05 19.23 -131.25 11.06 C-130.75 10.41 -130.25 9.75 -129.74 9.08 C-118.32 -5.27 -99.66 -13.88 -82.25 -17.94 C-81.33 -18.16 -80.42 -18.39 -79.48 -18.62 C-52.24 -24.28 -21.85 -17.23 0 0 Z " fill="#FEFEFD" transform="translate(246.25,306.9375)" />
<path d="M0 0 C0.95 0.6 1.9 1.2 2.88 1.81 C8.96 8.08 8.5 15.51 8.45 23.8 C8.44 25.8 8.47 27.8 8.5 29.8 C8.49 48.42 -0.84 58.08 -13.3 70.78 C-21.6 79.4 -22.91 82.95 -24 96 C-13.77 96 -3.54 96 7 96 C7 101.28 7 106.56 7 112 C-9.5 112 -26 112 -43 112 C-43.08 107.61 -43.16 103.21 -43.25 98.69 C-43.3 96.65 -43.3 96.65 -43.36 94.56 C-43.45 84.48 -41.93 75.6 -35.19 67.75 C-34.49 66.93 -33.8 66.12 -33.08 65.27 C-30.7 62.67 -28.26 60.17 -25.73 57.71 C-17.21 49.26 -11.88 42.57 -11.81 30.3 C-11.81 29.19 -11.81 28.08 -11.81 26.94 C-11.8 25.82 -11.79 24.71 -11.78 23.56 C-11.77 22.5 -11.77 21.43 -11.77 20.34 C-11.76 18.88 -11.76 18.88 -11.76 17.38 C-11.77 14.81 -11.77 14.81 -14 13 C-17.46 12.5 -17.46 12.5 -21 13 C-23.83 15.44 -24.23 17.76 -24.51 21.33 C-24.59 22.97 -24.64 24.61 -24.69 26.25 C-24.79 29.14 -24.89 32.02 -25 35 C-30.94 35 -36.88 35 -43 35 C-43.06 32.05 -43.12 29.1 -43.19 26.06 C-43.21 25.15 -43.24 24.24 -43.27 23.3 C-43.36 14.33 -41.22 7.19 -34.92 0.66 C-26.03 -7.03 -9.51 -6.09 0 0 Z " fill="#FEFDFC" transform="translate(134,53)" />
<path d="M0 0 C0 37.95 0 75.9 0 115 C-6.27 115 -12.54 115 -19 115 C-19 86.29 -19 57.58 -19 28 C-19.66 28 -20.32 28 -21 28 C-21.24 28.56 -21.47 29.12 -21.71 29.7 C-23.3 32.53 -25.25 34.48 -27.56 36.75 C-28.37 37.55 -29.17 38.35 -30 39.17 C-32 41 -32 41 -33 41 C-34.47 22.79 -34.47 22.79 -31.28 16.73 C-29 14.31 -29 14.31 -26.47 12.15 C-23.77 9.8 -22.32 7.41 -20.44 4.38 C-16 0 -16 0 0 0 Z " fill="#FEFEFE" transform="translate(80,50)" />
<path d="M0 0 C3.3 0 6.6 0 10 0 C11.69 6.98 13.3 13.84 14 21 C15.85 15.31 16.72 9.62 17.54 3.7 C18 1 18 1 19 0 C22.3 0 25.6 0 29 0 C29 15.51 29 31.02 29 47 C26.69 47 24.38 47 22 47 C21.5 34.62 21.5 34.62 21 22 C19.68 30.25 18.36 38.5 17 47 C15.35 47 13.7 47 12 47 C10.68 40.07 9.36 33.14 8 26 C7.67 32.93 7.34 39.86 7 47 C4.69 47 2.38 47 0 47 C0 31.49 0 15.98 0 0 Z " fill="#FCFBF8" transform="translate(320,50)" />
<path d="M0 0 C16 0 16 0 22 4 C25.53 8.73 24.37 15.56 24.37 21.22 C24.37 23.36 24.41 25.5 24.45 27.65 C24.46 29.02 24.46 30.4 24.46 31.77 C24.47 33.02 24.48 34.26 24.49 35.54 C23.91 39.66 22.6 41.78 20 45 C17 47 17 47 0 47 C0 31.49 0 15.98 0 0 Z " fill="#FDFCFA" transform="translate(268,118)" />
<path d="M0 0 C3.45 2.49 4.66 4.91 5.69 8.94 C6.14 13.59 6.15 18.2 6.12 22.88 C6.15 24.73 6.15 24.73 6.19 26.62 C6.18 33.85 5.69 38.84 1.69 44.94 C-2.12 47.47 -6.85 47.82 -11.31 46.94 C-14.33 45.19 -16.73 43.11 -18.31 39.94 C-18.6 35.16 -18.63 30.38 -18.66 25.59 C-18.68 24 -18.71 22.4 -18.74 20.81 C-18.8 18.5 -18.82 16.2 -18.84 13.89 C-18.86 13.18 -18.88 12.48 -18.9 11.75 C-18.89 7.87 -18.31 5.47 -15.9 2.5 C-11.15 -2.2 -6.11 -1.96 0 0 Z " fill="#FBF8F3" transform="translate(306.3125,187.0625)" />
<path d="M0 0 C2.91 1.21 4.36 2.05 6.1 4.65 C7.33 7.88 7.32 10.99 7.34 14.4 C7.34 15.11 7.35 15.82 7.36 16.56 C7.37 18.06 7.37 19.57 7.37 21.07 C7.37 23.36 7.41 25.65 7.45 27.94 C7.46 29.4 7.46 30.87 7.46 32.34 C7.48 33.01 7.49 33.69 7.5 34.39 C7.46 39.36 6.11 42.18 3 46 C-0.98 48.03 -4.96 48.18 -9.31 47.44 C-13.08 45.42 -15.11 42.79 -17 39 C-17.26 34.65 -17.27 30.29 -17.3 25.93 C-17.31 23.77 -17.36 21.61 -17.4 19.45 C-17.41 18.07 -17.42 16.68 -17.43 15.3 C-17.44 14.04 -17.45 12.79 -17.47 11.5 C-16.91 7.34 -15.62 5.23 -13 2 C-8.75 -0.84 -4.99 -0.52 0 0 Z " fill="#FBF9F5" transform="translate(256,118)" />
<path d="M0 0 C2.98 1.22 4.34 2.01 6.1 4.66 C8.02 9.65 7.33 15.4 7.32 20.7 C7.31 22.93 7.34 25.15 7.36 27.38 C7.36 28.8 7.36 30.23 7.36 31.65 C7.37 32.94 7.37 34.23 7.37 35.56 C6.88 40.08 5.39 42.66 2.15 45.78 C-1.95 48.1 -6.45 47.73 -11 47 C-14.41 44.47 -15.67 43 -17 39 C-17.25 34.48 -17.27 29.96 -17.3 25.43 C-17.31 23.94 -17.33 22.45 -17.36 20.96 C-17.4 18.8 -17.42 16.64 -17.43 14.48 C-17.44 13.19 -17.45 11.9 -17.47 10.57 C-16.92 6.4 -15.63 4.25 -13 1 C-9.08 -0.96 -4.29 -0.35 0 0 Z " fill="#FDFDFB" transform="translate(229,50)" />
<path d="M0 0 C3.75 1.63 5.93 3.49 8 7 C8.3 9.63 8.44 12.02 8.43 14.65 C8.44 15.39 8.44 16.13 8.45 16.89 C8.46 18.44 8.45 20 8.45 21.55 C8.44 23.93 8.47 26.3 8.5 28.67 C8.5 30.18 8.5 31.7 8.5 33.21 C8.51 34.27 8.51 34.27 8.53 35.35 C8.46 40.17 7.42 42.62 4 46 C-0.11 47.91 -3.97 48.21 -8.38 47.31 C-12.4 45.3 -14.32 43.16 -16 39 C-16.4 34.6 -16.37 30.2 -16.37 25.78 C-16.37 23.64 -16.41 21.5 -16.45 19.35 C-16.46 17.98 -16.46 16.6 -16.46 15.23 C-16.47 13.98 -16.48 12.74 -16.49 11.46 C-15.91 7.34 -14.6 5.22 -12 2 C-7.96 -0.7 -4.75 -0.54 0 0 Z " fill="#FDFCFA" transform="translate(397,118)" />
<path d="M0 0 C3 1.8 4.45 2.9 6 6 C6.12 8.41 6.19 10.79 6.2 13.2 C6.21 13.92 6.21 14.63 6.22 15.37 C6.23 16.89 6.24 18.4 6.24 19.92 C6.25 22.23 6.28 24.53 6.31 26.84 C6.32 28.32 6.32 29.79 6.33 31.27 C6.34 31.95 6.35 32.63 6.37 33.34 C6.34 37.95 5.41 41.08 3 45 C-1.12 47.96 -6.14 47.65 -11 47 C-14.63 44.88 -16.49 42.88 -18 39 C-18.38 34.58 -18.33 30.16 -18.32 25.73 C-18.31 23.57 -18.34 21.42 -18.36 19.26 C-18.36 17.89 -18.36 16.51 -18.36 15.13 C-18.37 13.88 -18.37 12.63 -18.37 11.35 C-17.88 6.89 -16.35 4.3 -13.15 1.21 C-9.07 -1.09 -4.54 -0.62 0 0 Z " fill="#FCFBF8" transform="translate(371,50)" />
<path d="M0 0 C16 0 16 0 21 3 C24.61 7.93 23.71 15.24 23 21 C20.44 24.06 20.44 24.06 18 26 C18.4 30.53 20.18 34.99 21.56 39.31 C21.8 40.05 22.03 40.79 22.27 41.56 C22.85 43.37 23.42 45.19 24 47 C21.03 47 18.06 47 15 47 C13.02 41.06 11.04 35.12 9 29 C8.67 34.94 8.34 40.88 8 47 C5.36 47 2.72 47 0 47 C0 31.49 0 15.98 0 0 Z " fill="#FCFAF6" transform="translate(212,118)" />
<path d="M0 0 C17 0 17 0 22 4 C22.63 6.06 22.63 6.06 22.63 8.22 C22.63 9.4 22.63 9.4 22.63 10.6 C22.61 11.41 22.59 12.23 22.56 13.06 C22.57 13.88 22.58 14.69 22.6 15.53 C22.52 21.47 22.52 21.47 19.96 24.06 C19.32 24.37 18.67 24.68 18 25 C18.56 30.16 20.28 34.63 22.16 39.41 C23 42 23 42 23 46 C20.36 46 17.72 46 15 46 C13.02 40.39 11.04 34.78 9 29 C8.67 34.61 8.34 40.22 8 46 C5.36 46 2.72 46 0 46 C0 30.82 0 15.64 0 0 Z " fill="#FCFBF8" transform="translate(185,187)" />
<path d="M0 0 C2.64 0 5.28 0 8 0 C10.76 6.58 13.04 13.14 15 20 C15.33 13.4 15.66 6.8 16 0 C18.31 0 20.62 0 23 0 C23 15.51 23 31.02 23 47 C20.36 47 17.72 47 15 47 C14.82 46.38 14.65 45.76 14.47 45.12 C13.66 42.31 12.86 39.5 12.06 36.69 C11.78 35.71 11.51 34.73 11.22 33.73 C10.95 32.79 10.69 31.85 10.41 30.89 C10.16 30.02 9.92 29.16 9.66 28.27 C9.15 26.5 8.58 24.75 8 23 C7.67 30.92 7.34 38.84 7 47 C4.69 47 2.38 47 0 47 C0 31.49 0 15.98 0 0 Z " fill="#FCFAF6" transform="translate(316,187)" />
<path d="M0 0 C2.64 0 5.28 0 8 0 C10.76 6.58 13.04 13.14 15 20 C15.33 13.4 15.66 6.8 16 0 C18.31 0 20.62 0 23 0 C23 15.51 23 31.02 23 47 C20.69 47 18.38 47 16 47 C13.36 39.41 10.72 31.82 8 24 C7.67 31.59 7.34 39.18 7 47 C4.69 47 2.38 47 0 47 C0 31.49 0 15.98 0 0 Z " fill="#FCFBF8" transform="translate(240,50)" />
<path d="M0 0 C15 0 15 0 21 3 C23.76 7.14 23.37 10.51 23.38 15.38 C23.4 16.23 23.42 17.08 23.45 17.95 C23.47 22.15 23.37 24.4 21.1 28.04 C16.96 31.9 13.47 31.08 8 31 C8 36.28 8 41.56 8 47 C5.36 47 2.72 47 0 47 C0 31.49 0 15.98 0 0 Z " fill="#FCFAF7" transform="translate(185,118)" />
<path d="M0 0 C17 0 17 0 22 4 C23.62 7.24 23.23 10.76 23.25 14.31 C23.27 15.07 23.29 15.83 23.31 16.62 C23.34 21.26 22.97 24.21 20 28 C15.63 31.52 14.19 31 8 31 C8 35.95 8 40.9 8 46 C5.36 46 2.72 46 0 46 C0 30.82 0 15.64 0 0 Z " fill="#FDFDFB" transform="translate(261,187)" />
<path d="M0 0 C3.3 0 6.6 0 10 0 C11.23 5.9 12.46 11.79 13.69 17.69 C14.45 21.35 15.21 25 16 28.65 C17.32 34.89 18.39 40.62 18 47 C15.36 47 12.72 47 10 47 C9.67 44.36 9.34 41.72 9 39 C6.36 39.33 3.72 39.66 1 40 C0.67 42.31 0.34 44.62 0 47 C-2.64 47 -5.28 47 -8 47 C-7.58 39.88 -6.47 33.14 -4.9 26.19 C-3.72 20.86 -2.78 15.49 -1.81 10.12 C-1.63 9.13 -1.45 8.14 -1.27 7.11 C-0.85 4.74 -0.42 2.37 0 0 Z " fill="#FBF8F4" transform="translate(359,118)" />
<path d="M0 0 C1.37 0.02 1.37 0.02 2.78 0.04 C3.7 0.04 4.62 0.05 5.56 0.06 C6.27 0.07 6.98 0.09 7.71 0.1 C8.86 5.83 10 11.55 11.13 17.29 C11.52 19.23 11.91 21.18 12.3 23.13 C12.86 25.93 13.41 28.74 13.96 31.54 C14.14 32.41 14.31 33.27 14.5 34.17 C15.35 38.55 15.92 42.61 15.71 47.1 C13.07 47.1 10.43 47.1 7.71 47.1 C7.38 44.13 7.05 41.16 6.71 38.1 C3.74 38.1 0.77 38.1 -2.29 38.1 C-2.26 39.05 -2.24 40 -2.22 40.97 C-2.29 44.1 -2.29 44.1 -3.29 46.1 C-5.6 46.1 -7.91 46.1 -10.29 46.1 C-10.76 38.19 -8.98 30.73 -7.35 23.04 C-6.93 21.02 -6.51 19.01 -6.09 16.99 C-5.72 15.17 -5.33 13.34 -4.95 11.52 C-4.48 9.1 -4.09 6.67 -3.76 4.22 C-3.14 0.13 -3.14 0.13 0 0 Z " fill="#FBF9F5" transform="translate(379.28515625,186.90234375)" />
<path d="M0 0 C2.64 0 5.28 0 8 0 C8 13.2 8 26.4 8 40 C9.65 40 11.3 40 13 40 C15.11 37.89 14.26 33.29 14.32 30.37 C14.34 29.51 14.36 28.64 14.38 27.75 C14.44 24.98 14.5 22.21 14.56 19.44 C14.61 17.56 14.65 15.69 14.69 13.81 C14.8 9.21 14.9 4.6 15 0 C17.64 0 20.28 0 23 0 C23.07 5.44 23.13 10.89 23.16 16.33 C23.18 18.18 23.2 20.03 23.23 21.88 C23.26 24.55 23.28 27.22 23.29 29.88 C23.31 30.7 23.32 31.53 23.34 32.37 C23.34 37.34 22.74 40.69 20 45 C16.49 48.01 13.4 48.47 8.93 48.29 C6.04 47.86 4.24 46.84 2 45 C0.28 42.17 -0.25 40.08 -0.23 36.78 C-0.23 35.96 -0.23 35.14 -0.23 34.3 C-0.22 33.42 -0.21 32.54 -0.2 31.64 C-0.19 30.74 -0.19 29.83 -0.19 28.9 C-0.18 26.02 -0.15 23.13 -0.12 20.25 C-0.11 18.29 -0.11 16.34 -0.1 14.38 C-0.08 9.59 -0.04 4.79 0 0 Z " fill="#FAF7F1" transform="translate(297,118)" />
<path d="M0 0 C2.64 0 5.28 0 8 0 C8.33 13.2 8.66 26.4 9 40 C10.98 40 12.96 40 15 40 C15.33 26.8 15.66 13.6 16 0 C18.31 0 20.62 0 23 0 C23.1 5.75 23.17 11.49 23.22 17.24 C23.24 19.2 23.27 21.15 23.3 23.11 C23.35 25.92 23.37 28.73 23.39 31.54 C23.41 32.41 23.43 33.29 23.45 34.18 C23.45 38.32 23.35 40.44 21.1 44.03 C17.38 47.52 14.41 47.28 9.48 47.22 C6.27 46.94 4.43 46.12 2 44 C0.32 41.19 -0.25 39.13 -0.23 35.87 C-0.23 35.07 -0.23 34.27 -0.23 33.45 C-0.21 32.17 -0.21 32.17 -0.2 30.86 C-0.19 29.98 -0.19 29.1 -0.19 28.19 C-0.18 25.37 -0.15 22.56 -0.12 19.75 C-0.11 17.84 -0.11 15.93 -0.1 14.02 C-0.08 9.35 -0.04 4.67 0 0 Z " fill="#FDFCFA" transform="translate(293,50)" />
<path d="M0 0 C2.93 1.8 4.47 2.94 6 6 C6.07 7.54 6.08 9.08 6.06 10.62 C6.05 11.44 6.04 12.26 6.04 13.1 C6.02 13.73 6.01 14.35 6 15 C3.36 15 0.72 15 -2 15 C-2.33 12.69 -2.66 10.38 -3 8 C-4.32 8 -5.64 8 -7 8 C-7.56 11.18 -7.53 13.24 -5.65 15.93 C-3.27 18.62 -0.81 21.21 1.77 23.71 C5.68 27.75 6.94 30.99 7.17 36.63 C6.84 41.21 5.26 43.89 1.88 46.88 C-2.15 48.45 -5.74 48.72 -10 48 C-12.87 46.21 -14.49 45.02 -16 42 C-16.07 40.13 -16.08 38.25 -16.06 36.38 C-16.05 35.37 -16.04 34.37 -16.04 33.34 C-16.02 32.57 -16.01 31.79 -16 31 C-13.69 31 -11.38 31 -9 31 C-8.67 34.3 -8.34 37.6 -8 41 C-5.53 40.51 -5.53 40.51 -3 40 C-2.4 36.77 -2.16 35.12 -3 32 C-5.32 29.22 -7.81 26.88 -10.52 24.49 C-14.48 20.51 -16.43 16.57 -16.44 10.94 C-16.33 7.34 -16.06 6.1 -14.12 2.94 C-9.93 -0.89 -5.47 -0.64 0 0 Z " fill="#FBF9F5" transform="translate(478,186)" />
<path d="M0 0 C4.51 2.03 4.51 2.03 6 5 C6.07 7.04 6.08 9.08 6.06 11.12 C6.05 12.22 6.04 13.32 6.04 14.45 C6.02 15.29 6.01 16.13 6 17 C3.69 17 1.38 17 -1 17 C-1.33 14.03 -1.66 11.06 -2 8 C-3.65 8 -5.3 8 -7 8 C-7 18.56 -7 29.12 -7 40 C-4.53 39.51 -4.53 39.51 -2 39 C-1.67 35.37 -1.34 31.74 -1 28 C1.31 28 3.62 28 6 28 C6.08 30.06 6.14 32.12 6.19 34.19 C6.24 35.91 6.24 35.91 6.29 37.67 C5.97 41.31 5.17 43.09 3 46 C2.3 46.52 1.6 47.03 0.88 47.56 C-1.34 49.26 -1.63 50.29 -2 53 C-4.97 53.49 -4.97 53.49 -8 54 C-8 53.34 -8 52.68 -8 52 C-7.34 52 -6.68 52 -6 52 C-6.33 50.35 -6.66 48.7 -7 47 C-8.11 46.91 -8.11 46.91 -9.25 46.81 C-12.99 45.71 -13.93 44.28 -16 41 C-16.39 38.21 -16.56 35.82 -16.53 33.03 C-16.54 32.27 -16.54 31.52 -16.54 30.73 C-16.55 29.14 -16.54 27.54 -16.52 25.94 C-16.5 23.51 -16.52 21.07 -16.55 18.64 C-16.54 17.08 -16.54 15.52 -16.53 13.97 C-16.54 13.24 -16.55 12.52 -16.56 11.77 C-16.47 6.91 -15.46 4.41 -12 1 C-8.32 -0.84 -4.03 -0.37 0 0 Z " fill="#FCFAF7" transform="translate(341,118)" />
<path d="M0 0 C2.9 1.23 4.4 2.22 6.31 4.69 C7.35 8.17 7.12 11.38 7 15 C4.36 15 1.72 15 -1 15 C-1.33 12.69 -1.66 10.38 -2 8 C-3.65 8 -5.3 8 -7 8 C-6.64 13.83 -5.46 16.2 -1.12 20.06 C3.3 24.04 6.47 27.55 7.4 33.6 C7.32 42.21 7.32 42.21 4 46 C1.09 47.77 -1.11 48.27 -4.5 48.25 C-5.25 48.26 -6.01 48.26 -6.78 48.27 C-10.33 47.84 -12.41 46.68 -14.75 44 C-16.55 39.68 -16.24 35.62 -16 31 C-13.36 31 -10.72 31 -8 31 C-7.67 33.97 -7.34 36.94 -7 40 C-5.35 40 -3.7 40 -2 40 C-1.46 36.31 -1.22 34.15 -3.35 31 C-5.72 28.33 -8.13 25.77 -10.8 23.39 C-14.66 19.66 -15.49 16.77 -15.75 11.38 C-15.39 4.45 -15.39 4.45 -12.56 1.69 C-8.13 -0.41 -4.82 -0.82 0 0 Z " fill="#FCFAF6" transform="translate(250,186)" />
<path d="M0 0 C3.63 1.62 4.77 2.66 7 6 C7.2 8.26 7.2 8.26 7.12 10.69 C7.11 11.5 7.09 12.3 7.07 13.14 C7.05 13.75 7.02 14.37 7 15 C4.69 15 2.38 15 0 15 C-0.33 12.36 -0.66 9.72 -1 7 C-2.65 7.33 -4.3 7.66 -6 8 C-6.57 12.54 -6.57 12.54 -4.89 16.67 C-3.35 18.31 -1.74 19.82 -0.06 21.31 C6.9 27.78 6.9 27.78 7.24 31.86 C7.26 33 7.29 34.14 7.31 35.31 C7.35 36.44 7.39 37.57 7.43 38.74 C6.91 42.66 5.79 44.24 3 47 C-1.05 48.35 -4.76 48.55 -9 48 C-12.5 45.89 -13.71 44.88 -15 41 C-15.07 39.27 -15.08 37.54 -15.06 35.81 C-15.05 34.91 -15.04 34.01 -15.04 33.08 C-15.02 32.39 -15.01 31.71 -15 31 C-12.36 31 -9.72 31 -7 31 C-7 34.3 -7 37.6 -7 41 C-4.53 40.51 -4.53 40.51 -2 40 C-1.48 36.84 -1.24 35.05 -2 32 C-4.06 29.47 -6.33 27.36 -8.73 25.15 C-12.97 21.13 -15.18 17.33 -15.44 11.38 C-15.25 7.53 -14.48 5.04 -12 2 C-7.96 -0.69 -4.74 -0.55 0 0 Z " fill="#FCFAF6" transform="translate(358,186)" />
<path d="M0 0 C2.71 4.07 2.47 7.25 2 12 C-0.64 12 -3.28 12 -6 12 C-6.33 9.69 -6.66 7.38 -7 5 C-8.32 5 -9.64 5 -11 5 C-11.4 9.23 -11.54 11.29 -8.92 14.73 C-8.02 15.54 -7.12 16.35 -6.19 17.19 C1.79 24.49 1.79 24.49 2.43 29.06 C2.44 30.73 2.44 30.73 2.44 32.44 C2.47 34.11 2.47 34.11 2.5 35.81 C1.9 39.63 0.67 41.26 -2 44 C-4.45 45.22 -6.14 45.17 -8.88 45.19 C-9.74 45.2 -10.6 45.22 -11.49 45.23 C-14.22 44.98 -15.75 44.55 -18 43 C-20.24 39.82 -20.22 37.06 -20.12 33.25 C-20.1 31.77 -20.1 31.77 -20.07 30.27 C-20.04 29.14 -20.04 29.14 -20 28 C-17.69 28 -15.38 28 -13 28 C-12.67 30.97 -12.34 33.94 -12 37 C-10.35 37.33 -8.7 37.66 -7 38 C-6.35 34.37 -6.07 32.5 -7 29 C-9.59 25.84 -12.36 23.19 -15.4 20.48 C-18.57 17.46 -19.76 15.68 -20.37 11.38 C-20.55 3.76 -20.55 3.76 -17.75 -0.12 C-11.94 -4.09 -5.86 -3.91 0 0 Z " fill="#FCFAF7" transform="translate(287,52)" />
<path d="M0 0 C3.25 1.75 3.25 1.75 5 5 C5.38 9.04 5.29 12.96 5 17 C2.69 17 0.38 17 -2 17 C-2.33 14.03 -2.66 11.06 -3 8 C-4.65 7.67 -6.3 7.34 -8 7 C-9.49 9.97 -9.11 12.66 -9.1 15.98 C-9.1 17 -9.1 17 -9.09 18.05 C-9.09 20.24 -9.08 22.43 -9.06 24.62 C-9.06 26.11 -9.05 27.59 -9.05 29.08 C-9.04 32.72 -9.02 36.36 -9 40 C-7.02 40 -5.04 40 -3 40 C-2.67 36.04 -2.34 32.08 -2 28 C0.31 28 2.62 28 5 28 C5.08 29.9 5.14 31.79 5.19 33.69 C5.24 35.27 5.24 35.27 5.29 36.89 C4.96 40.42 4.12 42.18 2 45 C-2.44 47.96 -6.8 47.9 -12 47 C-14.94 44.92 -16.4 42.21 -18 39 C-18.24 34.49 -18.23 29.97 -18.24 25.45 C-18.25 23.21 -18.28 20.96 -18.31 18.72 C-18.32 17.28 -18.32 15.85 -18.33 14.42 C-18.34 13.12 -18.35 11.81 -18.36 10.47 C-17.98 6.76 -17.26 4.93 -15 2 C-10.31 -1.13 -5.49 -0.67 0 0 Z " fill="#FDFBF9" transform="translate(203,50)" />
<path d="M0 0 C2.64 0 5.28 0 8 0 C8.12 0.69 8.23 1.38 8.35 2.1 C8.88 5.21 9.41 8.32 9.94 11.44 C10.12 12.53 10.3 13.61 10.49 14.74 C10.67 15.77 10.84 16.81 11.03 17.87 C11.19 18.83 11.35 19.79 11.52 20.78 C11.78 22.96 11.78 22.96 13 24 C13.19 23.02 13.39 22.04 13.59 21.04 C14.98 14 16.41 6.99 18 0 C20.31 0 22.62 0 25 0 C24.04 9.29 22.87 18.37 20.8 27.48 C19.9 31.44 19.1 35.4 18.31 39.38 C18.06 40.64 17.81 41.91 17.55 43.21 C17.37 44.13 17.19 45.05 17 46 C15.52 46.03 14.04 46.05 12.56 46.06 C11.33 46.08 11.33 46.08 10.07 46.1 C8 46 8 46 7 45 C6.52 42.42 6.09 39.84 5.69 37.25 C4.4 29.16 2.9 21.12 1.27 13.08 C0.39 8.65 -0.22 4.55 0 0 Z " fill="#FCFBF8" transform="translate(398,187)" />
<path d="M0 0 C6.27 0 12.54 0 19 0 C19 2.31 19 4.62 19 7 C15.7 7 12.4 7 9 7 C9 11.29 9 15.58 9 20 C11.31 20 13.62 20 16 20 C16 21.98 16 23.96 16 26 C13.36 26 10.72 26 8 26 C8 30.62 8 35.24 8 40 C11.63 40 15.26 40 19 40 C19 42.31 19 44.62 19 47 C12.73 47 6.46 47 0 47 C0 31.49 0 15.98 0 0 Z " fill="#FAF6F0" transform="translate(388,50)" />
<path d="M0 0 C6.27 0 12.54 0 19 0 C19 1.98 19 3.96 19 6 C15.37 6 11.74 6 8 6 C8 10.29 8 14.58 8 19 C10.64 19 13.28 19 16 19 C16 21.31 16 23.62 16 26 C13.36 26 10.72 26 8 26 C8 30.62 8 35.24 8 40 C11.63 40 15.26 40 19 40 C19 41.98 19 43.96 19 46 C12.73 46 6.46 46 0 46 C0 30.82 0 15.64 0 0 Z " fill="#FEFDFC" transform="translate(212,187)" />
<path d="M0 0 C6.27 0 12.54 0 19 0 C19 1.98 19 3.96 19 6 C15.37 6 11.74 6 8 6 C8 10.29 8 14.58 8 19 C10.31 19 12.62 19 15 19 C15 21.31 15 23.62 15 26 C12.69 26 10.38 26 8 26 C8 30.62 8 35.24 8 40 C11.63 40 15.26 40 19 40 C19 41.98 19 43.96 19 46 C12.73 46 6.46 46 0 46 C0 30.82 0 15.64 0 0 Z " fill="#FDFCFA" transform="translate(427,187)" />
<path d="M0 0 C2.64 0 5.28 0 8 0 C8 15.18 8 30.36 8 46 C5.36 46 2.72 46 0 46 C0 30.82 0 15.64 0 0 Z " fill="#FCFBF8" transform="translate(450,187)" />
<path d="M0 0 C1.98 0 3.96 0 6 0 C9.36 3.36 8.3 7.77 8.32 12.34 C8.32 13.01 8.32 13.68 8.32 14.38 C8.31 16.43 8.34 18.48 8.36 20.53 C8.36 22.46 8.36 22.46 8.36 24.43 C8.37 25.62 8.37 26.81 8.37 28.03 C8 31 8 31 6.79 32.91 C5 34 5 34 0 34 C0 22.78 0 11.56 0 0 Z " fill="#BB9040" transform="translate(276,125)" />
<path d="M0 0 C4.56 0.56 4.56 0.56 6 2 C6.1 4.19 6.13 6.39 6.13 8.59 C6.13 9.25 6.13 9.91 6.14 10.59 C6.14 11.99 6.13 13.38 6.13 14.78 C6.13 16.93 6.13 19.07 6.14 21.21 C6.14 22.57 6.13 23.92 6.13 25.28 C6.13 26.52 6.13 27.76 6.13 29.03 C6 32 6 32 5 34 C3.02 34 1.04 34 -1 34 C-3.15 29.69 -2.19 23.93 -2.19 19.14 C-2.19 17.01 -2.21 14.88 -2.22 12.74 C-2.23 11.39 -2.23 10.04 -2.23 8.69 C-2.23 7.45 -2.24 6.22 -2.24 4.95 C-2 2 -2 2 0 0 Z " fill="#B98C3A" transform="translate(222,56)" />
<path d="M0 0 C2.44 0.19 2.44 0.19 3.44 1.19 C3.66 5.59 3.62 9.99 3.62 14.4 C3.62 16.61 3.64 18.83 3.66 21.04 C3.67 22.44 3.67 23.84 3.67 25.25 C3.67 26.53 3.68 27.81 3.68 29.13 C3.44 32.19 3.44 32.19 1.44 34.19 C-1.12 33.94 -1.12 33.94 -3.56 33.19 C-5.68 28.96 -4.75 23.41 -4.75 18.76 C-4.75 16.7 -4.77 14.64 -4.79 12.57 C-4.79 10.63 -4.79 10.63 -4.79 8.66 C-4.8 7.46 -4.8 6.27 -4.81 5.04 C-4.49 1.31 -3.79 0.28 0 0 Z " fill="#B98C39" transform="translate(393.5625,124.8125)" />
<path d="M0 0 C4.88 0.88 4.88 0.88 6 2 C6.1 4.28 6.13 6.56 6.13 8.84 C6.13 9.53 6.13 10.21 6.14 10.92 C6.14 12.37 6.13 13.82 6.13 15.27 C6.13 17.49 6.13 19.72 6.14 21.94 C6.14 23.35 6.13 24.75 6.13 26.16 C6.13 27.44 6.13 28.73 6.13 30.06 C6 33 6 33 5 34 C2.56 34.19 2.56 34.19 0 34 C-2.79 31.21 -2.26 29.47 -2.27 25.57 C-2.27 24.28 -2.27 22.99 -2.27 21.66 C-2.27 20.99 -2.27 20.32 -2.26 19.62 C-2.25 17.57 -2.26 15.52 -2.27 13.47 C-2.27 12.18 -2.27 10.9 -2.27 9.57 C-2.26 8.38 -2.26 7.19 -2.26 5.97 C-2 3 -2 3 0 0 Z " fill="#B98C39" transform="translate(363,56)" />
<path d="M0 0 C2.5 0.12 2.5 0.12 3.5 1.12 C3.6 3.49 3.64 5.82 3.63 8.19 C3.63 8.89 3.63 9.6 3.64 10.33 C3.64 11.82 3.63 13.32 3.63 14.82 C3.63 17.12 3.63 19.41 3.64 21.71 C3.64 23.16 3.63 24.61 3.63 26.06 C3.63 26.75 3.64 27.45 3.64 28.16 C3.61 33.01 3.61 33.01 2.5 34.12 C0 34.25 0 34.25 -2.5 34.12 C-4.18 32.45 -3.63 30.4 -3.64 28.16 C-3.64 27.47 -3.63 26.78 -3.63 26.06 C-3.63 25.36 -3.63 24.65 -3.64 23.92 C-3.64 22.43 -3.63 20.93 -3.63 19.43 C-3.63 17.13 -3.63 14.84 -3.64 12.54 C-3.64 11.09 -3.63 9.64 -3.63 8.19 C-3.63 7.5 -3.64 6.8 -3.64 6.09 C-3.61 0.18 -3.61 0.18 0 0 Z " fill="#B78833" transform="translate(299.5,192.875)" />
<path d="M0 0 C2.5 0.12 2.5 0.12 3.5 1.12 C3.72 5.52 3.69 9.93 3.69 14.34 C3.69 16.55 3.71 18.76 3.72 20.98 C3.73 22.38 3.73 23.78 3.73 25.18 C3.73 26.47 3.74 27.75 3.74 29.07 C3.5 32.12 3.5 32.12 1.5 34.12 C-1.12 33.75 -1.12 33.75 -3.5 33.12 C-3.52 28.59 -3.54 24.05 -3.55 19.51 C-3.56 17.96 -3.57 16.42 -3.58 14.87 C-3.59 12.66 -3.59 10.44 -3.6 8.22 C-3.6 7.53 -3.61 6.83 -3.61 6.12 C-3.61 4.45 -3.56 2.79 -3.5 1.12 C-2.5 0.12 -2.5 0.12 0 0 Z " fill="#B68833" transform="translate(251.5,124.875)" />
<path d="M0 0 C1.65 0 3.3 0 5 0 C7 2 7 2 7.23 5.19 C7.21 7.07 7.21 7.07 7.19 9 C7.18 10.26 7.17 11.52 7.17 12.81 C7 16 7 16 6 18 C4.02 18 2.04 18 0 18 C0 12.06 0 6.12 0 0 Z " fill="#BB9040" transform="translate(269,193)" />
<path d="M0 0 C1.65 0 3.3 0 5 0 C7 2 7 2 7.27 5.19 C7.26 6.45 7.26 7.7 7.25 9 C7.26 10.89 7.26 10.89 7.27 12.81 C7 16 7 16 5 18 C3.35 18 1.7 18 0 18 C0 12.06 0 6.12 0 0 Z " fill="#BB8F3F" transform="translate(193,125)" />
<path d="M0 0 C1.65 0 3.3 0 5 0 C6 1 6 1 6.1 3.94 C6.09 5.14 6.07 6.33 6.06 7.56 C6.05 8.76 6.04 9.96 6.04 11.19 C6.02 12.12 6.01 13.05 6 14 C4.02 14.33 2.04 14.66 0 15 C0 10.05 0 5.1 0 0 Z " fill="#BC9143" transform="translate(193,193)" />
<path d="M0 0 C1.65 0 3.3 0 5 0 C6 1 6 1 6.13 3.69 C6.13 5.33 6.13 5.33 6.12 7 C6.13 8.09 6.13 9.19 6.13 10.31 C6 13 6 13 5 14 C3.35 14 1.7 14 0 14 C0 9.38 0 4.76 0 0 Z " fill="#B98C3A" transform="translate(220,125)" />
<path d="M0 0 C1.65 0.02 1.65 0.02 3.34 0.04 C5 0.05 5 0.05 6.69 0.06 C7.54 0.07 8.4 0.09 9.28 0.1 C8.4 4.97 8.4 4.97 7.28 6.1 C5.26 6.17 3.24 6.18 1.21 6.16 C0.11 6.15 -0.99 6.14 -2.13 6.13 C-3.41 6.12 -3.41 6.12 -4.72 6.1 C-3.65 0.13 -3.65 0.13 0 0 Z " fill="#FBF8F3" transform="translate(361.72265625,110.90234375)" />
<path d="M0 0 C0 1.98 0 3.96 0 6 C-5.94 6.5 -5.94 6.5 -12 7 C-12 5.35 -12 3.7 -12 2 C-10.38 1.66 -8.75 1.33 -7.12 1 C-6.22 0.81 -5.32 0.63 -4.38 0.44 C-2 0 -2 0 0 0 Z " fill="#FCFAF7" transform="translate(388,178)" />
<path d="M0 0 C0.33 0 0.66 0 1 0 C1.34 1.73 1.67 3.46 2 5.19 C2.19 6.15 2.37 7.11 2.56 8.11 C2.97 10.79 3.08 13.29 3 16 C1.35 16 -0.3 16 -2 16 C-1.86 13.9 -1.71 11.79 -1.56 9.69 C-1.48 8.52 -1.4 7.34 -1.32 6.14 C-1 3 -1 3 0 0 Z " fill="#BC9143" transform="translate(381,202)" />
<path d="M0 0 C0.66 0.33 1.32 0.66 2 1 C2.63 3.94 2.63 3.94 3.12 7.56 C3.29 8.76 3.46 9.96 3.63 11.19 C3.75 12.12 3.88 13.05 4 14 C2.02 14 0.04 14 -2 14 C-1.86 12.42 -1.71 10.83 -1.56 9.25 C-1.48 8.37 -1.4 7.49 -1.32 6.58 C-1.04 4.31 -0.61 2.2 0 0 Z " fill="#BA8E3D" transform="translate(363,136)" />
</g></svg>