<?xml version='1.0' encoding='UTF-8'?>
<svg xmlns="http://www.w3.org/2000/svg" version="1.1" viewBox="0 0 610 610" width="512" height="512">
<g transform="translate(24.5, 20.5)"><path d="M0 0 C185.13 0 370.26 0 561 0 C561 187.11 561 374.22 561 567 C375.87 567 190.74 567 0 567 C0 379.89 0 192.78 0 0 Z " fill="#ED972F" transform="translate(0,0)" />
<path d="M0 0 C28.38 0 56.76 0 86 0 C87.61 1.61 87.13 3.35 87.13 5.59 C87.13 6.58 87.13 7.58 87.13 8.61 C87.13 9.72 87.13 10.83 87.13 11.97 C87.13 13.72 87.13 13.72 87.13 15.51 C87.14 18.77 87.13 22.02 87.13 25.28 C87.13 28.79 87.13 32.29 87.13 35.8 C87.14 42.68 87.14 49.55 87.14 56.43 C87.13 62.01 87.13 67.6 87.13 73.18 C87.13 73.97 87.13 74.77 87.13 75.58 C87.13 77.2 87.13 78.81 87.14 80.42 C87.14 95.55 87.13 110.67 87.13 125.8 C87.12 138.8 87.13 151.79 87.13 164.79 C87.14 179.86 87.14 194.93 87.13 210 C87.13 211.61 87.13 213.21 87.13 214.82 C87.13 216.01 87.13 216.01 87.13 217.21 C87.13 222.8 87.13 228.38 87.14 233.96 C87.14 240.76 87.14 247.55 87.13 254.35 C87.13 257.82 87.13 261.29 87.13 264.76 C87.14 268.52 87.13 272.27 87.13 276.03 C87.13 277.69 87.13 277.69 87.13 279.39 C87.13 280.89 87.13 280.89 87.13 282.41 C87.13 283.28 87.13 284.15 87.13 285.04 C87 287 87 287 86 288 C57.62 288 29.24 288 0 288 C0 192.96 0 97.92 0 0 Z " fill="#FEFDFC" transform="translate(192,222)" />
<path d="M0 0 C2.12 0.38 2.12 0.38 4 1 C4.02 30.79 4.04 60.59 4.05 90.38 C4.05 93.89 4.05 97.41 4.05 100.92 C4.06 101.62 4.06 102.32 4.06 103.04 C4.06 114.38 4.07 125.72 4.08 137.07 C4.09 148.69 4.09 160.32 4.09 171.95 C4.1 178.49 4.1 185.02 4.11 191.56 C4.11 197.7 4.11 203.85 4.11 209.99 C4.11 212.25 4.12 214.51 4.12 216.77 C4.12 219.85 4.12 222.92 4.12 226 C4.12 226.9 4.13 227.81 4.13 228.75 C4.11 234.89 4.11 234.89 3 236 C0.33 236.1 -2.32 236.14 -4.99 236.13 C-6.25 236.13 -6.25 236.13 -7.53 236.13 C-10.31 236.14 -13.09 236.14 -15.88 236.13 C-17.8 236.13 -19.72 236.13 -21.65 236.14 C-25.69 236.14 -29.73 236.14 -33.76 236.13 C-38.95 236.12 -44.14 236.13 -49.33 236.13 C-53.31 236.14 -57.28 236.14 -61.26 236.13 C-63.17 236.13 -65.08 236.13 -67 236.14 C-69.67 236.14 -72.34 236.13 -75.01 236.13 C-75.81 236.13 -76.61 236.13 -77.43 236.14 C-82.89 236.11 -82.89 236.11 -84 235 C-84.12 233.36 -84.17 231.72 -84.19 230.08 C-84.21 229.01 -84.23 227.94 -84.25 226.84 C-84.26 225.66 -84.27 224.48 -84.29 223.27 C-84.31 221.41 -84.31 221.41 -84.34 219.52 C-84.5 208.08 -84.59 196.63 -84.65 185.18 C-84.7 176.73 -84.79 168.28 -84.92 159.83 C-85.01 153.88 -85.06 147.93 -85.08 141.98 C-85.09 138.43 -85.12 134.89 -85.19 131.34 C-85.74 104.9 -85.74 104.9 -77.34 96.09 C-75.91 94.71 -74.45 93.35 -73 92 C-71.09 89.72 -69.29 87.37 -67.5 85 C-66.12 83.25 -66.12 83.25 -64.75 81.5 C-62.92 79.18 -61.1 76.86 -59.29 74.54 C-55.09 69.18 -50.88 63.84 -46.62 58.54 C-41.85 52.61 -37.16 46.63 -32.56 40.56 C-27.75 34.22 -22.81 28 -17.76 21.84 C-13.57 16.73 -9.48 11.56 -5.43 6.34 C-3.69 4.12 -1.99 1.99 0 0 Z " fill="#FEFCF9" transform="translate(374,274)" />
<path d="M0 0 C0.82 0 1.64 0.01 2.48 0.01 C3.34 0.01 4.2 0.01 5.08 0.01 C7.94 0.01 10.79 0.02 13.64 0.03 C15.61 0.03 17.58 0.03 19.55 0.03 C24.75 0.03 29.95 0.04 35.15 0.06 C40.45 0.07 45.76 0.07 51.06 0.08 C61.47 0.09 71.88 0.1 82.29 0.12 C82.31 11.71 82.33 23.3 82.34 34.89 C82.35 40.26 82.36 45.64 82.37 51.02 C82.38 56.21 82.38 61.4 82.39 66.59 C82.39 68.57 82.39 70.55 82.4 72.54 C82.4 75.3 82.4 78.07 82.4 80.84 C82.41 81.67 82.41 82.5 82.42 83.35 C82.41 89.01 82.41 89.01 81.29 90.12 C78.59 90.22 75.91 90.26 73.21 90.25 C72.36 90.26 71.51 90.26 70.64 90.26 C67.83 90.26 65.01 90.26 62.2 90.26 C60.25 90.26 58.3 90.26 56.36 90.26 C52.27 90.26 48.19 90.26 44.1 90.25 C38.85 90.25 33.6 90.25 28.35 90.26 C24.33 90.26 20.31 90.26 16.29 90.26 C14.35 90.26 12.41 90.26 10.48 90.26 C7.78 90.26 5.08 90.26 2.37 90.25 C1.16 90.26 1.16 90.26 -0.07 90.26 C-5.59 90.24 -5.59 90.24 -6.71 89.12 C-6.81 86.39 -6.85 83.68 -6.84 80.95 C-6.84 80.09 -6.84 79.23 -6.84 78.35 C-6.85 75.51 -6.85 72.66 -6.84 69.81 C-6.84 67.84 -6.84 65.87 -6.84 63.9 C-6.85 59.77 -6.84 55.64 -6.84 51.51 C-6.83 46.2 -6.84 40.89 -6.84 35.58 C-6.85 31.51 -6.85 27.44 -6.84 23.37 C-6.84 21.41 -6.84 19.46 -6.85 17.5 C-6.85 14.76 -6.84 12.03 -6.84 9.3 C-6.84 8.48 -6.84 7.66 -6.84 6.82 C-6.82 0.21 -6.62 0.01 0 0 Z " fill="#FEFDFB" transform="translate(393.7090148925781,420.8755798339844)" />
<path d="M0 0 C1.23 0 1.23 0 2.48 0.01 C3.76 0 3.76 0 5.07 0 C7.92 -0 10.77 -0 13.61 0 C15.58 0 17.55 0 19.52 -0 C23.65 -0 27.79 0 31.92 0.01 C37.23 0.01 42.54 0.01 47.85 0 C51.92 -0 55.99 -0 60.05 0 C62.01 0 63.97 0 65.93 -0 C68.66 -0 71.39 0 74.13 0.01 C74.94 0 75.76 0 76.6 0 C82.19 0.02 82.19 0.02 83.3 1.14 C83.4 3.31 83.43 5.48 83.43 7.66 C83.43 8.68 83.43 8.68 83.44 9.72 C83.44 11.99 83.44 14.25 83.43 16.51 C83.44 18.08 83.44 19.64 83.44 21.21 C83.44 24.49 83.44 27.78 83.43 31.06 C83.43 35.28 83.43 39.5 83.44 43.72 C83.44 46.96 83.44 50.19 83.44 53.43 C83.44 54.98 83.44 56.54 83.44 58.1 C83.44 60.27 83.44 62.44 83.43 64.61 C83.43 65.85 83.43 67.09 83.43 68.36 C83.3 71.14 83.3 71.14 82.3 72.14 C80.08 72.22 77.86 72.24 75.64 72.23 C74.43 72.23 73.21 72.23 71.96 72.23 C69.62 72.21 69.62 72.21 67.24 72.2 C62.31 72.18 57.38 72.16 52.3 72.14 C52.3 57.62 52.3 43.1 52.3 28.14 C42.73 28.14 33.16 28.14 23.3 28.14 C23.3 42.66 23.3 57.18 23.3 72.14 C18.54 72.16 13.77 72.18 8.86 72.2 C7.36 72.21 5.85 72.22 4.3 72.23 C3.13 72.23 1.95 72.23 0.74 72.23 C-0.47 72.24 -1.68 72.24 -2.92 72.25 C-5.7 72.14 -5.7 72.14 -6.7 71.14 C-6.8 68.96 -6.83 66.79 -6.83 64.61 C-6.83 63.93 -6.83 63.25 -6.83 62.55 C-6.84 60.29 -6.83 58.02 -6.83 55.76 C-6.83 54.19 -6.83 52.63 -6.83 51.06 C-6.84 47.78 -6.83 44.49 -6.83 41.21 C-6.82 36.99 -6.83 32.77 -6.83 28.55 C-6.84 25.31 -6.83 22.08 -6.83 18.84 C-6.83 17.29 -6.83 15.73 -6.83 14.17 C-6.84 12 -6.83 9.83 -6.83 7.66 C-6.83 6.42 -6.83 5.18 -6.82 3.91 C-6.6 -1.03 -4.39 0.02 0 0 Z " fill="#FEFDFC" transform="translate(96.69790649414063,437.8644714355469)" />
<path d="M0 0 C4.56 0.6 4.56 0.6 6.49 2.36 C7.1 3.22 7.1 3.22 7.73 4.11 C8.19 4.75 8.66 5.4 9.15 6.06 C9.63 6.76 10.12 7.47 10.62 8.19 C11.69 9.66 12.76 11.14 13.83 12.61 C14.36 13.36 14.89 14.1 15.44 14.86 C17.68 17.93 20.01 20.91 22.38 23.88 C23.27 25.01 24.17 26.14 25.06 27.28 C25.53 27.87 25.99 28.46 26.47 29.06 C29.45 32.84 32.41 36.64 35.38 40.44 C35.96 41.18 36.54 41.93 37.14 42.7 C38.25 44.12 39.35 45.55 40.45 46.98 C41.47 48.31 42.51 49.64 43.56 50.95 C44.98 52.79 44.98 52.79 47 56 C46.67 57.32 46.34 58.64 46 60 C16.96 60 -12.08 60 -42 60 C-42.49 58.52 -42.49 58.52 -43 57 C-42.05 55.2 -42.05 55.2 -40.53 53.18 C-39.96 52.43 -39.4 51.67 -38.82 50.9 C-38.2 50.09 -37.58 49.27 -36.94 48.44 C-36.3 47.59 -35.66 46.74 -35.01 45.87 C-30.19 39.49 -25.29 33.18 -20.35 26.88 C-13.43 18.03 -6.71 9.01 0 0 Z " fill="#FEFDFC" transform="translate(133,371)" />
<path d="M0 0 C0 37.95 0 75.9 0 115 C-6.6 115 -13.2 115 -20 115 C-20.33 86.62 -20.66 58.24 -21 29 C-27.21 34.49 -27.21 34.49 -32 41 C-32.66 41 -33.32 41 -34 41 C-35.86 22.12 -35.86 22.12 -30.42 15.35 C-28.05 12.79 -25.52 10.41 -23 8 C-21.93 6.4 -20.86 4.8 -19.81 3.19 C-16 0 -16 0 0 0 Z " fill="#FEFCF9" transform="translate(113,45)" />
<path d="M0 0 C0 37.95 0 75.9 0 115 C-6.6 115 -13.2 115 -20 115 C-20.33 86.62 -20.66 58.24 -21 29 C-27.21 34.49 -27.21 34.49 -32 41 C-32.66 41 -33.32 41 -34 41 C-35.94 23.15 -35.94 23.15 -31.54 16.8 C-29.1 13.83 -26.43 11.13 -23.56 8.57 C-21.92 7.05 -21.92 7.05 -20.83 5.06 C-15.55 -3.34 -11.36 0 0 0 Z " fill="#FEFCFA" transform="translate(69,45)" />
<path d="M0 0 C1.19 0.01 1.19 0.01 2.41 0.02 C3.67 0.01 3.67 0.01 4.95 0.01 C7.72 0.01 10.5 0.02 13.28 0.03 C15.2 0.03 17.12 0.03 19.05 0.03 C23.08 0.03 27.11 0.04 31.14 0.05 C36.32 0.07 41.51 0.07 46.69 0.07 C50.66 0.07 54.63 0.08 58.6 0.09 C60.51 0.09 62.42 0.09 64.33 0.09 C67 0.1 69.66 0.1 72.33 0.11 C73.13 0.11 73.92 0.11 74.74 0.11 C80.19 0.15 80.19 0.15 81.3 1.26 C81.4 2.66 81.44 4.07 81.44 5.48 C81.44 6.33 81.44 7.18 81.44 8.05 C81.44 8.95 81.43 9.84 81.43 10.76 C81.43 11.65 81.44 12.55 81.44 13.47 C81.44 14.32 81.44 15.17 81.44 16.04 C81.44 16.83 81.44 17.61 81.43 18.42 C81.3 20.26 81.3 20.26 80.3 21.26 C77.6 21.36 74.92 21.4 72.22 21.39 C71.37 21.39 70.53 21.39 69.65 21.39 C66.84 21.4 64.03 21.4 61.21 21.39 C59.26 21.39 57.32 21.39 55.37 21.4 C51.28 21.4 47.2 21.39 43.11 21.39 C37.86 21.38 32.61 21.39 27.37 21.39 C23.34 21.4 19.32 21.4 15.3 21.39 C13.36 21.39 11.43 21.39 9.49 21.4 C6.79 21.4 4.09 21.39 1.39 21.39 C0.18 21.39 0.18 21.39 -1.06 21.4 C-6.58 21.37 -6.58 21.37 -7.7 20.26 C-7.82 17.27 -7.88 14.31 -7.88 11.32 C-7.9 10.49 -7.91 9.65 -7.92 8.79 C-7.92 7.98 -7.92 7.18 -7.93 6.36 C-7.93 5.62 -7.93 4.88 -7.94 4.12 C-7.33 -0.52 -3.85 0.02 0 0 Z " fill="#FEFDFC" transform="translate(394.6954040527344,392.74005126953125)" />
<path d="M0 0 C2.97 0 5.94 0 9 0 C11.26 8.01 12.57 15.69 13 24 C13.66 24 14.32 24 15 24 C15.05 23.11 15.1 22.21 15.15 21.29 C15.6 14.01 16.38 7.11 18 0 C21.63 0 25.26 0 29 0 C29 15.51 29 31.02 29 47 C26.36 47 23.72 47 21 47 C20.5 37.1 20.5 37.1 20 27 C19.01 33.27 18.02 39.54 17 46 C14.53 46.49 14.53 46.49 12 47 C11.35 44.48 10.7 41.96 10.06 39.44 C9.88 38.73 9.7 38.03 9.51 37.3 C9.33 36.6 9.16 35.9 8.97 35.18 C8.81 34.55 8.65 33.92 8.48 33.26 C7.83 30.2 7.44 27.1 7 24 C6.67 31.59 6.34 39.18 6 47 C4.02 47 2.04 47 0 47 C0 31.49 0 15.98 0 0 Z " fill="#FDF9F3" transform="translate(208,95)" />
<path d="M0 0 C17 0 17 0 22 4 C25.39 8.79 24.33 15.17 24.32 20.79 C24.31 22.86 24.34 24.93 24.36 27 C24.36 28.32 24.36 29.64 24.36 30.99 C24.37 32.19 24.37 33.39 24.37 34.63 C23.95 38.46 23.1 40.78 21 44 C16 47 16 47 0 47 C0 31.49 0 15.98 0 0 Z " fill="#FEFAF6" transform="translate(188,38)" />
<path d="M0 0 C17 0 17 0 21 2 C25.29 7.44 24.49 13.71 24.45 20.29 C24.44 22.43 24.47 24.56 24.5 26.7 C24.5 28.07 24.5 29.44 24.5 30.81 C24.5 32.66 24.5 32.66 24.5 34.55 C23.9 38.65 22.58 40.79 20 44 C17 46 17 46 0 46 C0 30.82 0 15.64 0 0 Z " fill="#FEFBF8" transform="translate(310,96)" />
<path d="M0 0 C3.63 2.12 5.49 4.12 7 8 C7.38 12.4 7.33 16.8 7.32 21.22 C7.31 23.36 7.34 25.5 7.36 27.65 C7.36 29.02 7.36 30.4 7.36 31.77 C7.37 33.02 7.37 34.26 7.37 35.54 C6.86 40.28 5.48 43.7 1.88 46.88 C-2.17 48.46 -5.72 48.83 -10 48 C-13.07 46.28 -15.4 44.19 -17 41 C-17.28 36.22 -17.31 31.44 -17.35 26.65 C-17.37 25.06 -17.39 23.46 -17.43 21.87 C-17.49 19.56 -17.51 17.26 -17.52 14.95 C-17.55 14.25 -17.57 13.54 -17.59 12.81 C-17.58 8.94 -16.99 6.53 -14.59 3.57 C-10.17 -0.81 -6.02 -0.69 0 0 Z " fill="#FEFBF9" transform="translate(196,95)" />
<path d="M0 0 C16 0 16 0 21 3 C23.42 6.63 23.31 9.35 23.3 13.55 C23.31 14.29 23.31 15.03 23.31 15.79 C23.32 17.35 23.32 18.92 23.32 20.48 C23.31 22.86 23.34 25.24 23.36 27.62 C23.36 29.14 23.36 30.66 23.36 32.18 C23.37 32.89 23.38 33.6 23.39 34.33 C23.35 38.72 22.78 41.56 20 45 C16 47 16 47 0 47 C0 31.49 0 15.98 0 0 Z " fill="#FEFBF8" transform="translate(243,38)" />
<path d="M0 0 C17 0 17 0 22 4 C23.48 6.96 23.18 9.99 23.2 13.24 C23.21 13.96 23.21 14.67 23.22 15.41 C23.23 16.93 23.24 18.45 23.24 19.98 C23.25 22.29 23.28 24.61 23.31 26.93 C23.32 28.41 23.32 29.88 23.33 31.36 C23.34 32.05 23.35 32.74 23.37 33.45 C23.35 37.82 22.69 40.54 20 44 C17 46 17 46 0 46 C0 30.82 0 15.64 0 0 Z " fill="#FEFCFA" transform="translate(368,96)" />
<path d="M0 0 C2.64 0 5.28 0 8 0 C10.54 6.6 12.79 13.28 15 20 C15.33 13.4 15.66 6.8 16 0 C18.31 0 20.62 0 23 0 C23 15.51 23 31.02 23 47 C20.69 47 18.38 47 16 47 C13.36 39.41 10.72 31.82 8 24 C7.67 31.59 7.34 39.18 7 47 C4.69 47 2.38 47 0 47 C0 31.49 0 15.98 0 0 Z " fill="#FEFBF8" transform="translate(280,159)" />
<path d="M0 0 C2.64 0 5.28 0 8 0 C11.11 7.86 13.51 15.92 16 24 C16.33 16.41 16.66 8.82 17 1 C18.98 1 20.96 1 23 1 C23 16.18 23 31.36 23 47 C20.69 47 18.38 47 16 47 C13.36 39.08 10.72 31.16 8 23 C7.67 30.92 7.34 38.84 7 47 C4.69 47 2.38 47 0 47 C0 31.49 0 15.98 0 0 Z " fill="#FEFCF9" transform="translate(269,95)" />
<path d="M0 0 C2.97 0 5.94 0 9 0 C10.56 5.19 11.73 10.35 12.73 15.67 C12.88 16.48 13.03 17.28 13.19 18.11 C13.51 19.8 13.83 21.48 14.14 23.17 C14.63 25.76 15.12 28.34 15.61 30.93 C15.92 32.57 16.23 34.21 16.54 35.86 C16.76 37.02 16.76 37.02 16.98 38.2 C17.54 41.18 18 43.96 18 47 C15.36 47 12.72 47 10 47 C8.65 44.29 8.93 41.99 9 39 C6.03 39 3.06 39 0 39 C0.02 40.13 0.04 41.27 0.06 42.44 C0 46 0 46 -1 47 C-3.33 47.04 -5.67 47.04 -8 47 C-8.31 40.09 -7.13 33.91 -5.62 27.19 C-5.18 25.14 -4.73 23.09 -4.29 21.04 C-4.07 20.04 -3.85 19.04 -3.63 18.01 C-2.82 14.14 -2.12 10.26 -1.44 6.37 C-1.04 4.23 -0.53 2.11 0 0 Z " fill="#FEFAF6" transform="translate(346,95)" />
<path d="M0 0 C2.97 0 5.94 0 9 0 C10.28 6.53 11.56 13.07 12.85 19.6 C13.28 21.82 13.72 24.05 14.15 26.27 C14.78 29.46 15.41 32.65 16.03 35.84 C16.23 36.84 16.42 37.84 16.63 38.87 C16.9 40.25 16.9 40.25 17.17 41.66 C17.33 42.48 17.49 43.29 17.66 44.13 C18 46 18 46 18 47 C15.03 47 12.06 47 9 47 C8.67 44.36 8.34 41.72 8 39 C5.36 39 2.72 39 0 39 C-0.33 41.64 -0.66 44.28 -1 47 C-3.64 47 -6.28 47 -9 47 C-7.75 37.53 -6.18 28.18 -4.34 18.81 C-3.93 16.71 -3.53 14.61 -3.12 12.51 C-2.86 11.17 -2.6 9.83 -2.34 8.48 C-2.11 7.29 -1.87 6.09 -1.63 4.85 C-1 2 -1 2 0 0 Z " fill="#FEFAF6" transform="translate(340,159)" />
<path d="M0 0 C3.3 0 6.6 0 10 0 C11.12 5.73 12.24 11.46 13.36 17.19 C13.74 19.14 14.13 21.08 14.51 23.03 C15.06 25.84 15.6 28.64 16.15 31.45 C16.32 32.31 16.49 33.18 16.67 34.07 C17.51 38.37 18.31 42.67 19 47 C16.03 47 13.06 47 10 47 C9.67 44.03 9.34 41.06 9 38 C6.36 38 3.72 38 1 38 C0.86 39.3 0.71 40.6 0.56 41.94 C0.12 45.88 0.12 45.88 -1 47 C-3.33 47.04 -5.67 47.04 -8 47 C-7 37.48 -5.52 28.19 -3.47 18.83 C-2.1 12.58 -0.99 6.32 0 0 Z " fill="#FEFBF7" transform="translate(222,38)" />
<path d="M0 0 C2.64 0 5.28 0 8 0 C8.33 12.87 8.66 25.74 9 39 C10.32 39.33 11.64 39.66 13 40 C15.11 37.89 14.26 33.29 14.32 30.37 C14.34 29.51 14.36 28.64 14.38 27.75 C14.44 24.98 14.5 22.21 14.56 19.44 C14.61 17.56 14.65 15.69 14.69 13.81 C14.8 9.21 14.9 4.6 15 0 C17.64 0 20.28 0 23 0 C23.1 5.75 23.17 11.49 23.22 17.24 C23.24 19.2 23.27 21.15 23.3 23.11 C23.35 25.92 23.37 28.73 23.39 31.54 C23.41 32.41 23.43 33.29 23.45 34.18 C23.45 38.32 23.35 40.44 21.1 44.03 C17.23 47.66 13.84 47.33 8.71 47.29 C5.09 46.9 3.35 45.74 1 43 C0.1 40.29 -0.12 38.76 -0.11 35.99 C-0.11 35.19 -0.11 34.39 -0.11 33.56 C-0.11 32.7 -0.1 31.84 -0.1 30.96 C-0.1 30.07 -0.09 29.19 -0.09 28.28 C-0.09 25.46 -0.08 22.63 -0.06 19.81 C-0.06 17.9 -0.05 15.99 -0.05 14.07 C-0.04 9.38 -0.02 4.69 0 0 Z " fill="#FEFBF7" transform="translate(178,159)" />
<path d="M0 0 C0.99 0.33 1.98 0.66 3 1 C3.02 6.25 3.04 11.5 3.05 16.75 C3.06 18.54 3.07 20.33 3.08 22.12 C3.09 24.68 3.09 27.24 3.1 29.81 C3.1 30.61 3.11 31.42 3.11 32.25 C3.11 34.16 3.06 36.08 3 38 C1.2 39.8 -1.54 39.13 -3.97 39.13 C-5.18 39.13 -6.39 39.14 -7.64 39.14 C-8.91 39.13 -10.19 39.13 -11.5 39.12 C-12.77 39.13 -14.05 39.13 -15.36 39.14 C-17.18 39.13 -17.18 39.13 -19.03 39.13 C-20.15 39.13 -21.27 39.13 -22.42 39.13 C-25 39 -25 39 -26 38 C-26.44 34.27 -26.25 32.42 -24.3 29.17 C-23.5 28.18 -22.7 27.2 -21.88 26.19 C-21.44 25.65 -21 25.11 -20.56 24.55 C-19.05 22.69 -17.53 20.84 -16 19 C-14.76 17.48 -13.53 15.96 -12.29 14.45 C-2.69 2.69 -2.69 2.69 0 0 Z " fill="#ED9A35" transform="translate(327,354)" />
<path d="M0 0 C2.31 0 4.62 0 7 0 C7.03 1.11 7.05 2.22 7.08 3.36 C7.17 7.48 7.27 11.59 7.37 15.7 C7.42 17.48 7.46 19.26 7.5 21.04 C7.55 23.6 7.62 26.15 7.68 28.71 C7.7 29.51 7.72 30.31 7.73 31.13 C7.75 35.2 7.75 35.2 9 39 C11.47 38.51 11.47 38.51 14 38 C14.33 25.46 14.66 12.92 15 0 C17.31 0 19.62 0 22 0 C22.12 5.75 22.21 11.49 22.27 17.24 C22.3 19.2 22.33 21.15 22.38 23.11 C22.44 25.92 22.47 28.73 22.49 31.54 C22.51 32.41 22.54 33.29 22.57 34.18 C22.57 38.65 22.47 40.41 19.59 44.03 C15.14 47.41 11.5 47.71 6 47 C3.13 45.21 1.51 44.02 0 41 C-0.09 37.94 -0.12 34.9 -0.1 31.84 C-0.1 30.93 -0.09 30.02 -0.09 29.09 C-0.09 26.18 -0.08 23.28 -0.06 20.38 C-0.06 18.41 -0.05 16.44 -0.05 14.48 C-0.04 9.65 -0.02 4.83 0 0 Z " fill="#FEFEFD" transform="translate(242,96)" />
<path d="M0 0 C1.3 -0.02 1.3 -0.02 2.62 -0.04 C5.32 0.21 6.86 0.71 9.12 2.19 C11.26 5.39 11.36 6.21 11.25 9.88 C11.23 10.68 11.21 11.49 11.2 12.32 C11.17 12.94 11.15 13.55 11.12 14.19 C8.48 14.19 5.84 14.19 3.12 14.19 C2.79 11.88 2.46 9.57 2.12 7.19 C0.81 7.19 -0.52 7.19 -1.88 7.19 C-2.42 10.03 -2.62 11.44 -1.88 14.19 C0.84 17.48 4 20.29 7.12 23.19 C10.92 27.26 11.44 30.33 11.69 35.75 C11.53 39.79 11.28 41.89 9.38 45.5 C4.47 48.05 -0.46 48.08 -5.88 47.19 C-8.99 45.37 -9.71 44.67 -10.88 41.19 C-10.94 39.29 -10.96 37.4 -10.94 35.5 C-10.93 34.51 -10.92 33.51 -10.91 32.49 C-10.9 31.73 -10.89 30.97 -10.88 30.19 C-8.56 30.19 -6.25 30.19 -3.88 30.19 C-3.54 33.16 -3.21 36.13 -2.88 39.19 C-1.23 39.52 0.42 39.85 2.12 40.19 C2.82 34.85 2.82 34.85 0.74 30.09 C-1.07 28.05 -2.95 26.12 -4.88 24.19 C-9.57 18.81 -11.22 15.85 -11.17 8.67 C-10.76 5.22 -9.41 3.5 -6.88 1.19 C-4.43 -0.04 -2.73 0.02 0 0 Z " fill="#FEFBF7" transform="translate(161.875,158.8125)" />
<path d="M0 0 C3.12 1.94 3.12 1.94 5 5 C5.38 8.05 5.3 10.95 5 14 C2.69 14 0.38 14 -2 14 C-2.33 12.02 -2.66 10.04 -3 8 C-4.65 8 -6.3 8 -8 8 C-7.64 13.83 -6.44 16.23 -2.12 20.12 C5.54 27.12 5.54 27.12 6.47 32.94 C6.55 41.24 6.55 41.24 3.69 45.19 C-0.61 48.09 -4.89 48.88 -10 48 C-13.53 46.04 -15.7 43.89 -17 40 C-17.07 38.44 -17.09 36.87 -17.06 35.31 C-17.05 34.5 -17.04 33.7 -17.04 32.86 C-17.02 32.25 -17.01 31.63 -17 31 C-14.36 31 -11.72 31 -9 31 C-8.67 33.97 -8.34 36.94 -8 40 C-6.35 40 -4.7 40 -3 40 C-2.46 36.27 -2.22 34.14 -4.38 30.96 C-6.2 28.92 -8.08 26.96 -10 25 C-15.12 19.13 -16.5 15.82 -16.39 7.93 C-16 4.98 -15.73 3.8 -13.62 1.75 C-9.43 -0.9 -4.76 -0.96 0 0 Z " fill="#FEFBF8" transform="translate(436,95)" />
<path d="M0 0 C2.81 1.79 4.51 3.02 6 6 C6.07 8.04 6.08 10.08 6.06 12.12 C6.05 13.22 6.04 14.32 6.04 15.45 C6.02 16.29 6.01 17.13 6 18 C3.69 18 1.38 18 -1 18 C-1.33 15.03 -1.66 12.06 -2 9 C-3.66 8.62 -5.32 8.29 -7 8 C-8.33 9.1 -8.33 9.1 -8.11 11.87 C-8.11 13.12 -8.1 14.37 -8.1 15.66 C-8.1 16.66 -8.1 16.66 -8.09 17.67 C-8.09 19.8 -8.08 21.93 -8.06 24.06 C-8.06 25.5 -8.05 26.94 -8.05 28.38 C-8.04 31.92 -8.02 35.46 -8 39 C-6.34 39.38 -4.68 39.71 -3 40 C-1.26 38.26 -1.63 35.81 -1.44 33.44 C-1.35 32.43 -1.27 31.41 -1.18 30.37 C-1.12 29.59 -1.06 28.81 -1 28 C1.31 28 3.62 28 6 28 C6.08 30.06 6.14 32.12 6.19 34.19 C6.24 35.91 6.24 35.91 6.29 37.67 C5.97 41.33 5.21 43.1 3 46 C-0.73 48.48 -3.68 48.52 -8 48 C-12.8 46.28 -14.81 44.57 -17 40 C-17.54 35.44 -17.47 30.87 -17.45 26.28 C-17.44 24.07 -17.47 21.87 -17.5 19.66 C-17.5 18.24 -17.5 16.83 -17.5 15.41 C-17.5 14.13 -17.5 12.86 -17.5 11.54 C-16.91 7.4 -15.6 5.24 -13 2 C-9.05 -0.41 -4.52 -0.77 0 0 Z " fill="#FEFBF7" transform="translate(168,95)" />
<path d="M0 0 C2.87 2.95 3.15 5.35 3.19 9.31 C3.09 11.14 3.09 11.14 3 13 C0.36 13 -2.28 13 -5 13 C-5.33 10.69 -5.66 8.38 -6 6 C-7.65 6.33 -9.3 6.66 -11 7 C-11.45 9.27 -11.45 9.27 -11 12 C-9.27 14.04 -7.65 15.73 -5.69 17.5 C2.57 25.11 2.57 25.11 3.43 30.94 C3.44 39.22 3.44 39.22 1.19 43.19 C-2.57 46.3 -6.1 46.27 -10.77 46.23 C-13.79 45.92 -15.67 44.9 -18 43 C-19.38 40.24 -19.1 37.95 -19.06 34.88 C-19.05 33.78 -19.04 32.68 -19.04 31.55 C-19.02 30.71 -19.01 29.87 -19 29 C-16.69 29 -14.38 29 -12 29 C-11.67 31.97 -11.34 34.94 -11 38 C-9.68 38.33 -8.36 38.66 -7 39 C-5.67 37.87 -5.67 37.87 -5.5 34.94 C-6.34 28.29 -11.26 24.7 -15.88 20.19 C-19.69 16.26 -19.4 11.89 -19.35 6.67 C-19 4 -19 4 -16.81 0.88 C-11.23 -2.85 -6.15 -2.37 0 0 Z " fill="#FEFBF8" transform="translate(311,39)" />
<path d="M0 0 C3.19 1.38 3.19 1.38 5 4 C5.39 7.38 5.29 10.62 5 14 C2.69 14 0.38 14 -2 14 C-2 11.69 -2 9.38 -2 7 C-3.67 6.96 -5.33 6.96 -7 7 C-7.33 7.33 -7.66 7.66 -8 8 C-7.84 13.13 -6.84 15.82 -3.1 19.38 C-2.59 19.83 -2.09 20.28 -1.56 20.75 C5.83 27.62 5.83 27.62 6.34 31.74 C6.44 40.25 6.44 40.25 4.12 44.19 C0.16 47.57 -3.22 47.39 -8.29 47.36 C-11 47 -11 47 -14.12 44.62 C-16.72 40.99 -17.12 39.29 -17.06 34.88 C-17.05 33.96 -17.04 33.05 -17.04 32.12 C-17.02 31.42 -17.01 30.72 -17 30 C-14.36 30 -11.72 30 -9 30 C-8.67 33.63 -8.34 37.26 -8 41 C-6.35 40.34 -4.7 39.68 -3 39 C-2.6 34.78 -2.44 32.72 -5.08 29.3 C-5.98 28.5 -6.88 27.7 -7.81 26.88 C-15.54 19.9 -15.54 19.9 -16.47 14.06 C-16.52 9.29 -16.54 5.98 -14.19 1.75 C-9.46 -0.85 -5.27 -0.81 0 0 Z " fill="#FEFBF8" transform="translate(222,159)" />
<path d="M0 0 C2.44 2.34 2.96 3.62 3.29 7.02 C3.26 8.08 3.22 9.15 3.19 10.25 C3.16 11.33 3.13 12.41 3.11 13.52 C3.07 14.34 3.04 15.16 3 16 C0.69 16 -1.62 16 -4 16 C-4.33 13.03 -4.66 10.06 -5 7 C-6.66 6.62 -8.32 6.29 -10 6 C-11.33 7.1 -11.33 7.1 -11.11 9.87 C-11.11 11.12 -11.1 12.37 -11.1 13.66 C-11.1 14.66 -11.1 14.66 -11.09 15.67 C-11.09 17.8 -11.08 19.93 -11.06 22.06 C-11.06 23.5 -11.05 24.94 -11.05 26.38 C-11.04 29.92 -11.02 33.46 -11 37 C-9.02 37.66 -7.04 38.32 -5 39 C-4.67 34.71 -4.34 30.42 -4 26 C-1.69 26 0.62 26 3 26 C3.11 28.23 3.19 30.46 3.25 32.69 C3.3 33.93 3.34 35.17 3.39 36.45 C2.94 40.57 1.9 42.11 -1 45 C-4.7 46.85 -8.96 46.46 -13 46 C-16.63 43.88 -18.5 41.88 -20 38 C-20.38 33.44 -20.33 28.87 -20.32 24.3 C-20.31 22.07 -20.34 19.85 -20.36 17.62 C-20.36 16.2 -20.36 14.77 -20.36 13.35 C-20.37 12.06 -20.37 10.77 -20.37 9.44 C-19.97 5.76 -19.24 3.91 -17 1 C-11.49 -2.67 -6.07 -2.51 0 0 Z " fill="#FEFBF8" transform="translate(170,39)" />
<path d="M0 0 C2.97 0 5.94 0 9 0 C10.65 9.24 12.3 18.48 14 28 C15.27 19.91 15.27 19.91 16.54 11.82 C16.7 10.81 16.86 9.8 17.03 8.76 C17.19 7.73 17.35 6.7 17.52 5.64 C18 3 18 3 19 0 C21.64 0 24.28 0 27 0 C24.37 15.74 21.17 31.36 18 47 C15.03 47 12.06 47 9 47 C5.35 31.42 1.9 15.91 0 0 Z " fill="#FDF9F4" transform="translate(360,159)" />
<path d="M0 0 C3.19 1.38 3.19 1.38 5 4 C5.39 7.38 5.29 10.62 5 14 C2.69 14 0.38 14 -2 14 C-2.33 11.69 -2.66 9.38 -3 7 C-4.65 7.33 -6.3 7.66 -8 8 C-7.74 13.12 -6.85 15.81 -3.1 19.38 C-2.59 19.83 -2.09 20.28 -1.56 20.75 C5.83 27.62 5.83 27.62 6.34 31.74 C6.44 40.25 6.44 40.25 4.12 44.19 C0.16 47.57 -3.22 47.41 -8.29 47.32 C-11 47 -11 47 -14.19 45.19 C-16.84 40.52 -16.41 36.25 -16 31 C-13.69 31 -11.38 31 -9 31 C-8.67 33.64 -8.34 36.28 -8 39 C-6.05 39.59 -6.05 39.59 -4 40 C-2.64 38.85 -2.64 38.85 -2.64 35.76 C-3.09 31.06 -4.34 29.96 -7.81 26.88 C-15.54 19.9 -15.54 19.9 -16.47 14.06 C-16.52 9.29 -16.54 5.98 -14.19 1.75 C-9.46 -0.85 -5.27 -0.81 0 0 Z " fill="#FEFCFA" transform="translate(443,159)" />
<path d="M0 0 C6.27 0 12.54 0 19 0 C19 2.31 19 4.62 19 7 C15.7 7 12.4 7 9 7 C9 11.29 9 15.58 9 20 C11.31 20 13.62 20 16 20 C16 22.31 16 24.62 16 27 C13.69 27 11.38 27 9 27 C9 31.29 9 35.58 9 40 C12.3 40 15.6 40 19 40 C19 42.31 19 44.62 19 47 C12.73 47 6.46 47 0 47 C0 31.49 0 15.98 0 0 Z " fill="#FDF8F2" transform="translate(390,159)" />
<path d="M0 0 C6.27 0 12.54 0 19 0 C19 2.31 19 4.62 19 7 C15.37 7 11.74 7 8 7 C8 11.29 8 15.58 8 20 C10.64 20 13.28 20 16 20 C16 22.31 16 24.62 16 27 C13.36 27 10.72 27 8 27 C8 31.62 8 36.24 8 41 C11.63 41 15.26 41 19 41 C19 42.98 19 44.96 19 47 C12.73 47 6.46 47 0 47 C0 31.49 0 15.98 0 0 Z " fill="#FEFAF6" transform="translate(396,95)" />
<path d="M0 0 C6.27 0 12.54 0 19 0 C19 2.31 19 4.62 19 7 C15.37 7 11.74 7 8 7 C8 11.29 8 15.58 8 20 C10.31 20 12.62 20 15 20 C15 21.98 15 23.96 15 26 C12.69 26 10.38 26 8 26 C8 30.62 8 35.24 8 40 C11.63 40 15.26 40 19 40 C19 42.31 19 44.62 19 47 C12.73 47 6.46 47 0 47 C0 31.49 0 15.98 0 0 Z " fill="#FEFBF7" transform="translate(257,159)" />
<path d="M0 0 C6.27 0 12.54 0 19 0 C19 1.98 19 3.96 19 6 C15.37 6 11.74 6 8 6 C8 10.62 8 15.24 8 20 C10.64 20 13.28 20 16 20 C16 21.98 16 23.96 16 26 C13.36 26 10.72 26 8 26 C8 30.62 8 35.24 8 40 C11.63 40 15.26 40 19 40 C19 42.31 19 44.62 19 47 C12.73 47 6.46 47 0 47 C0 31.49 0 15.98 0 0 Z " fill="#FEFDFB" transform="translate(270,38)" />
<path d="M0 0 C6.27 0 12.54 0 19 0 C19 1.98 19 3.96 19 6 C15.37 6 11.74 6 8 6 C8 10.62 8 15.24 8 20 C10.31 20 12.62 20 15 20 C15 21.98 15 23.96 15 26 C12.69 26 10.38 26 8 26 C8 30.62 8 35.24 8 40 C11.63 40 15.26 40 19 40 C19 42.31 19 44.62 19 47 C12.73 47 6.46 47 0 47 C0 31.49 0 15.98 0 0 Z " fill="#FEFCF9" transform="translate(324,38)" />
<path d="M0 0 C9.57 0 19.14 0 29 0 C29.02 2.95 29.04 5.9 29.06 8.94 C29.07 9.87 29.08 10.8 29.09 11.76 C29.09 12.49 29.1 13.21 29.1 13.96 C29.11 15.09 29.11 15.09 29.11 16.23 C29 18 29 18 28 19 C26.01 19.1 24.02 19.13 22.03 19.13 C20.82 19.13 19.61 19.14 18.36 19.14 C17.09 19.13 15.81 19.13 14.5 19.12 C13.23 19.13 11.95 19.13 10.64 19.14 C8.82 19.13 8.82 19.13 6.97 19.13 C5.85 19.13 4.73 19.13 3.58 19.13 C1 19 1 19 0 18 C-0.09 16.66 -0.11 15.31 -0.1 13.96 C-0.1 13.24 -0.09 12.51 -0.09 11.76 C-0.08 10.83 -0.07 9.9 -0.06 8.94 C-0.04 5.99 -0.02 3.04 0 0 Z " fill="#ED9831" transform="translate(437,460)" />
<path d="M0 0 C1.17 0.01 2.34 0.01 3.54 0.02 C4.8 0.02 6.06 0.02 7.36 0.03 C8.7 0.03 10.04 0.04 11.38 0.05 C12.72 0.06 14.07 0.06 15.41 0.06 C18.71 0.08 22.01 0.09 25.32 0.11 C25.32 6.38 25.32 12.65 25.32 19.11 C21.35 19.14 17.38 19.16 13.41 19.17 C12.06 19.17 10.71 19.18 9.35 19.19 C7.42 19.2 5.48 19.21 3.54 19.21 C1.79 19.22 1.79 19.22 0 19.23 C-2.68 19.11 -2.68 19.11 -3.68 18.11 C-3.78 15.27 -3.82 12.46 -3.81 9.61 C-3.81 8.82 -3.82 8.02 -3.82 7.2 C-3.81 0.16 -3.81 0.16 0 0 Z " fill="#ED9933" transform="translate(401.683837890625,459.886474609375)" />
<path d="M0 0 C9.57 0 19.14 0 29 0 C29.02 2.95 29.04 5.9 29.06 8.94 C29.07 9.87 29.08 10.8 29.09 11.76 C29.09 12.49 29.1 13.21 29.1 13.96 C29.11 15.09 29.11 15.09 29.11 16.23 C29 18 29 18 28 19 C26.01 19.1 24.02 19.13 22.03 19.13 C20.82 19.13 19.61 19.14 18.36 19.14 C17.09 19.13 15.81 19.13 14.5 19.12 C13.23 19.13 11.95 19.13 10.64 19.14 C8.82 19.13 8.82 19.13 6.97 19.13 C5.85 19.13 4.73 19.13 3.58 19.13 C1 19 1 19 0 18 C-0.09 16.66 -0.11 15.31 -0.1 13.96 C-0.1 13.24 -0.09 12.51 -0.09 11.76 C-0.08 10.83 -0.07 9.9 -0.06 8.94 C-0.04 5.99 -0.02 3.04 0 0 Z " fill="#ED9933" transform="translate(339,460)" />
<path d="M0 0 C9.57 0 19.14 0 29 0 C29.02 2.95 29.04 5.9 29.06 8.94 C29.07 9.87 29.08 10.8 29.09 11.76 C29.09 12.49 29.1 13.21 29.1 13.96 C29.11 15.09 29.11 15.09 29.11 16.23 C29 18 29 18 28 19 C26.01 19.1 24.02 19.13 22.03 19.13 C20.82 19.13 19.61 19.14 18.36 19.14 C17.09 19.13 15.81 19.13 14.5 19.12 C13.23 19.13 11.95 19.13 10.64 19.14 C8.82 19.13 8.82 19.13 6.97 19.13 C5.85 19.13 4.73 19.13 3.58 19.13 C1 19 1 19 0 18 C-0.09 16.66 -0.11 15.31 -0.1 13.96 C-0.1 13.24 -0.09 12.51 -0.09 11.76 C-0.08 10.83 -0.07 9.9 -0.06 8.94 C-0.04 5.99 -0.02 3.04 0 0 Z " fill="#ED9A35" transform="translate(301,460)" />
<path d="M0 0 C1.17 0.01 2.34 0.01 3.54 0.02 C4.8 0.02 6.06 0.02 7.36 0.03 C8.7 0.03 10.04 0.04 11.38 0.05 C12.72 0.06 14.07 0.06 15.41 0.06 C18.71 0.08 22.01 0.09 25.32 0.11 C25.32 6.38 25.32 12.65 25.32 19.11 C21.35 19.14 17.38 19.16 13.41 19.17 C12.06 19.17 10.71 19.18 9.35 19.19 C7.42 19.2 5.48 19.21 3.54 19.21 C1.79 19.22 1.79 19.22 0 19.23 C-2.68 19.11 -2.68 19.11 -3.68 18.11 C-3.78 15.27 -3.82 12.46 -3.81 9.61 C-3.81 8.82 -3.82 8.02 -3.82 7.2 C-3.81 0.16 -3.81 0.16 0 0 Z " fill="#ED972F" transform="translate(440.683837890625,430.886474609375)" />
<path d="M0 0 C1.17 0.01 2.34 0.01 3.54 0.02 C4.8 0.02 6.06 0.02 7.36 0.03 C8.7 0.03 10.04 0.04 11.38 0.05 C12.72 0.06 14.07 0.06 15.41 0.06 C18.71 0.08 22.01 0.09 25.32 0.11 C25.32 6.38 25.32 12.65 25.32 19.11 C21.35 19.14 17.38 19.16 13.41 19.17 C12.06 19.17 10.71 19.18 9.35 19.19 C7.42 19.2 5.48 19.21 3.54 19.21 C1.79 19.22 1.79 19.22 0 19.23 C-2.68 19.11 -2.68 19.11 -3.68 18.11 C-3.78 15.27 -3.82 12.46 -3.81 9.61 C-3.81 8.82 -3.82 8.02 -3.82 7.2 C-3.81 0.16 -3.81 0.16 0 0 Z " fill="#ED9831" transform="translate(401.683837890625,430.886474609375)" />
<path d="M0 0 C1.21 -0 2.42 -0 3.67 -0 C4.94 -0 6.22 0 7.53 0.01 C9.44 0 9.44 0 11.39 -0 C13.21 -0 13.21 -0 15.06 0 C16.18 0 17.3 0 18.46 0 C21.03 0.13 21.03 0.13 22.03 1.13 C22.12 2.48 22.14 3.82 22.13 5.17 C22.13 5.9 22.12 6.62 22.12 7.38 C22.11 8.31 22.1 9.24 22.09 10.2 C22.07 13.14 22.05 16.09 22.03 19.13 C12.46 19.13 2.89 19.13 -6.97 19.13 C-6.99 16.18 -7.01 13.23 -7.03 10.2 C-7.04 9.26 -7.05 8.33 -7.06 7.38 C-7.06 6.65 -7.06 5.92 -7.07 5.17 C-7.07 4.42 -7.08 3.67 -7.08 2.9 C-6.82 -1.16 -3.29 0 0 0 Z " fill="#ED9A35" transform="translate(307.96875,401.8671875)" />
<path d="M0 0 C1.21 -0 2.42 -0 3.67 -0 C4.94 -0 6.22 0 7.53 0.01 C9.44 0 9.44 0 11.39 -0 C13.21 -0 13.21 -0 15.06 0 C16.18 0 17.3 0 18.46 0 C21.03 0.13 21.03 0.13 22.03 1.13 C22.13 3.98 22.17 6.79 22.16 9.63 C22.16 10.83 22.16 10.83 22.17 12.05 C22.16 18.01 22.16 18.01 21.03 19.13 C18.96 19.22 16.88 19.24 14.81 19.23 C13.55 19.23 12.29 19.22 10.99 19.22 C9.65 19.21 8.31 19.2 6.97 19.2 C5.62 19.19 4.28 19.19 2.94 19.18 C-0.37 19.17 -3.67 19.15 -6.97 19.13 C-7 16.15 -7.02 13.17 -7.03 10.2 C-7.04 9.35 -7.05 8.5 -7.06 7.62 C-7.06 6.81 -7.06 6 -7.07 5.17 C-7.07 4.42 -7.08 3.67 -7.08 2.9 C-6.82 -1.16 -3.29 0 0 0 Z " fill="#ED9933" transform="translate(345.96875,401.8671875)" />
<path d="M0 0 C3.97 -0.02 7.94 -0.04 11.91 -0.05 C13.26 -0.06 14.61 -0.07 15.96 -0.08 C17.9 -0.09 19.84 -0.09 21.78 -0.1 C23.53 -0.11 23.53 -0.11 25.32 -0.11 C28 0 28 0 29 1 C29.1 3.84 29.14 6.66 29.12 9.5 C29.13 10.7 29.13 10.7 29.14 11.92 C29.13 17.87 29.13 17.87 28 19 C26.01 19.1 24.02 19.13 22.03 19.13 C20.82 19.13 19.61 19.14 18.36 19.14 C17.09 19.13 15.81 19.13 14.5 19.12 C13.23 19.13 11.95 19.13 10.64 19.14 C8.82 19.13 8.82 19.13 6.97 19.13 C5.85 19.13 4.73 19.13 3.58 19.13 C1 19 1 19 0 18 C-0.09 16.66 -0.11 15.31 -0.1 13.96 C-0.09 13.16 -0.09 12.35 -0.09 11.51 C-0.08 10.66 -0.07 9.81 -0.06 8.94 C-0.06 8.08 -0.05 7.23 -0.05 6.35 C-0.04 4.23 -0.02 2.12 0 0 Z " fill="#ED9933" transform="translate(339,374)" />
<path d="M0 0 C1.21 -0 2.42 -0 3.67 -0 C4.94 -0 6.22 0 7.53 0.01 C9.44 0 9.44 0 11.39 -0 C13.21 -0 13.21 -0 15.06 0 C16.18 0 17.3 0 18.46 0 C21.03 0.13 21.03 0.13 22.03 1.13 C22.13 3.98 22.17 6.79 22.16 9.63 C22.16 10.83 22.16 10.83 22.17 12.05 C22.16 18.01 22.16 18.01 21.03 19.13 C19.04 19.23 17.05 19.26 15.06 19.27 C13.85 19.27 12.64 19.27 11.39 19.27 C10.12 19.27 8.84 19.26 7.53 19.26 C6.26 19.26 4.98 19.27 3.67 19.27 C1.85 19.27 1.85 19.27 0 19.27 C-1.12 19.26 -2.24 19.26 -3.39 19.26 C-5.97 19.13 -5.97 19.13 -6.97 18.13 C-7.07 15.29 -7.11 12.48 -7.09 9.63 C-7.1 8.83 -7.1 8.04 -7.11 7.21 C-7.09 0.19 -6.9 0.01 0 0 Z " fill="#ED9730" transform="translate(345.96875,430.8671875)" />
<path d="M0 0 C1.21 -0 2.42 -0 3.67 -0 C4.94 -0 6.22 0 7.53 0.01 C9.44 0 9.44 0 11.39 -0 C13.21 -0 13.21 -0 15.06 0 C16.18 0 17.3 0 18.46 0 C21.03 0.13 21.03 0.13 22.03 1.13 C22.13 3.98 22.17 6.79 22.16 9.63 C22.16 10.83 22.16 10.83 22.17 12.05 C22.16 18.01 22.16 18.01 21.03 19.13 C19.04 19.23 17.05 19.26 15.06 19.27 C13.85 19.27 12.64 19.27 11.39 19.27 C10.12 19.27 8.84 19.26 7.53 19.26 C6.26 19.26 4.98 19.27 3.67 19.27 C1.85 19.27 1.85 19.27 0 19.27 C-1.12 19.26 -2.24 19.26 -3.39 19.26 C-5.97 19.13 -5.97 19.13 -6.97 18.13 C-7.07 15.29 -7.11 12.48 -7.09 9.63 C-7.1 8.83 -7.1 8.04 -7.11 7.21 C-7.09 0.19 -6.9 0.01 0 0 Z " fill="#ED9832" transform="translate(307.96875,430.8671875)" />
<path d="M0 0 C1.21 -0 2.42 -0 3.67 -0 C4.94 -0 6.22 0 7.53 0.01 C9.44 0 9.44 0 11.39 -0 C13.21 -0 13.21 -0 15.06 0 C16.18 0 17.3 0 18.46 0 C21.03 0.13 21.03 0.13 22.03 1.13 C22.13 3.98 22.17 6.79 22.16 9.63 C22.16 10.83 22.16 10.83 22.17 12.05 C22.16 18.01 22.16 18.01 21.03 19.13 C19.04 19.23 17.05 19.26 15.06 19.27 C13.85 19.27 12.64 19.27 11.39 19.27 C10.12 19.27 8.84 19.26 7.53 19.26 C6.26 19.26 4.98 19.27 3.67 19.27 C1.85 19.27 1.85 19.27 0 19.27 C-1.12 19.26 -2.24 19.26 -3.39 19.26 C-5.97 19.13 -5.97 19.13 -6.97 18.13 C-7.07 15.29 -7.11 12.48 -7.09 9.63 C-7.1 8.83 -7.1 8.04 -7.11 7.21 C-7.09 0.19 -6.9 0.01 0 0 Z " fill="#ED9730" transform="translate(345.96875,344.8671875)" />
<path d="M0 0 C6.93 0 13.86 0 21 0 C21 2.31 21 4.62 21 7 C19.02 7 17.04 7 15 7 C15 20.2 15 33.4 15 47 C12.03 47 9.06 47 6 47 C6 33.8 6 20.6 6 7 C4.02 7 2.04 7 0 7 C0 4.69 0 2.38 0 0 Z " fill="#FDF7EF" transform="translate(307,159)" />
<path d="M0 0 C3.28 -0.02 6.56 -0.04 9.94 -0.06 C10.97 -0.07 12.01 -0.08 13.07 -0.09 C14.29 -0.09 14.29 -0.09 15.53 -0.1 C16.78 -0.11 16.78 -0.11 18.05 -0.11 C20 0 20 0 21 1 C21.1 2.55 21.13 4.1 21.13 5.66 C21.13 7.07 21.13 7.07 21.14 8.5 C21.13 9.49 21.13 10.48 21.12 11.5 C21.13 12.98 21.13 12.98 21.14 14.5 C21.14 15.44 21.13 16.38 21.13 17.34 C21.13 18.21 21.13 19.08 21.13 19.97 C21 22 21 22 20 23 C18.51 23.09 17.02 23.11 15.53 23.1 C14.72 23.1 13.91 23.09 13.07 23.09 C12.04 23.08 11 23.07 9.94 23.06 C6.66 23.04 3.38 23.02 0 23 C0 15.41 0 7.82 0 0 Z " fill="#ED9933" transform="translate(244,407)" />
<path d="M0 0 C3.28 -0.02 6.56 -0.04 9.94 -0.06 C10.97 -0.07 12.01 -0.08 13.07 -0.09 C14.29 -0.09 14.29 -0.09 15.53 -0.1 C16.78 -0.11 16.78 -0.11 18.05 -0.11 C20 0 20 0 21 1 C21.1 2.55 21.13 4.1 21.13 5.66 C21.13 7.07 21.13 7.07 21.14 8.5 C21.13 9.49 21.13 10.48 21.12 11.5 C21.13 12.98 21.13 12.98 21.14 14.5 C21.14 15.44 21.13 16.38 21.13 17.34 C21.13 18.21 21.13 19.08 21.13 19.97 C21 22 21 22 20 23 C18.51 23.09 17.02 23.11 15.53 23.1 C14.72 23.1 13.91 23.09 13.07 23.09 C12.04 23.08 11 23.07 9.94 23.06 C6.66 23.04 3.38 23.02 0 23 C0 15.41 0 7.82 0 0 Z " fill="#ED9831" transform="translate(244,358)" />
<path d="M0 0 C3.28 -0.02 6.56 -0.04 9.94 -0.06 C10.97 -0.07 12.01 -0.08 13.07 -0.09 C14.29 -0.09 14.29 -0.09 15.53 -0.1 C16.78 -0.11 16.78 -0.11 18.05 -0.11 C20 0 20 0 21 1 C21.1 2.55 21.13 4.1 21.13 5.66 C21.13 7.07 21.13 7.07 21.14 8.5 C21.13 9.49 21.13 10.48 21.12 11.5 C21.13 12.98 21.13 12.98 21.14 14.5 C21.14 15.44 21.13 16.38 21.13 17.34 C21.13 18.21 21.13 19.08 21.13 19.97 C21 22 21 22 20 23 C18.51 23.09 17.02 23.11 15.53 23.1 C14.72 23.1 13.91 23.09 13.07 23.09 C12.04 23.08 11 23.07 9.94 23.06 C6.66 23.04 3.38 23.02 0 23 C0 15.41 0 7.82 0 0 Z " fill="#ED9933" transform="translate(244,261)" />
<path d="M0 0 C6.93 0 13.86 0 21 0 C21 2.31 21 4.62 21 7 C18.69 7 16.38 7 14 7 C14 20.2 14 33.4 14 47 C11.36 47 8.72 47 6 47 C6 33.8 6 20.6 6 7 C4.02 7 2.04 7 0 7 C0 4.69 0 2.38 0 0 Z " fill="#FEFCFA" transform="translate(232,159)" />
<path d="M0 0 C6.93 0 13.86 0 21 0 C21 7.26 21 14.52 21 22 C14.07 22 7.14 22 0 22 C0 14.74 0 7.48 0 0 Z " fill="#ED9831" transform="translate(244,456)" />
<path d="M0 0 C6.93 0 13.86 0 21 0 C21 7.26 21 14.52 21 22 C14.07 22 7.14 22 0 22 C0 14.74 0 7.48 0 0 Z " fill="#ED9831" transform="translate(244,310)" />
<path d="M0 0 C6.6 0 13.2 0 20 0 C20 7.59 20 15.18 20 23 C13.4 23 6.8 23 0 23 C0 15.41 0 7.82 0 0 Z " fill="#ED9831" transform="translate(207,407)" />
<path d="M0 0 C6.6 0 13.2 0 20 0 C20 7.59 20 15.18 20 23 C13.4 23 6.8 23 0 23 C0 15.41 0 7.82 0 0 Z " fill="#ED972F" transform="translate(207,358)" />
<path d="M0 0 C6.6 0 13.2 0 20 0 C20 7.59 20 15.18 20 23 C13.4 23 6.8 23 0 23 C0 15.41 0 7.82 0 0 Z " fill="#ED9831" transform="translate(207,261)" />
<path d="M0 0 C6.6 0 13.2 0 20 0 C20 7.26 20 14.52 20 22 C13.4 22 6.8 22 0 22 C0 14.74 0 7.48 0 0 Z " fill="#ED972F" transform="translate(207,456)" />
<path d="M0 0 C6.6 0 13.2 0 20 0 C20 7.26 20 14.52 20 22 C13.4 22 6.8 22 0 22 C0 14.74 0 7.48 0 0 Z " fill="#ED972F" transform="translate(207,310)" />
<path d="M0 0 C0 9.57 0 19.14 0 29 C-7.92 29 -15.84 29 -24 29 C-22.88 23.38 -22.88 23.38 -20.27 20.29 C-19.71 19.62 -19.16 18.95 -18.58 18.26 C-18 17.58 -17.41 16.89 -16.81 16.19 C-15.67 14.83 -14.53 13.47 -13.39 12.11 C-12.83 11.44 -12.26 10.77 -11.68 10.08 C-9.45 7.32 -7.44 4.41 -5.46 1.46 C-4 0 -4 0 0 0 Z " fill="#ED9831" transform="translate(367,306)" />
<path d="M0 0 C2.64 0 5.28 0 8 0 C8 15.51 8 31.02 8 47 C5.36 47 2.72 47 0 47 C0 31.49 0 15.98 0 0 Z " fill="#FEFBF7" transform="translate(414,159)" />
<path d="M0 0 C2.64 0 5.28 0 8 0 C8 15.18 8 30.36 8 46 C5.36 46 2.72 46 0 46 C0 30.82 0 15.64 0 0 Z " fill="#FFFFFF" transform="translate(297,96)" />
<path d="M0 0 C2.31 0 4.62 0 7 0 C7 15.51 7 31.02 7 47 C4.69 47 2.38 47 0 47 C0 31.49 0 15.98 0 0 Z " fill="#FEFEFD" transform="translate(177,38)" />
<path d="M0 0 C2.38 -0.12 2.38 -0.12 5 0 C7.83 2.83 7.26 4.73 7.27 8.69 C7.27 9.35 7.27 10 7.27 10.68 C7.27 12.07 7.27 13.47 7.26 14.86 C7.25 16.99 7.26 19.12 7.27 21.26 C7.27 22.61 7.27 23.96 7.27 25.31 C7.26 26.55 7.26 27.78 7.26 29.05 C7 32 7 32 5 34 C0.44 33.44 0.44 33.44 -1 32 C-1.1 29.81 -1.13 27.61 -1.13 25.41 C-1.13 24.75 -1.13 24.09 -1.14 23.41 C-1.14 22.01 -1.13 20.62 -1.13 19.22 C-1.13 17.07 -1.13 14.93 -1.14 12.79 C-1.14 11.43 -1.13 10.08 -1.13 8.72 C-1.13 7.48 -1.13 6.24 -1.13 4.97 C-1 2 -1 2 0 0 Z " fill="#ED9B37" transform="translate(188,102)" />
<path d="M0 0 C2.31 0.33 4.62 0.66 7 1 C7.05 5.38 7.09 9.76 7.11 14.13 C7.12 15.62 7.13 17.11 7.15 18.6 C7.18 20.74 7.19 22.88 7.2 25.02 C7.21 26.31 7.22 27.6 7.23 28.93 C7 32 7 32 5 34 C3.35 34 1.7 34 0 34 C0 22.78 0 11.56 0 0 Z " fill="#ED9831" transform="translate(318,102)" />
<path d="M0 0 C1.65 0 3.3 0 5 0 C7.83 2.83 7.26 4.73 7.27 8.69 C7.27 9.35 7.27 10 7.27 10.68 C7.27 12.07 7.27 13.47 7.26 14.86 C7.25 16.99 7.26 19.12 7.27 21.26 C7.27 22.61 7.27 23.96 7.27 25.31 C7.26 26.55 7.26 27.78 7.26 29.05 C7 32 7 32 5 34 C3.35 34 1.7 34 0 34 C0 22.78 0 11.56 0 0 Z " fill="#ED9832" transform="translate(376,102)" />
<path d="M0 0 C1.98 0 3.96 0 6 0 C7 1 7 1 7.11 3.96 C7.11 5.25 7.1 6.55 7.1 7.88 C7.1 8.57 7.09 9.25 7.09 9.96 C7.09 12.16 7.08 14.36 7.06 16.56 C7.06 18.05 7.05 19.54 7.05 21.03 C7.04 24.69 7.02 28.34 7 32 C3.54 32.49 3.54 32.49 0 33 C0 22.11 0 11.22 0 0 Z " fill="#ED972F" transform="translate(251,45)" />
<path d="M0 0 C1.98 0 3.96 0 6 0 C7 1 7 1 7.11 3.96 C7.11 5.25 7.1 6.55 7.1 7.88 C7.1 8.57 7.09 9.25 7.09 9.96 C7.09 12.16 7.08 14.36 7.06 16.56 C7.06 18.05 7.05 19.54 7.05 21.03 C7.04 24.69 7.02 28.34 7 32 C3.54 32.49 3.54 32.49 0 33 C0 22.11 0 11.22 0 0 Z " fill="#ED972F" transform="translate(196,45)" />
<path d="M0 0 C0.04 1.67 0.04 3.33 0 5 C-1.81 6.81 -4.61 6.38 -7.06 6.56 C-8.17 6.65 -9.27 6.73 -10.41 6.82 C-11.26 6.88 -12.12 6.94 -13 7 C-13 5.35 -13 3.7 -13 2 C-8.46 0.55 -4.82 -0.24 0 0 Z " fill="#FCF2E7" transform="translate(351,151)" />
<path d="M0 0 C0.33 0 0.66 0 1 0 C1.34 1.73 1.67 3.46 2 5.19 C2.19 6.15 2.37 7.11 2.56 8.11 C2.97 10.79 3.08 13.29 3 16 C1.35 16 -0.3 16 -2 16 C-1.86 13.9 -1.71 11.79 -1.56 9.69 C-1.48 8.52 -1.4 7.34 -1.32 6.14 C-1 3 -1 3 0 0 Z " fill="#EEA041" transform="translate(350,111)" />
<path d="M0 0 C0.66 0.33 1.32 0.66 2 1 C2.47 3.34 2.83 5.7 3.12 8.06 C3.29 9.35 3.46 10.64 3.63 11.97 C3.75 12.97 3.88 13.97 4 15 C2.02 15 0.04 15 -2 15 C-1.38 9.99 -0.73 4.99 0 0 Z " fill="#EEA042" transform="translate(226,55)" />
<path d="M0 0 C0.66 0 1.32 0 2 0 C2.66 4.62 3.32 9.24 4 14 C2.02 14 0.04 14 -2 14 C-1.34 9.38 -0.68 4.76 0 0 Z " fill="#ED9A35" transform="translate(343,177)" />
</g></svg>