<?xml version='1.0' encoding='UTF-8'?>
<svg xmlns="http://www.w3.org/2000/svg" version="1.1" viewBox="0 0 610 610" width="512" height="512">
<g transform="translate(16.5, 16.5)"><path d="M0 0 C187.77 0 375.54 0 569 0 C569 188.1 569 376.2 569 570 C381.23 570 193.46 570 0 570 C0 381.9 0 193.8 0 0 Z " fill="#407C43" transform="translate(8,7)" />
<path d="M0 0 C1.4 -0 1.4 -0 2.82 -0 C17.31 0.01 31.41 0.59 45.69 3.25 C47.08 3.5 47.08 3.5 48.51 3.75 C70.12 7.7 90.97 14.58 110.69 24.25 C112.03 24.91 112.03 24.91 113.4 25.58 C136.03 36.77 156.45 50.34 174.87 67.62 C177.54 70.11 180.26 72.53 183 74.94 C187.27 78.78 191.01 82.84 194.69 87.25 C195.6 88.31 196.51 89.37 197.42 90.43 C198.41 91.58 199.39 92.73 200.38 93.88 C201.07 94.68 201.07 94.68 201.78 95.51 C207.66 102.42 207.66 102.42 209.69 106.25 C208.87 110.7 205.77 114.09 203 117.56 C202.28 118.47 202.28 118.47 201.55 119.39 C169.55 159 126.78 187.13 78.69 203.25 C77.97 203.5 77.26 203.74 76.52 204 C52.66 212.11 27.63 214.44 2.6 214.44 C-0.34 214.44 -3.29 214.46 -6.23 214.47 C-61.24 214.64 -114.89 196.14 -158.31 162.25 C-159.21 161.57 -160.1 160.88 -161.03 160.18 C-178.66 146.44 -195.07 130.25 -208.31 112.25 C-209.31 110.92 -210.31 109.58 -211.31 108.25 C-206.44 97.29 -196.51 87.76 -188.31 79.25 C-187.48 78.39 -187.48 78.39 -186.64 77.51 C-179.26 69.88 -171.72 62.76 -163.31 56.25 C-162.35 55.48 -161.4 54.7 -160.41 53.9 C-140.63 38.16 -117.85 25.42 -94.31 16.25 C-93.33 15.85 -92.35 15.45 -91.34 15.03 C-62.07 3.72 -31.13 0.02 0 0 Z " fill="#FDFEFD" transform="translate(297.3125,258.75)" />
<path d="M0 0 C1.14 0.34 2.27 0.68 3.45 1.03 C24.98 8.04 42.98 23.16 53.39 43.22 C61.79 59.97 61.79 59.97 61 68 C60.34 68.99 59.68 69.98 59 71 C55.56 71.38 55.56 71.38 52 71 C50.25 69.56 50.25 69.56 49 68 C48.01 67.67 47.02 67.34 46 67 C46.35 68.22 46.7 69.43 47.06 70.69 C48.52 76.78 48.52 76.78 47 80 C43.72 82.2 40.91 83.7 37.19 84.94 C34.83 85.84 34.83 85.84 33.62 88.19 C32.32 94.07 33.93 98.06 37 103 C37 104.32 37 105.64 37 107 C31.02 105.65 26.83 102.7 23 98 C21.2 94.47 19.74 91.01 18.32 87.3 C17.11 84.27 15.9 81.65 14 79 C11.41 78.5 11.41 78.5 9 79 C6.98 81.02 7.08 84.72 6.6 87.46 C6.02 89.9 5.22 91.81 4 94 C0.82 93.64 -0.78 93.18 -3.27 91.11 C-7.14 88.12 -11.34 86.97 -15.94 85.44 C-19.43 83.8 -20.89 82.19 -23 79 C-23.31 78.13 -23.62 77.27 -23.94 76.38 C-25.36 73.2 -26.95 72.62 -30 71 C-31.77 69.72 -33.52 68.41 -35.25 67.09 C-37.15 65.9 -38.81 65.43 -41 65 C-38.42 69.87 -34.8 73.26 -30.76 76.89 C-28.42 79.11 -27.09 80.48 -26.54 83.7 C-27 86 -27 86 -29.06 88.25 C-32.76 90.45 -34.66 91.29 -39 91 C-42.06 88.67 -44.48 85.89 -47 83 C-48.32 81.66 -49.65 80.32 -51 79 C-50.1 85.86 -48.21 90.34 -43 95 C-41.89 95.7 -40.77 96.4 -39.62 97.12 C-37 99 -37 99 -36.19 101.31 C-37.31 105.02 -39.55 106.88 -42.37 109.45 C-46.09 112.99 -45.6 118.21 -45.99 123.06 C-46.48 127.84 -47.42 129.87 -51 133 C-51.96 135.13 -51.96 135.13 -52.5 137.38 C-54.15 142.74 -56.02 146.68 -60.81 149.88 C-64.39 151.14 -67.23 151.23 -71 151 C-73.84 145.45 -74.38 141.2 -74 135 C-74.66 135 -75.32 135 -76 135 C-76.99 131.7 -77.98 128.4 -79 125 C-80.65 124.67 -82.3 124.34 -84 124 C-85.12 121.56 -85.12 121.56 -86 119 C-87.48 118.01 -87.48 118.01 -89 117 C-89 116.34 -89 115.68 -89 115 C-93.12 116.29 -93.12 116.29 -97 118.12 C-99.7 119.31 -102.08 119.06 -105 119 C-110.04 105.81 -116.85 87.03 -110.73 73.1 C-108.73 70.4 -107.01 68.51 -104 67 C-95.09 65.95 -86.38 69.74 -78.27 73.15 C-74.36 74.62 -70.6 74.46 -66.62 73.31 C-64.74 72.05 -64.74 72.05 -64.25 69.38 C-64.17 68.59 -64.08 67.81 -64 67 C-65.11 66.81 -65.11 66.81 -66.25 66.62 C-69.98 65.78 -72.29 64.71 -75 62 C-75 64.31 -75 66.62 -75 69 C-78.34 66.01 -80.15 63.07 -82 59 C-86.47 58.44 -89.07 59.95 -92.88 61.98 C-97.43 64.17 -101.95 65 -107 65 C-108 64 -108 64 -108.25 61.06 C-108.13 59.55 -108.13 59.55 -108 58 C-104.58 55.72 -103.32 55.78 -99.31 55.88 C-98.32 55.89 -97.32 55.91 -96.3 55.93 C-95.16 55.96 -95.16 55.96 -94 56 C-94.02 55.11 -94.04 54.23 -94.06 53.31 C-92.69 49.02 -91.21 47.91 -87.27 45.88 C-82 44.46 -76.68 44.84 -71.27 45.27 C-66.43 45.54 -63.7 45.28 -59.88 42.12 C-58.19 40.59 -58.19 40.59 -57 39 C-57 38.34 -57 37.68 -57 37 C-60.76 37.33 -61.98 37.98 -64.81 40.62 C-68 43 -68 43 -71.94 43.06 C-76.17 42.23 -79.4 40.33 -83 38 C-82.7 35.16 -82.01 34.01 -80.06 31.88 C-75.83 29.28 -71.85 28.79 -67 28 C-65.67 27.74 -64.34 27.48 -63 27.21 C-62.3 27.08 -61.6 26.94 -60.88 26.8 C-59.49 26.52 -58.1 26.24 -56.71 25.96 C-52.75 25.21 -49.03 24.86 -45 25 C-44.51 26.48 -44.51 26.48 -44 28 C-46.97 29.65 -49.94 31.3 -53 33 C-53 33.66 -53 34.32 -53 35 C-48.62 34.41 -45.48 32.79 -41.69 30.56 C-40.62 29.95 -39.55 29.33 -38.45 28.69 C-37.64 28.13 -36.83 27.58 -36 27 C-36 26.34 -36 25.68 -36 25 C-37.11 24.06 -38.27 23.17 -39.44 22.31 C-42.51 19.81 -42.93 19.36 -43.69 15.25 C-43.79 14.18 -43.89 13.11 -44 12 C-46.95 9.94 -49.45 9.76 -52.98 9.8 C-54.39 9.81 -54.39 9.81 -55.82 9.82 C-57.27 9.85 -57.27 9.85 -58.75 9.88 C-59.73 9.88 -60.72 9.89 -61.73 9.9 C-64.15 9.93 -66.58 9.96 -69 10 C-53.85 -5.99 -19.62 -6.19 0 0 Z " fill="#417D44" transform="translate(321,282)" />
<path d="M0 0 C1.12 0.01 1.12 0.01 2.26 0.02 C9.65 0.26 15.39 2.02 20.59 7.51 C26.21 14.66 25.93 20.89 26 29.75 C26.03 30.97 26.06 32.18 26.09 33.43 C26.14 41.45 25.67 46.34 19.98 52.28 C18.55 53.35 17.12 54.43 15.69 55.5 C16.76 56.02 17.83 56.53 18.94 57.06 C23.02 59.03 24.93 62.46 26.69 66.5 C27.21 70.17 27.21 70.17 27.22 74.05 C27.22 74.75 27.23 75.45 27.23 76.17 C27.23 77.64 27.23 79.11 27.21 80.58 C27.19 82.8 27.21 85.01 27.23 87.23 C27.25 95.1 27.03 102.64 22.69 109.5 C16.64 115.55 9.91 117.72 1.43 117.83 C0.35 117.82 0.35 117.82 -0.75 117.81 C-1.5 117.81 -2.25 117.8 -3.02 117.8 C-9.93 117.65 -14.67 116.73 -20.12 112.12 C-27.1 103.75 -27.61 96.09 -27.44 85.56 C-27.43 84.5 -27.42 83.43 -27.41 82.33 C-27.39 79.72 -27.35 77.11 -27.31 74.5 C-21.37 74.5 -15.43 74.5 -9.31 74.5 C-9.29 76.04 -9.26 77.58 -9.23 79.17 C-9.18 81.2 -9.12 83.22 -9.06 85.25 C-9.05 86.27 -9.03 87.28 -9.02 88.33 C-8.92 94.1 -8.92 94.1 -6.48 99.17 C-3.25 101.15 -1.02 101.03 2.69 100.5 C5.61 98.32 6.58 97.16 7.17 93.52 C7.17 92.39 7.16 91.26 7.15 90.09 C7.14 88.85 7.14 87.62 7.14 86.34 C7.11 85.05 7.09 83.76 7.06 82.44 C7.06 80.5 7.06 80.5 7.06 78.52 C7.28 71.62 7.28 71.62 4.69 65.5 C1.68 64.5 -0.85 64.2 -4 63.94 C-5.75 63.79 -7.51 63.65 -9.31 63.5 C-9.31 58.55 -9.31 53.6 -9.31 48.5 C-6.61 48.4 -3.91 48.3 -1.21 48.21 C2.88 47.21 4.27 45.96 6.69 42.5 C7.38 38.96 7.34 35.53 7.25 31.94 C7.27 30.52 7.27 30.52 7.28 29.07 C7.26 23.62 7.26 23.62 4.84 18.88 C1.88 16.98 0.14 16.92 -3.31 17.5 C-5.8 19.19 -7.11 20.52 -7.72 23.52 C-7.93 25.94 -8.02 28.32 -8.06 30.75 C-8.14 33.64 -8.23 36.52 -8.31 39.5 C-14.25 39.5 -20.19 39.5 -26.31 39.5 C-27.17 15.09 -27.17 15.09 -20.73 7.68 C-14.65 2 -8.16 -0.07 0 0 Z " fill="#FDFDFD" transform="translate(117.3125,53.5)" />
<path d="M0 0 C0 37.95 0 75.9 0 115 C-6.6 115 -13.2 115 -20 115 C-20 86.62 -20 58.24 -20 29 C-23.5 32.49 -23.5 32.49 -26.95 36.02 C-27.52 36.61 -28.1 37.2 -28.69 37.81 C-29.27 38.42 -29.85 39.02 -30.45 39.64 C-32 41 -32 41 -34 41 C-35.47 23.76 -35.47 23.76 -32.31 17.83 C-30.06 15.44 -30.06 15.44 -27.54 13.25 C-24.7 10.73 -23.01 8.04 -20.94 4.88 C-16 0 -16 0 0 0 Z " fill="#FAFBFA" transform="translate(80,55)" />
<path d="M0 0 C3.3 0 6.6 0 10 0 C11.54 5.11 12.68 10.19 13.62 15.44 C13.76 16.17 13.89 16.9 14.03 17.65 C14.36 19.44 14.68 21.22 15 23 C17.39 11.57 17.39 11.57 19 0 C22.63 0 26.26 0 30 0 C30 15.84 30 31.68 30 48 C27.36 48 24.72 48 22 48 C21.5 38.59 21.5 38.59 21 29 C20.01 34.94 19.02 40.88 18 47 C15.53 47.49 15.53 47.49 13 48 C11.68 41.07 10.36 34.14 9 27 C8.67 33.93 8.34 40.86 8 48 C5.36 48 2.72 48 0 48 C0 32.16 0 16.32 0 0 Z " fill="#F3F7F3" transform="translate(308,186)" />
<path d="M0 0 C17 0 17 0 23 4 C26.21 9.47 25.37 16.13 25.37 22.29 C25.37 24.43 25.41 26.56 25.45 28.7 C25.46 30.07 25.46 31.44 25.46 32.81 C25.47 34.04 25.48 35.28 25.49 36.55 C24.91 40.66 23.59 42.79 21 46 C18 48 18 48 0 48 C0 32.16 0 16.32 0 0 Z " fill="#F1F5F1" transform="translate(248,122)" />
<path d="M0 0 C3.3 0 6.6 0 10 0 C11.65 7.92 13.3 15.84 15 24 C16.32 16.08 17.64 8.16 19 0 C22.63 0 26.26 0 30 0 C30 15.84 30 31.68 30 48 C27.36 48 24.72 48 22 48 C21.5 36.62 21.5 36.62 21 25 C20.05 31.82 20.05 31.82 19.12 38.64 C19 39.49 18.88 40.34 18.75 41.21 C18.63 42.08 18.51 42.95 18.39 43.85 C18 46 18 46 17 48 C15.35 47.67 13.7 47.34 12 47 C10.02 35.62 10.02 35.62 8 24 C7.67 31.92 7.34 39.84 7 48 C4.69 48 2.38 48 0 48 C0 32.16 0 16.32 0 0 Z " fill="#F6F9F6" transform="translate(189,122)" />
<path d="M0 0 C16 0 16 0 22 3 C24.42 6.63 24.31 9.35 24.3 13.55 C24.31 14.29 24.31 15.03 24.31 15.79 C24.32 17.35 24.32 18.92 24.32 20.48 C24.31 22.86 24.34 25.24 24.36 27.62 C24.36 29.14 24.36 30.66 24.36 32.18 C24.37 32.89 24.38 33.6 24.39 34.33 C24.35 38.74 23.8 41.56 21 45 C16 48 16 48 0 48 C0 32.16 0 16.32 0 0 Z " fill="#F6F9F6" transform="translate(189,186)" />
<path d="M0 0 C3.72 2.08 5.46 4.09 7 8 C7.38 12.4 7.33 16.8 7.32 21.22 C7.31 23.36 7.34 25.5 7.36 27.65 C7.36 29.02 7.36 30.4 7.36 31.77 C7.37 33.02 7.37 34.26 7.37 35.54 C6.87 40.25 5.47 43.67 1.94 46.88 C-2.4 48.54 -6.42 48.69 -11 48 C-14.63 45.88 -16.5 43.88 -18 40 C-18.38 35.44 -18.33 30.87 -18.32 26.3 C-18.31 24.07 -18.34 21.85 -18.36 19.62 C-18.36 18.2 -18.36 16.77 -18.36 15.35 C-18.37 14.06 -18.37 12.77 -18.37 11.44 C-17.9 7.06 -16.24 4.67 -13.68 1.21 C-9.91 -1.51 -4.41 -0.54 0 0 Z " fill="#F2F6F3" transform="translate(361,55)" />
<path d="M0 0 C3.67 2.1 5.48 4.1 7 8 C7.4 12.54 7.37 17.09 7.37 21.64 C7.37 23.86 7.41 26.08 7.45 28.29 C7.46 29.71 7.46 31.13 7.46 32.55 C7.47 33.84 7.48 35.12 7.49 36.44 C6.92 40.6 5.6 42.75 3 46 C-1.19 48.92 -6.09 48.64 -11 48 C-15.15 45.66 -16.57 43.45 -18 39 C-18.26 35.76 -18.26 35.76 -18.27 32.12 C-18.27 30.81 -18.27 29.5 -18.27 28.14 C-18.27 27.12 -18.27 27.12 -18.26 26.08 C-18.25 24.01 -18.26 21.93 -18.27 19.86 C-18.27 18.54 -18.27 17.23 -18.27 15.88 C-18.26 14.08 -18.26 14.08 -18.26 12.24 C-17.91 7.84 -16.89 5.06 -14.06 1.69 C-9.46 -0.85 -5.14 -0.77 0 0 Z " fill="#F2F6F2" transform="translate(295,55)" />
<path d="M0 0 C2.97 2.22 4.37 3.74 6 7 C6.13 9.41 6.21 11.79 6.24 14.2 C6.25 15.28 6.25 15.28 6.26 16.37 C6.28 17.89 6.29 19.4 6.3 20.92 C6.31 23.23 6.36 25.53 6.4 27.84 C6.41 29.32 6.42 30.79 6.43 32.27 C6.44 32.95 6.46 33.63 6.48 34.34 C6.46 39.34 5.11 42.14 2 46 C-2.17 48.9 -7.12 48.8 -12 48 C-14.82 45.81 -16.42 44.17 -18 41 C-18.14 38.43 -18.21 35.89 -18.24 33.32 C-18.25 32.56 -18.25 31.8 -18.26 31.01 C-18.28 29.4 -18.29 27.78 -18.3 26.17 C-18.31 23.71 -18.36 21.25 -18.4 18.78 C-18.41 17.21 -18.42 15.64 -18.43 14.07 C-18.44 13.34 -18.46 12.61 -18.48 11.85 C-18.46 8.18 -18.11 6.17 -16.1 3.06 C-11.64 -1.32 -5.93 -0.73 0 0 Z " fill="#FAFCFA" transform="translate(235,186)" />
<path d="M0 0 C4.3 1.74 5.98 3.89 8 8 C8.54 12.56 8.47 17.13 8.45 21.72 C8.44 23.93 8.47 26.13 8.5 28.34 C8.5 29.76 8.5 31.17 8.5 32.59 C8.5 34.51 8.5 34.51 8.5 36.46 C7.91 40.62 6.63 42.76 4 46 C-0.45 48.97 -4.78 48.64 -10 48 C-13 46.2 -14.45 45.1 -16 42 C-16.14 39.36 -16.21 36.75 -16.24 34.11 C-16.25 33.32 -16.25 32.54 -16.26 31.73 C-16.28 30.07 -16.29 28.4 -16.3 26.74 C-16.31 24.21 -16.36 21.67 -16.4 19.14 C-16.41 17.52 -16.42 15.91 -16.43 14.29 C-16.44 13.54 -16.46 12.78 -16.48 12 C-16.46 8.28 -16.13 6.2 -14.1 3.04 C-9.96 -0.99 -5.52 -0.48 0 0 Z " fill="#F6F9F6" transform="translate(455,122)" />
<path d="M0 0 C16 0 16 0 21 3 C22.59 6.19 22.1 9.63 22.06 13.12 C22.06 13.88 22.05 14.63 22.05 15.41 C22.04 17.27 22.02 19.14 22 21 C21.01 21.33 20.02 21.66 19 22 C19 22.66 19 23.32 19 24 C19.64 24.29 20.28 24.58 20.94 24.88 C23 26 23 26 24 28 C25.04 40.33 25.04 40.33 22.12 44.75 C20 47 20 47 18 48 C12.06 48 6.12 48 0 48 C0 32.16 0 16.32 0 0 Z " fill="#F8FAF9" transform="translate(466,122)" />
<path d="M0 0 C2.29 4 2 6.6 1 11 C-2.13 18.29 -6.4 24.91 -11.12 31.25 C-11.53 31.81 -11.94 32.37 -12.36 32.95 C-14.26 35.41 -15.58 36.86 -18.57 37.86 C-21.72 38.04 -24.84 38.06 -28 38 C-28 37.01 -28 36.02 -28 35 C-29.36 35.77 -29.36 35.77 -30.75 36.56 C-34 38 -34 38 -36.09 37.84 C-38 37 -38 37 -39.05 35.21 C-42.57 23.81 -42.57 23.81 -40.12 17.86 C-36.63 11.62 -31.95 8.84 -25.17 6.91 C-23.84 6.62 -22.52 6.34 -21.19 6.06 C-15.25 4.73 -10.21 2.96 -4.92 -0.14 C-3 -1 -3 -1 0 0 Z " fill="#437E46" transform="translate(377,390)" />
<path d="M0 0 C15 0 15 0 20 2 C23.94 6.84 23.53 11.77 23.44 17.75 C22.87 21.94 21.16 23.33 18 26 C17.9 31.29 19.99 35.79 22.06 40.57 C23.01 43.04 23.56 45.4 24 48 C21.03 48 18.06 48 15 48 C13.02 42.06 11.04 36.12 9 30 C8.67 35.94 8.34 41.88 8 48 C5.36 48 2.72 48 0 48 C0 32.16 0 16.32 0 0 Z " fill="#F9FBF9" transform="translate(426,55)" />
<path d="M0 0 C2.64 0 5.28 0 8 0 C11.01 6.47 12.96 13.17 15 20 C15.33 13.4 15.66 6.8 16 0 C18.64 0 21.28 0 24 0 C24 15.84 24 31.68 24 48 C21.36 48 18.72 48 16 48 C13.36 39.75 10.72 31.5 8 23 C7.67 31.25 7.34 39.5 7 48 C4.69 48 2.38 48 0 48 C0 32.16 0 16.32 0 0 Z " fill="#F5F8F5" transform="translate(304,122)" />
<path d="M0 0 C1.1 0.01 2.19 0.02 3.32 0.03 C4.58 0.04 4.58 0.04 5.88 0.06 C5.88 1.05 5.88 2.04 5.88 3.06 C-11.87 18.02 -35.14 20.67 -57.33 18.89 C-66.9 17.88 -66.9 17.88 -71.12 15.06 C-71.05 11.97 -70.75 9.8 -68.71 7.4 C-62.48 1.83 -56.8 0.6 -48.55 0.74 C-40.63 1.49 -32.88 3.9 -25.5 6.81 C-22.21 8.03 -20.55 8.45 -17.12 8.06 C-14.67 6.6 -14.67 6.6 -12.44 4.62 C-7.9 0.85 -5.98 -0.06 0 0 Z " fill="#447F47" transform="translate(342.125,434.9375)" />
<path d="M0 0 C2.64 0 5.28 0 8 0 C8.61 1.62 9.21 3.25 9.81 4.88 C10.15 5.78 10.49 6.68 10.83 7.62 C12.36 12.03 13.66 16.52 15 21 C15.33 14.07 15.66 7.14 16 0 C18.31 0 20.62 0 23 0 C23 15.84 23 31.68 23 48 C20.69 48 18.38 48 16 48 C12.89 40.14 10.49 32.08 8 24 C7.67 31.92 7.34 39.84 7 48 C4.69 48 2.38 48 0 48 C0 32.16 0 16.32 0 0 Z " fill="#F9FBF9" transform="translate(373,55)" />
<path d="M0 0 C3 1.8 4.45 2.9 6 6 C6.07 7.71 6.08 9.42 6.06 11.12 C6.05 12.04 6.04 12.95 6.04 13.88 C6.02 14.58 6.01 15.28 6 16 C3.36 16 0.72 16 -2 16 C-2.33 13.36 -2.66 10.72 -3 8 C-4.65 8 -6.3 8 -8 8 C-8 18.56 -8 29.12 -8 40 C-6.68 40.33 -5.36 40.66 -4 41 C-2.26 39.26 -2.63 36.81 -2.44 34.44 C-2.35 33.43 -2.27 32.41 -2.18 31.37 C-2.12 30.59 -2.06 29.81 -2 29 C-3.32 29 -4.64 29 -6 29 C-6.04 27 -6.04 25 -6 23 C-5.67 22.67 -5.34 22.34 -5 22 C-1.37 22 2.26 22 6 22 C6 30.58 6 39.16 6 48 C4.02 48 2.04 48 0 48 C-0.33 47.34 -0.66 46.68 -1 46 C-1.66 46.66 -2.32 47.32 -3 48 C-6.04 48.5 -8.96 48.44 -12 48 C-15.05 45.81 -16.62 43.45 -18 40 C-18.38 35.6 -18.33 31.2 -18.32 26.78 C-18.31 24.64 -18.34 22.5 -18.36 20.35 C-18.36 18.98 -18.36 17.6 -18.36 16.23 C-18.37 14.98 -18.37 13.74 -18.37 12.46 C-17.88 7.84 -16.45 4.45 -13.15 1.15 C-9.03 -1.05 -4.53 -0.62 0 0 Z " fill="#F4F7F4" transform="translate(409,122)" />
<path d="M0 0 C1.37 0.02 1.37 0.02 2.78 0.04 C3.7 0.04 4.62 0.05 5.56 0.06 C6.27 0.07 6.98 0.09 7.71 0.1 C8.86 5.97 10 11.84 11.13 17.71 C11.52 19.71 11.91 21.7 12.3 23.7 C12.86 26.57 13.41 29.45 13.96 32.32 C14.14 33.21 14.31 34.1 14.5 35.01 C15.34 39.44 15.92 43.56 15.71 48.1 C9.56 48.2 9.56 48.2 7.71 48.1 C6.71 47.1 6.71 47.1 6.62 45.25 C6.65 43.2 6.68 41.15 6.71 39.1 C3.74 39.1 0.77 39.1 -2.29 39.1 C-2.62 42.07 -2.95 45.04 -3.29 48.1 C-5.93 48.1 -8.57 48.1 -11.29 48.1 C-10.14 37.55 -8.2 27.23 -6.05 16.84 C-4.71 10.4 -4.71 10.4 -3.7 3.91 C-3.14 0.13 -3.14 0.13 0 0 Z " fill="#F7FAF7" transform="translate(199.28515625,54.90234375)" />
<path d="M0 0 C3.3 0 6.6 0 10 0 C11.15 5.87 12.29 11.74 13.42 17.61 C13.8 19.61 14.19 21.61 14.58 23.6 C15.14 26.48 15.7 29.35 16.25 32.23 C16.42 33.11 16.6 34 16.78 34.92 C17.62 39.35 18.21 43.46 18 48 C15.36 48 12.72 48 10 48 C8.52 45.04 8.94 42.26 9 39 C6.03 39 3.06 39 0 39 C-0.33 41.97 -0.66 44.94 -1 48 C-3.64 48 -6.28 48 -9 48 C-8.35 42.36 -7.47 36.81 -6.41 31.23 C-6.25 30.43 -6.1 29.62 -5.95 28.8 C-5.63 27.12 -5.31 25.43 -4.99 23.75 C-4.5 21.18 -4.01 18.6 -3.53 16.03 C-3.22 14.39 -2.91 12.75 -2.59 11.11 C-2.45 10.34 -2.3 9.57 -2.15 8.78 C-1.58 5.77 -0.97 2.9 0 0 Z " fill="#F8FAF8" transform="translate(255,55)" />
<path d="M0 0 C3.3 0 6.6 0 10 0 C11.15 5.71 12.29 11.42 13.42 17.13 C13.8 19.07 14.19 21.01 14.58 22.95 C15.14 25.75 15.7 28.55 16.25 31.35 C16.42 32.21 16.6 33.07 16.78 33.96 C17.71 38.74 18.18 43.13 18 48 C15.36 48 12.72 48 10 48 C9.67 45.03 9.34 42.06 9 39 C6.03 39 3.06 39 0 39 C0.02 40.11 0.04 41.23 0.06 42.38 C0 46 0 46 -1 48 C-3.64 48 -6.28 48 -9 48 C-8.29 42.75 -7.4 37.56 -6.41 32.36 C-6.25 31.56 -6.1 30.76 -5.95 29.93 C-5.63 28.25 -5.31 26.57 -4.99 24.88 C-4.5 22.31 -4.01 19.74 -3.53 17.16 C-3.22 15.52 -2.91 13.88 -2.59 12.24 C-2.45 11.47 -2.3 10.7 -2.15 9.91 C-1.52 6.58 -0.82 3.3 0 0 Z " fill="#F8FAF8" transform="translate(461,55)" />
<path d="M0 0 C3.3 0 6.6 0 10 0 C12.52 11.92 15.01 23.85 17.31 35.81 C17.48 36.69 17.65 37.58 17.83 38.49 C18.06 39.71 18.06 39.71 18.3 40.96 C18.44 41.67 18.57 42.38 18.71 43.11 C19 45 19 45 19 48 C16.03 48 13.06 48 10 48 C9.67 45.03 9.34 42.06 9 39 C6.36 39 3.72 39 1 39 C0.67 41.97 0.34 44.94 0 48 C-2.64 48 -5.28 48 -8 48 C-7.37 41.8 -6.49 35.72 -5.37 29.59 C-5.22 28.74 -5.06 27.88 -4.9 27.01 C-4.42 24.32 -3.93 21.63 -3.44 18.94 C-3.1 17.1 -2.77 15.26 -2.44 13.42 C-1.63 8.95 -0.82 4.47 0 0 Z " fill="#F8FAF8" transform="translate(283,122)" />
<path d="M0 0 C3.3 0 6.6 0 10 0 C11.15 5.71 12.29 11.42 13.42 17.13 C13.8 19.07 14.19 21.01 14.58 22.95 C15.14 25.75 15.7 28.55 16.25 31.35 C16.42 32.21 16.6 33.07 16.78 33.96 C17.71 38.74 18.18 43.13 18 48 C15.36 48 12.72 48 10 48 C9.67 45.03 9.34 42.06 9 39 C6.03 39 3.06 39 0 39 C0.02 40.11 0.04 41.23 0.06 42.38 C0 46 0 46 -1 48 C-3.64 48 -6.28 48 -9 48 C-7.9 41.3 -6.68 34.62 -5.47 27.94 C-5.2 26.44 -4.93 24.95 -4.66 23.45 C-3.25 15.6 -1.82 7.77 0 0 Z " fill="#F8FAF8" transform="translate(499,55)" />
<path d="M0 0 C3.3 0 6.6 0 10 0 C11.15 5.87 12.29 11.74 13.42 17.61 C13.8 19.61 14.19 21.61 14.58 23.6 C15.14 26.48 15.7 29.35 16.25 32.23 C16.42 33.11 16.6 34 16.78 34.92 C17.62 39.35 18.21 43.46 18 48 C15.36 48 12.72 48 10 48 C9.67 45.03 9.34 42.06 9 39 C6.03 39 3.06 39 0 39 C-0.33 41.97 -0.66 44.94 -1 48 C-3.64 48 -6.28 48 -9 48 C-7.75 38.55 -6.18 29.21 -4.34 19.86 C-3.93 17.78 -3.53 15.69 -3.12 13.6 C-1.14 3.43 -1.14 3.43 0 0 Z " fill="#F9FBF9" transform="translate(349,186)" />
<path d="M0 0 C3.3 0 6.6 0 10 0 C10.17 0.95 10.34 1.91 10.52 2.89 C11.16 6.46 11.81 10.03 12.45 13.6 C12.73 15.14 13.01 16.68 13.29 18.22 C15.08 28.31 15.08 28.31 17.19 38.34 C17.93 41.7 18.18 44.57 18 48 C11.85 48.1 11.85 48.1 10 48 C9 47 9 47 8.9 45.15 C8.93 43.1 8.97 41.05 9 39 C6.03 39 3.06 39 0 39 C-0.33 41.97 -0.66 44.94 -1 48 C-3.64 48 -6.28 48 -9 48 C-7.69 38.95 -6.1 29.97 -4.34 20.99 C-3.93 18.91 -3.53 16.82 -3.12 14.74 C-1.15 4.61 -1.15 4.61 0 0 Z " fill="#F8FAF8" transform="translate(500,122)" />
<path d="M0 0 C3.47 0.05 3.47 0.05 6.93 0.1 C9.32 8.97 11.11 17.9 12.72 26.94 C13.13 29.19 13.54 31.44 13.95 33.69 C15.93 44.68 15.93 44.68 15.93 48.1 C13.29 48.1 10.65 48.1 7.93 48.1 C7.27 45.46 6.61 42.82 5.93 40.1 C3.29 39.77 0.65 39.44 -2.07 39.1 C-2.4 42.07 -2.73 45.04 -3.07 48.1 C-5.71 48.1 -8.35 48.1 -11.07 48.1 C-9.84 38.11 -8.28 28.23 -6.41 18.35 C-6 16.18 -5.59 14 -5.19 11.83 C-4.93 10.44 -4.67 9.05 -4.41 7.67 C-4.17 6.43 -3.94 5.19 -3.7 3.91 C-2.85 0.13 -2.85 0.13 0 0 Z " fill="#F9FBF9" transform="translate(367.06640625,121.90234375)" />
<path d="M0 0 C3.25 1.75 3.25 1.75 5 5 C5.38 9.04 5.29 12.96 5 17 C2.69 17 0.38 17 -2 17 C-2.33 14.03 -2.66 11.06 -3 8 C-4.32 7.67 -5.64 7.34 -7 7 C-8.35 8.12 -8.35 8.12 -8.11 11.05 C-8.11 12.4 -8.11 13.75 -8.1 15.1 C-8.1 16.16 -8.1 16.16 -8.09 17.25 C-8.09 19.52 -8.08 21.79 -8.06 24.06 C-8.06 25.6 -8.05 27.14 -8.05 28.67 C-8.04 32.45 -8.02 36.22 -8 40 C-6.35 40 -4.7 40 -3 40 C-2.67 36.04 -2.34 32.08 -2 28 C0.64 28 3.28 28 6 28 C6.58 41.34 6.58 41.34 3 46 C-0.19 47.88 -0.19 47.88 -3 49 C-2.67 50.32 -2.34 51.64 -2 53 C-5 55 -5 55 -9 55 C-8.67 52.69 -8.34 50.38 -8 48 C-9.11 47.91 -9.11 47.91 -10.25 47.81 C-13.85 46.75 -14.92 45.05 -17 42 C-19.24 37.53 -18.23 31.43 -18.24 26.45 C-18.25 24.21 -18.28 21.96 -18.31 19.72 C-18.32 18.28 -18.32 16.85 -18.33 15.42 C-18.34 14.12 -18.35 12.81 -18.36 11.47 C-17.9 7.06 -16.25 4.69 -13.68 1.22 C-9.87 -1.55 -4.44 -0.6 0 0 Z " fill="#F5F8F5" transform="translate(237,55)" />
<path d="M0 0 C3.91 0.03 5.45 0.13 8.88 2.19 C11.97 5.7 11.86 7.82 11.81 12.44 C11.8 13.53 11.79 14.63 11.79 15.76 C11.77 16.6 11.76 17.44 11.75 18.31 C9.42 18.35 7.08 18.35 4.75 18.31 C3.17 16.73 3.4 14.93 3.19 12.75 C3.1 11.92 3.02 11.1 2.93 10.25 C2.87 9.61 2.81 8.97 2.75 8.31 C1.1 8.31 -0.55 8.31 -2.25 8.31 C-2.25 18.87 -2.25 29.43 -2.25 40.31 C-0.6 40.64 1.05 40.97 2.75 41.31 C3.08 37.02 3.41 32.73 3.75 28.31 C6.39 28.31 9.03 28.31 11.75 28.31 C11.83 30.37 11.89 32.44 11.94 34.5 C11.99 36.22 11.99 36.22 12.04 37.98 C11.72 41.65 10.98 43.42 8.75 46.31 C5.56 48.12 5.56 48.12 2.75 49.31 C3.08 50.96 3.41 52.61 3.75 54.31 C0.28 54.81 0.28 54.81 -3.25 55.31 C-2.92 53 -2.59 50.69 -2.25 48.31 C-3.39 48.16 -3.39 48.16 -4.56 48 C-7.47 47.26 -8.45 46.65 -10.25 44.31 C-12.13 38.67 -11.56 32.32 -11.6 26.41 C-11.62 24.76 -11.64 23.12 -11.68 21.48 C-11.74 19.1 -11.76 16.73 -11.77 14.35 C-11.8 13.62 -11.82 12.89 -11.84 12.14 C-11.83 8.11 -11.41 6.5 -8.78 3.37 C-7.94 2.69 -7.11 2.01 -6.25 1.31 C-4.53 -0.4 -2.34 0.06 0 0 Z " fill="#F6F9F6" transform="translate(342.25,121.6875)" />
<path d="M0 0 C2.64 0 5.28 0 8 0 C8.03 1.17 8.05 2.34 8.08 3.55 C8.17 7.88 8.27 12.22 8.37 16.55 C8.42 18.43 8.46 20.31 8.5 22.19 C8.55 24.88 8.62 27.58 8.68 30.27 C8.7 31.12 8.72 31.96 8.73 32.83 C8.73 37.05 8.73 37.05 10 41 C11.32 41 12.64 41 14 41 C15.66 37.67 15.24 33.94 15.32 30.27 C15.34 29.41 15.36 28.55 15.38 27.66 C15.44 24.9 15.5 22.14 15.56 19.38 C15.61 17.51 15.65 15.64 15.69 13.77 C15.8 9.18 15.9 4.59 16 0 C18.31 0 20.62 0 23 0 C23.07 5.89 23.13 11.78 23.16 17.67 C23.18 19.67 23.2 21.68 23.23 23.68 C23.26 26.56 23.28 29.44 23.29 32.32 C23.31 33.22 23.32 34.11 23.34 35.03 C23.34 39.83 23.18 43.12 20 47 C17.19 48.4 14.76 48.28 11.62 48.38 C10.48 48.42 9.34 48.47 8.16 48.52 C5 48 5 48 2.65 45.66 C0.58 42.32 -0.13 39.84 -0.11 35.99 C-0.11 35.19 -0.11 34.39 -0.11 33.56 C-0.11 32.7 -0.1 31.84 -0.1 30.96 C-0.1 30.07 -0.09 29.19 -0.09 28.28 C-0.09 25.46 -0.08 22.63 -0.06 19.81 C-0.06 17.9 -0.05 15.99 -0.05 14.07 C-0.04 9.38 -0.02 4.69 0 0 Z " fill="#FCFDFD" transform="translate(222,122)" />
<path d="M0 0 C3.93 2.79 3.93 2.79 5 6 C5.37 9.71 5.3 13.29 5 17 C2.36 17 -0.28 17 -3 17 C-3.33 13.7 -3.66 10.4 -4 7 C-5.65 7.33 -7.3 7.66 -9 8 C-9 18.56 -9 29.12 -9 40 C-7.35 40 -5.7 40 -4 40 C-3.67 36.04 -3.34 32.08 -3 28 C-0.36 28 2.28 28 5 28 C5.69 40.89 5.69 40.89 3.19 44.75 C0.08 47.95 -2.58 48.19 -6.88 48.31 C-10.53 48.28 -11.83 48.1 -15.06 46.19 C-18.53 42.27 -18.19 38.19 -18.24 33.23 C-18.25 32.47 -18.25 31.71 -18.26 30.92 C-18.28 29.31 -18.29 27.7 -18.3 26.09 C-18.31 23.64 -18.36 21.19 -18.4 18.73 C-18.41 17.17 -18.42 15.6 -18.43 14.04 C-18.44 13.31 -18.46 12.58 -18.48 11.83 C-18.46 8.16 -18.11 6.17 -16.1 3.06 C-11.63 -1.33 -5.94 -0.79 0 0 Z " fill="#F8FAF8" transform="translate(269,186)" />
<path d="M0 0 C3.25 1.75 3.25 1.75 5 5 C5.38 9.04 5.29 12.96 5 17 C2.69 17 0.38 17 -2 17 C-2.33 14.03 -2.66 11.06 -3 8 C-4.66 7.62 -6.32 7.29 -8 7 C-9.34 8.11 -9.34 8.11 -9.11 10.96 C-9.11 12.25 -9.1 13.55 -9.1 14.88 C-9.1 15.91 -9.1 15.91 -9.09 16.96 C-9.09 19.16 -9.08 21.36 -9.06 23.56 C-9.06 25.05 -9.05 26.54 -9.05 28.03 C-9.04 31.69 -9.02 35.34 -9 39 C-7.02 39.66 -5.04 40.32 -3 41 C-2.67 36.71 -2.34 32.42 -2 28 C0.31 28 2.62 28 5 28 C5.11 30.23 5.19 32.46 5.25 34.69 C5.3 35.93 5.34 37.17 5.39 38.45 C4.94 42.58 3.96 44.13 1 47 C-1.77 47.92 -3.92 48.32 -6.81 48.5 C-8.06 48.61 -8.06 48.61 -9.33 48.72 C-12.87 47.77 -14.54 46.48 -16.8 43.61 C-19.28 38.22 -18.8 32.1 -18.67 26.28 C-18.63 23.94 -18.63 21.61 -18.64 19.27 C-18.63 17.77 -18.62 16.28 -18.6 14.78 C-18.6 14.09 -18.61 13.4 -18.61 12.68 C-18.46 7.72 -17.11 4.83 -14 1 C-9.78 -1.11 -4.58 -0.5 0 0 Z " fill="#FCFDFC" transform="translate(333,55)" />
<path d="M0 0 C2.97 0 5.94 0 9 0 C9 13.53 9 27.06 9 41 C11.97 41 14.94 41 18 41 C18 43.31 18 45.62 18 48 C12.06 48 6.12 48 0 48 C0 32.16 0 16.32 0 0 Z " fill="#F0F5F0" transform="translate(520,122)" />
<path d="M0 0 C2.97 0 5.94 0 9 0 C9 13.53 9 27.06 9 41 C11.97 41 14.94 41 18 41 C18 43.31 18 45.62 18 48 C12.06 48 6.12 48 0 48 C0 32.16 0 16.32 0 0 Z " fill="#F0F5F0" transform="translate(418,122)" />
<path d="M0 0 C6.93 0 13.86 0 21 0 C21 2.31 21 4.62 21 7 C19.02 7 17.04 7 15 7 C15 20.53 15 34.06 15 48 C12.36 48 9.72 48 7 48 C7 34.47 7 20.94 7 7 C4.69 7 2.38 7 0 7 C0 4.69 0 2.38 0 0 Z " fill="#FCFDFC" transform="translate(400,55)" />
<path d="M0 0 C2.64 0 5.28 0 8 0 C8 13.53 8 27.06 8 41 C11.3 41 14.6 41 18 41 C18 43.31 18 45.62 18 48 C12.06 48 6.12 48 0 48 C0 32.16 0 16.32 0 0 Z " fill="#FCFDFC" transform="translate(277,186)" />
<path d="M0 0 C2.64 0 5.28 0 8 0 C8 15.84 8 31.68 8 48 C5.36 48 2.72 48 0 48 C0 32.16 0 16.32 0 0 Z " fill="#FEFEFE" transform="translate(297,186)" />
<path d="M0 0 C2.56 0.25 2.56 0.25 5 1 C7.15 5.31 6.19 11.07 6.19 15.86 C6.19 17.99 6.21 20.12 6.22 22.26 C6.23 23.61 6.23 24.96 6.23 26.31 C6.23 27.55 6.24 28.78 6.24 30.05 C6 33 6 33 4 35 C1.38 35.12 1.38 35.12 -1 35 C-3.2 30.59 -2.19 24.61 -2.19 19.71 C-2.19 17.51 -2.21 15.3 -2.22 13.1 C-2.23 11.7 -2.23 10.3 -2.23 8.91 C-2.23 7.63 -2.24 6.36 -2.24 5.04 C-2 2 -2 2 0 0 Z " fill="#47814A" transform="translate(227,192)" />
<path d="M0 0 C2.5 0.12 2.5 0.12 3.5 1.12 C3.61 3.48 3.66 5.8 3.67 8.15 C3.67 8.86 3.67 9.56 3.68 10.29 C3.68 11.78 3.69 13.27 3.69 14.76 C3.69 17.05 3.71 19.34 3.72 21.62 C3.73 23.07 3.73 24.52 3.73 25.96 C3.74 26.65 3.74 27.34 3.75 28.05 C3.73 32.9 3.73 32.9 1.5 35.12 C-2.04 34.59 -2.04 34.59 -3.5 33.12 C-3.6 30.76 -3.64 28.43 -3.63 26.06 C-3.63 25.36 -3.63 24.65 -3.64 23.92 C-3.64 22.43 -3.63 20.93 -3.63 19.43 C-3.63 17.13 -3.63 14.84 -3.64 12.54 C-3.64 11.09 -3.63 9.64 -3.63 8.19 C-3.63 7.5 -3.64 6.8 -3.64 6.09 C-3.61 0.18 -3.61 0.18 0 0 Z " fill="#417D44" transform="translate(450.5,128.875)" />
<path d="M0 0 C3.54 0.54 3.54 0.54 5 2 C5.1 4.36 5.14 6.7 5.13 9.06 C5.13 9.77 5.13 10.48 5.14 11.2 C5.14 12.7 5.13 14.2 5.13 15.69 C5.13 17.99 5.13 20.29 5.14 22.59 C5.14 24.04 5.13 25.49 5.13 26.94 C5.13 27.63 5.14 28.32 5.14 29.03 C5.11 33.89 5.11 33.89 4 35 C1.5 35.12 1.5 35.12 -1 35 C-2.91 33.09 -2.16 29.58 -2.17 26.97 C-2.17 26.27 -2.17 25.56 -2.18 24.84 C-2.18 23.35 -2.19 21.85 -2.19 20.36 C-2.19 18.08 -2.21 15.79 -2.22 13.5 C-2.23 12.05 -2.23 10.61 -2.23 9.16 C-2.24 8.47 -2.24 7.79 -2.25 7.08 C-2.23 2.23 -2.23 2.23 0 0 Z " fill="#417D44" transform="translate(354,61)" />
<path d="M0 0 C3.54 0.54 3.54 0.54 5 2 C5.1 4.36 5.14 6.7 5.13 9.06 C5.13 9.77 5.13 10.48 5.14 11.2 C5.14 12.7 5.13 14.2 5.13 15.69 C5.13 17.99 5.13 20.29 5.14 22.59 C5.14 24.04 5.13 25.49 5.13 26.94 C5.13 27.63 5.14 28.32 5.14 29.03 C5.11 33.89 5.11 33.89 4 35 C1.5 35.12 1.5 35.12 -1 35 C-2.91 33.09 -2.16 29.58 -2.17 26.97 C-2.17 26.27 -2.17 25.56 -2.18 24.84 C-2.18 23.35 -2.19 21.85 -2.19 20.36 C-2.19 18.08 -2.21 15.79 -2.22 13.5 C-2.23 12.05 -2.23 10.61 -2.23 9.16 C-2.24 8.47 -2.24 7.79 -2.25 7.08 C-2.23 2.23 -2.23 2.23 0 0 Z " fill="#417D44" transform="translate(288,61)" />
<path d="M0 0 C2.31 0.33 4.62 0.66 7 1 C7.02 5.54 7.04 10.08 7.05 14.62 C7.06 16.16 7.07 17.71 7.08 19.25 C7.09 21.47 7.09 23.69 7.1 25.9 C7.1 26.6 7.11 27.29 7.11 28.01 C7.11 29.67 7.06 31.34 7 33 C6.5 33.49 6.5 33.49 6 34 C4.02 34 2.04 34 0 34 C0 22.78 0 11.56 0 0 Z " fill="#417C44" transform="translate(257,129)" />
<path d="M0 0 C1.65 0 3.3 0 5 0 C7.83 2.83 7.26 4.73 7.27 8.69 C7.27 9.35 7.27 10 7.27 10.68 C7.27 12.07 7.27 13.47 7.26 14.86 C7.25 16.99 7.26 19.12 7.27 21.26 C7.27 22.61 7.27 23.96 7.27 25.31 C7.26 26.55 7.26 27.78 7.26 29.05 C7 32 7 32 5 34 C3.35 34 1.7 34 0 34 C0 22.78 0 11.56 0 0 Z " fill="#417C44" transform="translate(198,193)" />
<path d="M0 0 C2.92 1.07 4.78 1.78 7 4 C7.24 5.98 7.24 5.98 7.23 8.39 C7.23 9.27 7.23 10.14 7.22 11.04 C7.21 11.96 7.2 12.87 7.19 13.81 C7.19 14.72 7.19 15.62 7.19 16.55 C7.16 20.81 7.09 24.85 6 29 C1.75 25.09 -0.75 22.39 -1.18 16.53 C-1.31 11.54 -1.31 11.54 -1 9 C-0.34 8.34 0.32 7.68 1 7 C0.68 3.4 0.68 3.4 0 0 Z " fill="#447F47" transform="translate(377,355)" />
<path d="M0 0 C0 1.32 0 2.64 0 4 C-1.79 5.75 -1.79 5.75 -4.19 7.44 C-6.97 9.47 -9.54 11.4 -11.88 13.94 C-14 16 -14 16 -17 16 C-16.13 10.66 -14.12 6.41 -11 2 C-7.41 -0.3 -4.2 -0.2 0 0 Z " fill="#47814A" transform="translate(233,318)" />
<path d="M0 0 C-0.63 4.97 -2.07 9.21 -3.94 13.81 C-4.2 14.49 -4.47 15.17 -4.74 15.87 C-6.75 20.87 -6.75 20.87 -9 22 C-9.05 19.96 -9.09 17.92 -9.12 15.88 C-9.15 14.74 -9.17 13.6 -9.2 12.43 C-8.95 8.18 -8.17 4.59 -5.62 1.12 C-4 0 -4 0 0 0 Z " fill="#4A834D" transform="translate(287,390)" />
<path d="M0 0 C1.98 0 3.96 0 6 0 C7 1 7 1 7.13 3.69 C7.13 5.33 7.13 5.33 7.12 7 C7.13 8.09 7.13 9.19 7.13 10.31 C7 13 7 13 6 14 C4.02 14 2.04 14 0 14 C0 9.38 0 4.76 0 0 Z " fill="#47814A" transform="translate(474,149)" />
<path d="M0 0 C0.38 2.75 0.38 2.75 0 6 C-3.16 8.86 -5.11 9.93 -9.38 10.25 C-10.24 10.17 -11.11 10.09 -12 10 C-11.5 5.6 -9.98 3.25 -7 0 C-4.33 -1.33 -2.83 -0.67 0 0 Z " fill="#4B844E" transform="translate(239,304)" />
<path d="M0 0 C1.65 0 3.3 0 5 0 C6 1 6 1 6.13 3.69 C6.13 5.33 6.13 5.33 6.12 7 C6.13 8.09 6.13 9.19 6.13 10.31 C6 13 6 13 5 14 C3.35 14 1.7 14 0 14 C0 9.38 0 4.76 0 0 Z " fill="#407C43" transform="translate(434,62)" />
<path d="M0 0 C1.02 0.43 1.02 0.43 2.06 0.88 C0.86 4.49 -0.42 6.25 -3.29 8.71 C-9.28 11.34 -16.61 9.66 -22.94 8.88 C-22.94 8.54 -22.94 8.21 -22.94 7.88 C-22.08 7.8 -21.22 7.73 -20.34 7.65 C-13.45 6.86 -9.24 6.09 -4.37 1.07 C-2.94 -0.12 -2.94 -0.12 0 0 Z " fill="#F2F6F2" transform="translate(262.9375,318.125)" />
<path d="M0 0 C1.65 0 3.3 0 5 0 C6 1 6 1 6.1 3.72 C6.09 4.82 6.07 5.93 6.06 7.06 C6.05 8.17 6.04 9.27 6.04 10.41 C6.02 11.26 6.01 12.12 6 13 C4.02 13 2.04 13 0 13 C0 8.71 0 4.42 0 0 Z " fill="#4A834D" transform="translate(474,129)" />
<path d="M0 0 C1.65 0.02 1.65 0.02 3.34 0.04 C5 0.05 5 0.05 6.69 0.06 C7.54 0.07 8.4 0.09 9.28 0.1 C8.4 4.97 8.4 4.97 7.28 6.1 C5.26 6.17 3.24 6.18 1.21 6.16 C0.11 6.15 -0.99 6.14 -2.13 6.13 C-3.41 6.12 -3.41 6.12 -4.72 6.1 C-3.65 0.13 -3.65 0.13 0 0 Z " fill="#F5F8F5" transform="translate(257.72265625,46.90234375)" />
<path d="M0 0 C0.33 0 0.66 0 1 0 C1.34 1.73 1.67 3.46 2 5.19 C2.19 6.15 2.37 7.11 2.56 8.11 C2.97 10.79 3.08 13.29 3 16 C1.02 16 -0.96 16 -3 16 C-2.69 13.52 -2.38 11.04 -2.06 8.56 C-1.98 7.86 -1.89 7.15 -1.8 6.42 C-1.11 1.11 -1.11 1.11 0 0 Z " fill="#578C5A" transform="translate(369,139)" />
<path d="M0 0 C0.66 0 1.32 0 2 0 C2.34 1.75 2.67 3.5 3 5.25 C3.19 6.22 3.37 7.2 3.56 8.2 C4 11 4 11 4 15 C2.02 15 0.04 15 -2 15 C-1.04 4.44 -1.04 4.44 0 0 Z " fill="#548A57" transform="translate(287,140)" />
<path d="M0 0 C3.52 5.28 3.11 10.86 3 17 C1.35 17 -0.3 17 -2 17 C-1.86 15.1 -1.71 13.21 -1.56 11.31 C-1.48 10.26 -1.4 9.2 -1.32 8.11 C-1.04 5.35 -0.6 2.71 0 0 Z " fill="#578C59" transform="translate(259,70)" />
<path d="M0 0 C2.15 3.53 2.38 6.66 2.62 10.75 C2.7 11.92 2.77 13.09 2.85 14.3 C2.9 15.19 2.95 16.08 3 17 C1.35 17 -0.3 17 -2 17 C-1.86 14.92 -1.71 12.83 -1.56 10.75 C-1.48 9.59 -1.4 8.43 -1.32 7.23 C-1.07 4.69 -0.72 2.44 0 0 Z " fill="#578C59" transform="translate(201,70)" />
<path d="M0 0 C0.33 0 0.66 0 1 0 C3.3 11.52 3.3 11.52 3 17 C1.35 17 -0.3 17 -2 17 C-1.86 14.92 -1.71 12.83 -1.56 10.75 C-1.48 9.59 -1.4 8.43 -1.32 7.23 C-1.07 4.69 -0.72 2.44 0 0 Z " fill="#518854" transform="translate(353,201)" />
<path d="M0 0 C2.15 3.53 2.38 6.66 2.62 10.75 C2.7 11.92 2.77 13.09 2.85 14.3 C2.9 15.19 2.95 16.08 3 17 C1.35 17 -0.3 17 -2 17 C-1.86 15.1 -1.71 13.21 -1.56 11.31 C-1.48 10.26 -1.4 9.2 -1.32 8.11 C-1.04 5.35 -0.6 2.71 0 0 Z " fill="#518854" transform="translate(503,70)" />
<path d="M0 0 C2.15 3.53 2.38 6.66 2.62 10.75 C2.7 11.92 2.77 13.09 2.85 14.3 C2.9 15.19 2.95 16.08 3 17 C1.35 17 -0.3 17 -2 17 C-1.86 15.1 -1.71 13.21 -1.56 11.31 C-1.48 10.26 -1.4 9.2 -1.32 8.11 C-1.04 5.35 -0.6 2.71 0 0 Z " fill="#528854" transform="translate(465,70)" />
<path d="M0 0 C2.27 3.65 2.39 7.01 2.62 11.25 C2.7 12.51 2.77 13.78 2.85 15.08 C2.9 16.04 2.95 17.01 3 18 C1.35 18 -0.3 18 -2 18 C-1.04 5.33 -1.04 5.33 0 0 Z " fill="#528854" transform="translate(504,137)" />
<path d="M0 0 C2.44 0.19 2.44 0.19 5 1 C6.31 3.06 6.31 3.06 7 5 C6.67 5.33 6.34 5.66 6 6 C3.66 5.71 1.33 5.38 -1 5 C-1 1 -1 1 0 0 Z " fill="#4C854F" transform="translate(362,383)" />
<path d="M0 0 C2.34 0.29 4.67 0.62 7 1 C7.33 2.32 7.66 3.64 8 5 C5.36 5 2.72 5 0 5 C-0.56 3.06 -0.56 3.06 -1 1 C-0.67 0.67 -0.34 0.34 0 0 Z " fill="#4A834D" transform="translate(313,375)" />
<path d="M0 0 C2.38 0.19 2.38 0.19 5 1 C6.31 3.56 6.31 3.56 7 6 C4.62 6.12 4.62 6.12 2 6 C1.34 5.34 0.68 4.68 0 4 C0 2.68 0 1.36 0 0 Z " fill="#558B57" transform="translate(357,374)" />
</g></svg>