<?xml version='1.0' encoding='UTF-8'?>
<svg xmlns="http://www.w3.org/2000/svg" version="1.1" viewBox="0 0 610 610" width="512" height="512">
<g transform="translate(21.0, 21.0)"><path d="M0 0 C187.44 0 374.88 0 568 0 C568 187.44 568 374.88 568 568 C380.56 568 193.12 568 0 568 C0 380.56 0 193.12 0 0 Z " fill="#D4A03D" transform="translate(0,0)" />
<path d="M0 0 C1.06 -0.01 2.12 -0.01 3.21 -0.02 C4.96 -0.01 4.96 -0.01 6.76 -0 C8 -0.01 9.23 -0.01 10.51 -0.01 C13.95 -0.02 17.4 -0.02 20.85 -0.01 C24.56 -0.01 28.27 -0.01 31.98 -0.02 C39.26 -0.03 46.54 -0.02 53.81 -0.02 C59.73 -0.01 65.64 -0.01 71.55 -0.02 C72.81 -0.02 72.81 -0.02 74.1 -0.02 C75.8 -0.02 77.51 -0.02 79.22 -0.02 C95.23 -0.02 111.25 -0.02 127.26 -0.01 C141.02 0 154.78 0 168.53 -0.01 C184.49 -0.02 200.45 -0.02 216.4 -0.02 C218.1 -0.02 219.8 -0.02 221.5 -0.02 C222.76 -0.02 222.76 -0.02 224.04 -0.02 C229.95 -0.01 235.86 -0.02 241.76 -0.02 C248.96 -0.03 256.15 -0.03 263.35 -0.01 C267.02 -0.01 270.7 -0.01 274.37 -0.01 C278.35 -0.02 282.32 -0.01 286.3 -0 C288.05 -0.01 288.05 -0.01 289.85 -0.02 C291.44 -0.01 291.44 -0.01 293.05 0 C293.97 0 294.89 0 295.84 0 C298.03 0.25 298.03 0.25 300.03 2.25 C298.77 24.84 287.08 48.88 273.03 66.25 C272.36 67.07 272.36 67.07 271.69 67.91 C253.06 90.79 229 107.62 201.03 117.25 C200.37 117.25 199.71 117.25 199.03 117.25 C199.05 118.02 199.07 118.79 199.1 119.59 C199.12 120.59 199.13 121.59 199.15 122.63 C199.18 123.62 199.2 124.62 199.22 125.65 C199.03 128.25 199.03 128.25 197.03 130.25 C193.9 130.45 190.86 130.51 187.73 130.49 C186.28 130.5 186.28 130.5 184.81 130.5 C181.61 130.5 178.41 130.49 175.21 130.48 C173 130.48 170.78 130.48 168.57 130.48 C163.92 130.48 159.28 130.47 154.63 130.46 C148.67 130.44 142.7 130.44 136.73 130.44 C132.16 130.44 127.58 130.43 123.01 130.42 C120.81 130.42 118.61 130.42 116.41 130.42 C113.34 130.42 110.27 130.41 107.2 130.4 C106.28 130.4 105.36 130.4 104.41 130.4 C98.14 130.37 98.14 130.37 97.03 129.25 C96.96 127.4 96.94 125.54 96.96 123.69 C96.97 122.68 96.98 121.67 96.99 120.62 C97 119.84 97.02 119.06 97.03 118.25 C95.74 118 94.45 117.76 93.13 117.5 C87.94 116.34 83.29 114.46 78.46 112.25 C77.6 111.86 76.73 111.46 75.84 111.05 C38.65 93.66 11.54 63.46 -2.97 25.25 C-5.53 17.83 -7.9 10.16 -6.97 2.25 C-4.43 -0.3 -3.53 0 0 0 Z " fill="#FEFEFE" transform="translate(125.97257232666016,365.74831771850586)" />
<path d="M0 0 C3.99 3.23 5.64 7.13 7 12 C7.38 16.24 7.37 20.47 7.37 24.72 C7.37 26.73 7.41 28.74 7.45 30.75 C7.48 41.61 5.99 49.69 -1.81 57.62 C-3.13 59 -3.13 59 -4.48 60.41 C-5.31 61.26 -6.14 62.12 -7 63 C-8.78 64.99 -10.52 67.01 -12.27 69.03 C-13.53 70.47 -14.83 71.88 -16.14 73.28 C-23.32 81.02 -23.9 84.98 -25 96 C-14.44 96 -3.88 96 7 96 C7 101.28 7 106.56 7 112 C-9.83 112 -26.66 112 -44 112 C-44.06 107.75 -44.12 103.5 -44.19 99.12 C-44.21 97.81 -44.24 96.49 -44.27 95.13 C-44.37 80.37 -39.98 71.5 -29.88 60.74 C-28.57 59.44 -27.25 58.14 -25.91 56.86 C-23.96 54.96 -22.09 53.02 -20.25 51 C-19.72 50.42 -19.19 49.84 -18.64 49.25 C-13.22 41.81 -12.42 35.78 -12.62 26.62 C-12.63 24.99 -12.63 24.99 -12.63 23.32 C-12.31 17.6 -12.31 17.6 -15 13 C-18.46 12.5 -18.46 12.5 -22 13 C-24.83 15.44 -25.23 17.76 -25.51 21.33 C-25.58 22.97 -25.64 24.61 -25.69 26.25 C-25.72 27.09 -25.76 27.93 -25.79 28.8 C-25.87 30.86 -25.94 32.93 -26 35 C-31.61 35 -37.22 35 -43 35 C-43.08 31.5 -43.14 28 -43.19 24.5 C-43.21 23.52 -43.24 22.54 -43.26 21.52 C-43.34 14.39 -42.86 8.5 -38.17 2.76 C-37.51 2.22 -36.86 1.68 -36.19 1.12 C-35.54 0.57 -34.9 0.02 -34.23 -0.55 C-24.49 -6.87 -9.83 -5.54 0 0 Z " fill="#FEFDFB" transform="translate(96,51)" />
<path d="M0 0 C3.25 0.09 4.76 0.41 7.75 1.88 C9.95 4.72 10.4 6.68 10.18 10.27 C9.64 12.58 8.85 13.93 7.5 15.88 C-0.14 27.09 -1.92 41.15 -0.31 54.38 C1.18 61.52 5.03 66.44 9.66 71.93 C20.58 85.1 24.51 97.4 23.69 114.38 C23.36 116.03 23.03 117.67 22.69 119.38 C15.76 119.38 8.83 119.38 1.69 119.38 C2.35 117.06 3.01 114.75 3.69 112.38 C4.8 103.45 3.09 95.22 -2.11 87.81 C-4.14 85.3 -6.22 82.84 -8.31 80.38 C-18.87 67.08 -22.42 53.13 -21.31 36.38 C-19.82 25.93 -13.24 0.22 0 0 Z " fill="#FEFDFB" transform="translate(272.3125,234.625)" />
<path d="M0 0 C3.12 2.06 3.12 2.06 5 5 C4.72 10.31 3.2 13.96 0.62 18.56 C-5.26 29.69 -8.22 42.78 -5.23 55.21 C-2.67 62.84 1.27 68.12 6.56 74.09 C10.13 78.35 12.71 82.95 15 88 C15.27 88.58 15.54 89.15 15.82 89.74 C18.2 95.31 18.39 100.31 18.25 106.31 C18.24 107.21 18.24 108.1 18.23 109.02 C18.16 115.53 18.16 115.53 17 119 C10.4 119 3.8 119 -3 119 C-2.67 117.35 -2.34 115.7 -2 114 C-1.04 98.72 -4.47 91.12 -13.8 79.52 C-25.48 64.75 -27.5 50.57 -25.61 32.2 C-23.62 21.13 -18.55 9.46 -11 1 C-7.51 -0.74 -3.8 -0.57 0 0 Z " fill="#FEFDFC" transform="translate(218,235)" />
<path d="M0 0 C3.12 2.06 3.12 2.06 5 5 C5.37 11.04 2.23 15.69 -0.5 20.93 C-6.14 32.48 -8.32 46.19 -4.12 58.5 C-1.55 64.65 2.17 69.13 6.56 74.09 C10.13 78.35 12.71 82.95 15 88 C15.27 88.58 15.54 89.15 15.82 89.74 C18.2 95.31 18.39 100.31 18.25 106.31 C18.24 107.21 18.24 108.1 18.23 109.02 C18.16 115.53 18.16 115.53 17 119 C10.4 119 3.8 119 -3 119 C-2.67 117.35 -2.34 115.7 -2 114 C-1.04 98.72 -4.48 91.12 -13.8 79.51 C-19.15 72.78 -22.39 66.18 -25 58 C-25.5 56.52 -25.5 56.52 -26 55 C-26.98 39.09 -25.04 25.62 -18.06 11.25 C-17.74 10.58 -17.42 9.91 -17.08 9.23 C-13.14 1.63 -8.49 -1.75 0 0 Z " fill="#FEFDFC" transform="translate(337,235)" />
<path d="M0 0 C0.99 0 1.98 0 3 0 C3 187.44 3 374.88 3 568 C2.01 568 1.02 568 0 568 C0 380.56 0 193.12 0 0 Z " fill="#000000" transform="translate(565,0)" />
<path d="M0 0 C3.3 0 6.6 0 10 0 C10.28 1.35 10.55 2.7 10.84 4.09 C11.21 5.85 11.57 7.61 11.94 9.38 C12.12 10.26 12.3 11.15 12.49 12.07 C12.67 12.92 12.84 13.77 13.03 14.65 C13.19 15.43 13.35 16.22 13.52 17.03 C13.94 19.06 13.94 19.06 15 21 C15.13 20.15 15.13 20.15 15.26 19.29 C15.65 16.73 16.04 14.18 16.44 11.62 C16.57 10.74 16.71 9.85 16.85 8.93 C16.98 8.08 17.11 7.23 17.25 6.35 C17.37 5.57 17.49 4.78 17.61 3.97 C18 2 18 2 19 0 C22.3 0 25.6 0 29 0 C29 15.51 29 31.02 29 47 C26.69 47 24.38 47 22 47 C21.5 35.62 21.5 35.62 21 24 C19.68 31.26 18.36 38.52 17 46 C15.35 45.67 13.7 45.34 12 45 C10.68 38.07 9.36 31.14 8 24 C7.67 31.59 7.34 39.18 7 47 C4.69 47 2.38 47 0 47 C0 31.49 0 15.98 0 0 Z " fill="#FDFBF6" transform="translate(209,38)" />
<path d="M0 0 C3.86 1.31 5.5 2.19 7.64 5.68 C9.15 9.36 9.39 11.98 9.4 15.94 C9.4 17.9 9.4 17.9 9.41 19.9 C9.4 20.57 9.4 21.25 9.39 21.94 C9.38 23.99 9.39 26.05 9.41 28.1 C9.41 29.41 9.4 30.72 9.4 32.06 C9.4 33.25 9.39 34.44 9.39 35.66 C8.86 40.22 7.4 43.62 4.12 46.85 C0.27 48.94 -3.74 48.52 -8 48 C-11.69 46.39 -12.75 45.37 -15 42 C-15.23 39.39 -15.35 36.88 -15.37 34.26 C-15.38 33.5 -15.39 32.74 -15.4 31.96 C-15.41 30.36 -15.42 28.75 -15.43 27.15 C-15.44 24.71 -15.49 22.27 -15.54 19.82 C-15.55 18.26 -15.55 16.7 -15.56 15.14 C-15.58 14.41 -15.6 13.69 -15.62 12.94 C-15.57 7.19 -13.94 4.88 -10 1 C-6.8 -0.6 -3.48 -0.35 0 0 Z " fill="#FCF9F3" transform="translate(196,37)" />
<path d="M0 0 C3.07 1.71 5.4 3.81 7 7 C7.28 11.78 7.31 16.56 7.35 21.35 C7.37 22.94 7.39 24.54 7.43 26.13 C7.49 28.44 7.51 30.74 7.52 33.05 C7.55 33.75 7.57 34.46 7.59 35.19 C7.58 39.02 7 41.47 4.65 44.43 C0.74 48.21 -2.58 48.35 -7.78 48.28 C-11.17 47.85 -12.76 46.51 -15 44 C-17.85 38.3 -17.37 32.43 -17.37 26.19 C-17.37 24.14 -17.41 22.09 -17.45 20.04 C-17.49 7.4 -17.49 7.4 -13 2 C-9.11 -0.77 -4.6 -0.8 0 0 Z " fill="#FCF9F3" transform="translate(366,37)" />
<path d="M0 0 C17 0 17 0 22 4 C23.46 6.92 23.25 9.56 23.31 12.81 C23.35 14.04 23.39 15.26 23.43 16.52 C22.93 20.56 21.89 22.19 19 25 C18.34 25 17.68 25 17 25 C17.32 25.84 17.32 25.84 17.64 26.7 C18.6 29.23 19.55 31.77 20.5 34.31 C20.83 35.19 21.17 36.07 21.51 36.98 C21.83 37.83 22.14 38.68 22.47 39.55 C22.76 40.33 23.06 41.11 23.36 41.92 C24 44 24 44 24 47 C21.03 47 18.06 47 15 47 C13.35 41.72 11.7 36.44 10 31 C9.67 36.28 9.34 41.56 9 47 C6.03 47 3.06 47 0 47 C0 31.49 0 15.98 0 0 Z " fill="#FCF8F2" transform="translate(322,38)" />
<path d="M0 0 C16 0 16 0 22 5 C22.54 8.01 22.72 10.1 22.56 13.06 C22.56 13.77 22.56 14.48 22.56 15.21 C22.48 18.4 22.17 20.69 20.59 23.5 C19 25 19 25 17 25 C17.18 25.52 17.36 26.05 17.55 26.59 C18.37 28.97 19.19 31.36 20 33.75 C20.43 34.99 20.43 34.99 20.87 36.25 C21.14 37.05 21.41 37.85 21.69 38.67 C21.94 39.41 22.19 40.14 22.45 40.89 C23 43 23 43 23 47 C20.36 47 17.72 47 15 47 C14.37 45.65 13.75 44.29 13.12 42.94 C12.78 42.18 12.43 41.43 12.07 40.65 C10.81 37.52 9.93 34.25 9 31 C8.67 36.28 8.34 41.56 8 47 C5.36 47 2.72 47 0 47 C0 31.49 0 15.98 0 0 Z " fill="#FDFCF8" transform="translate(416,102)" />
<path d="M0 0 C16 0 16 0 22 5 C22.54 8.01 22.72 10.1 22.56 13.06 C22.56 13.77 22.56 14.48 22.56 15.21 C22.48 18.4 22.17 20.69 20.59 23.5 C19 25 19 25 17 25 C17.18 25.52 17.36 26.05 17.55 26.59 C18.37 28.97 19.19 31.36 20 33.75 C20.43 34.99 20.43 34.99 20.87 36.25 C21.14 37.05 21.41 37.85 21.69 38.67 C21.94 39.41 22.19 40.14 22.45 40.89 C23 43 23 43 23 47 C20.36 47 17.72 47 15 47 C14.18 45.08 13.37 43.17 12.56 41.25 C12.11 40.18 11.66 39.12 11.19 38.02 C10 35 10 35 9 31 C8.67 36.28 8.34 41.56 8 47 C5.36 47 2.72 47 0 47 C0 31.49 0 15.98 0 0 Z " fill="#FEFDFB" transform="translate(247,102)" />
<path d="M0 0 C2.97 0 5.94 0 9 0 C10.98 6.27 12.96 12.54 15 19 C15.33 12.73 15.66 6.46 16 0 C18.31 0 20.62 0 23 0 C23 15.51 23 31.02 23 47 C20.69 47 18.38 47 16 47 C15.83 46.48 15.66 45.96 15.48 45.42 C13.73 40.09 11.85 34.83 9.87 29.58 C9 27 9 27 8 22 C7.67 30.25 7.34 38.5 7 47 C4.69 47 2.38 47 0 47 C0 31.49 0 15.98 0 0 Z " fill="#FDFBF7" transform="translate(287,166)" />
<path d="M0 0 C2.97 0 5.94 0 9 0 C11.57 7.94 13.21 15.84 14.62 24.06 C14.84 25.28 15.06 26.49 15.28 27.74 C16.41 34.15 17.37 40.52 18 47 C15.03 47 12.06 47 9 47 C9 44.36 9 41.72 9 39 C6.03 39 3.06 39 0 39 C-0.33 41.64 -0.66 44.28 -1 47 C-3.31 47 -5.62 47 -8 47 C-7.38 37.22 -5.71 27.64 -4 18 C-3.86 17.23 -3.73 16.45 -3.58 15.66 C-3.19 13.44 -2.78 11.22 -2.38 9 C-2.25 8.32 -2.13 7.65 -2 6.95 C-1.12 2.24 -1.12 2.24 0 0 Z " fill="#FDFAF6" transform="translate(197,102)" />
<path d="M0 0 C1.65 -0.03 3.29 -0.05 4.94 -0.06 C5.85 -0.07 6.77 -0.09 7.71 -0.1 C10 0 10 0 11 1 C11.48 3.2 11.91 5.41 12.31 7.62 C12.5 8.66 12.5 8.66 12.7 9.72 C13.14 12.15 13.57 14.57 14 17 C14.17 17.96 14.34 18.91 14.51 19.9 C15.05 22.95 15.59 26.01 16.12 29.06 C16.3 30.04 16.47 31.01 16.64 32.02 C17.51 37 18.32 41.99 19 47 C16.36 47 13.72 47 11 47 C9 40.25 9 40.25 9 38 C6.36 38 3.72 38 1 38 C0.67 40.97 0.34 43.94 0 47 C-2.64 47 -5.28 47 -8 47 C-7 37.48 -5.52 28.19 -3.47 18.83 C-2.1 12.58 -0.96 6.32 0 0 Z " fill="#FDFBF7" transform="translate(346,166)" />
<path d="M0 0 C3.3 0 6.6 0 10 0 C10.24 1.27 10.48 2.54 10.73 3.86 C10.89 4.7 11.05 5.54 11.22 6.4 C11.58 8.28 11.93 10.15 12.29 12.02 C13.23 16.98 14.18 21.94 15.16 26.89 C15.43 28.3 15.43 28.3 15.71 29.74 C16.06 31.55 16.42 33.35 16.78 35.16 C17.56 39.16 18.24 42.9 18 47 C15.36 47 12.72 47 10 47 C8.65 44.29 8.93 41.99 9 39 C6.03 39 3.06 39 0 39 C0.02 39.95 0.04 40.9 0.06 41.88 C0 45 0 45 -1 47 C-3.31 47 -5.62 47 -8 47 C-7.34 31.13 -3.43 15.45 0 0 Z " fill="#FDFBF7" transform="translate(450,102)" />
<path d="M0 0 C3.91 0.03 5.45 0.13 8.88 2.19 C11.74 5.43 11.87 7.2 11.81 11.44 C11.8 12.35 11.79 13.26 11.79 14.2 C11.77 14.89 11.76 15.59 11.75 16.31 C9.11 16.31 6.47 16.31 3.75 16.31 C3.42 13.67 3.09 11.03 2.75 8.31 C1.1 8.31 -0.55 8.31 -2.25 8.31 C-2.25 18.54 -2.25 28.77 -2.25 39.31 C-0.93 39.64 0.39 39.97 1.75 40.31 C3.49 38.57 3.12 36.12 3.31 33.75 C3.4 32.74 3.48 31.73 3.57 30.68 C3.63 29.9 3.69 29.12 3.75 28.31 C2.43 28.31 1.11 28.31 -0.25 28.31 C-0.25 26.33 -0.25 24.35 -0.25 22.31 C3.71 22.31 7.67 22.31 11.75 22.31 C11.75 30.56 11.75 38.81 11.75 47.31 C9.77 47.31 7.79 47.31 5.75 47.31 C5.42 46.65 5.09 45.99 4.75 45.31 C4.09 45.97 3.43 46.63 2.75 47.31 C-0.29 47.82 -3.21 47.76 -6.25 47.31 C-9.28 45.11 -10.07 43.86 -11.25 40.31 C-11.53 35.49 -11.56 30.67 -11.6 25.83 C-11.62 24.24 -11.64 22.65 -11.68 21.05 C-11.74 18.74 -11.76 16.44 -11.77 14.13 C-11.8 13.42 -11.82 12.72 -11.84 11.99 C-11.83 8.01 -11.39 6.47 -8.78 3.39 C-7.94 2.7 -7.11 2.02 -6.25 1.31 C-4.53 -0.4 -2.34 0.06 0 0 Z " fill="#FDFBF8" transform="translate(230.25,101.6875)" />
<path d="M0 0 C2.64 0 5.28 0 8 0 C8.33 13.2 8.66 26.4 9 40 C11.47 39.51 11.47 39.51 14 39 C14.33 26.13 14.66 13.26 15 0 C17.64 0 20.28 0 23 0 C23.07 5.44 23.13 10.89 23.16 16.33 C23.18 18.18 23.2 20.03 23.23 21.88 C23.26 24.55 23.28 27.22 23.29 29.88 C23.31 30.7 23.32 31.53 23.34 32.37 C23.34 37.33 22.74 40.69 20 45 C15.9 47.94 10.83 47.79 6 47 C3.18 44.81 1.58 43.17 0 40 C-0.09 37.01 -0.12 34.04 -0.1 31.05 C-0.1 30.17 -0.09 29.28 -0.09 28.37 C-0.09 25.54 -0.08 22.71 -0.06 19.88 C-0.06 17.96 -0.05 16.04 -0.05 14.12 C-0.04 9.41 -0.02 4.71 0 0 Z " fill="#FDFAF6" transform="translate(185,166)" />
<path d="M0 0 C2.97 0 5.94 0 9 0 C9.33 12.87 9.66 25.74 10 39 C11.32 39.33 12.64 39.66 14 40 C16.11 37.89 15.26 33.29 15.32 30.37 C15.34 29.51 15.36 28.64 15.38 27.75 C15.44 24.98 15.5 22.21 15.56 19.44 C15.61 17.56 15.65 15.69 15.69 13.81 C15.8 9.21 15.9 4.6 16 0 C18.31 0 20.62 0 23 0 C23.12 5.89 23.21 11.78 23.27 17.67 C23.3 19.67 23.33 21.68 23.38 23.68 C23.44 26.56 23.47 29.44 23.49 32.32 C23.51 33.22 23.54 34.11 23.57 35.03 C23.57 39.52 23.46 41.39 20.65 45.06 C16.66 47.98 13.62 47.75 8.82 47.57 C5.8 46.96 4.76 46.45 2.81 44.12 C-0.02 39.24 -0.13 35.84 -0.1 30.27 C-0.1 29.41 -0.09 28.55 -0.09 27.66 C-0.09 24.9 -0.08 22.14 -0.06 19.38 C-0.06 17.51 -0.05 15.64 -0.05 13.77 C-0.04 9.18 -0.02 4.59 0 0 Z " fill="#FCFAF5" transform="translate(314,102)" />
<path d="M0 0 C2.64 0 5.28 0 8 0 C8.33 12.87 8.66 25.74 9 39 C10.65 39.33 12.3 39.66 14 40 C14.33 26.8 14.66 13.6 15 0 C17.64 0 20.28 0 23 0 C23.1 5.59 23.17 11.17 23.22 16.76 C23.24 18.66 23.27 20.56 23.3 22.46 C23.35 25.19 23.37 27.93 23.39 30.66 C23.41 31.51 23.43 32.35 23.45 33.22 C23.46 38.77 22.62 41.73 19 46 C15.06 47.97 10.29 47.46 6 47 C2.38 44.9 1.32 43.95 0 40 C-0.09 38.66 -0.12 37.33 -0.11 35.99 C-0.11 35.19 -0.11 34.39 -0.11 33.56 C-0.11 32.7 -0.1 31.84 -0.1 30.96 C-0.1 30.07 -0.09 29.19 -0.09 28.28 C-0.09 25.46 -0.08 22.63 -0.06 19.81 C-0.06 17.9 -0.05 15.99 -0.05 14.07 C-0.04 9.38 -0.02 4.69 0 0 Z " fill="#FDFBF8" transform="translate(388,102)" />
<path d="M0 0 C1.45 3.76 1.17 7.45 0.94 11.44 C-1.7 11.44 -4.34 11.44 -7.06 11.44 C-7.39 9.13 -7.72 6.82 -8.06 4.44 C-9.38 4.44 -10.7 4.44 -12.06 4.44 C-12.54 8.9 -12.57 10.8 -9.73 14.39 C-8.73 15.32 -7.72 16.23 -6.69 17.12 C0.62 23.74 0.62 23.74 1.27 29.28 C1.38 37.69 1.38 37.69 -0.94 41.62 C-4.88 44.99 -8.29 44.91 -13.35 44.83 C-16.06 44.44 -16.06 44.44 -19.25 42.12 C-22.18 37.75 -21.47 32.47 -21.06 27.44 C-18.75 27.44 -16.44 27.44 -14.06 27.44 C-13.73 30.41 -13.4 33.38 -13.06 36.44 C-11.08 36.77 -9.1 37.1 -7.06 37.44 C-6.8 32.15 -7.06 29.64 -10.51 25.5 C-12.44 23.54 -14.46 21.67 -16.5 19.82 C-19.32 17.2 -20.91 15.56 -21.43 11.7 C-21.61 3.24 -21.61 3.24 -18.88 -0.75 C-12.97 -4.55 -5.73 -4.34 0 0 Z " fill="#FDFBF7" transform="translate(179.0625,168.5625)" />
<path d="M0 0 C4.45 2.38 4.45 2.38 6 5 C6.49 8.39 6.36 11.6 6 15 C3.69 15 1.38 15 -1 15 C-1.33 12.69 -1.66 10.38 -2 8 C-3.65 8 -5.3 8 -7 8 C-7.36 11.7 -7.37 13.47 -5.21 16.56 C-4.02 17.77 -4.02 17.77 -2.81 19 C-2 19.87 -1.18 20.74 -0.34 21.63 C0.99 22.97 2.33 24.3 3.71 25.59 C6.83 28.7 7.38 31.26 7.56 35.5 C7.33 40.55 6.42 43.29 3 47 C-1.34 48.45 -5.47 48.66 -10 48 C-12.82 45.81 -14.42 44.17 -16 41 C-16.07 39.29 -16.08 37.58 -16.06 35.88 C-16.05 34.96 -16.04 34.05 -16.04 33.12 C-16.02 32.42 -16.01 31.72 -16 31 C-13.36 31 -10.72 31 -8 31 C-7.67 33.97 -7.34 36.94 -7 40 C-5.68 40.33 -4.36 40.66 -3 41 C-1.7 39.88 -1.7 39.88 -1.38 37.06 C-1.4 31.9 -5.24 28.91 -8.64 25.43 C-13.21 20.73 -15.56 18.21 -15.5 11.44 C-15.51 10.32 -15.52 9.21 -15.53 8.06 C-14.89 4.39 -13.91 3.24 -11 1 C-7.25 -0.25 -3.89 -0.61 0 0 Z " fill="#FDFBF8" transform="translate(228,165)" />
<path d="M0 0 C2.93 1.8 4.47 2.94 6 6 C6.07 7.87 6.08 9.75 6.06 11.62 C6.05 12.63 6.04 13.63 6.04 14.66 C6.02 15.43 6.01 16.21 6 17 C3.36 17 0.72 17 -2 17 C-2 13.7 -2 10.4 -2 7 C-3.65 7 -5.3 7 -7 7 C-8.34 8.11 -8.34 8.11 -8.11 10.96 C-8.11 12.25 -8.1 13.55 -8.1 14.88 C-8.1 15.91 -8.1 15.91 -8.09 16.96 C-8.09 19.16 -8.08 21.36 -8.06 23.56 C-8.06 25.05 -8.05 26.54 -8.05 28.03 C-8.04 31.69 -8.02 35.34 -8 39 C-6.35 39.33 -4.7 39.66 -3 40 C-2.67 36.04 -2.34 32.08 -2 28 C0.64 28 3.28 28 6 28 C6.08 29.9 6.14 31.79 6.19 33.69 C6.24 35.27 6.24 35.27 6.29 36.89 C5.96 40.42 5.12 42.18 3 45 C-1.45 47.97 -5.79 47.76 -11 47 C-14.41 44.47 -15.67 43 -17 39 C-17.23 34.46 -17.23 29.92 -17.24 25.38 C-17.25 23.14 -17.28 20.9 -17.31 18.67 C-17.32 17.24 -17.32 15.81 -17.33 14.38 C-17.34 13.09 -17.35 11.79 -17.36 10.46 C-16.98 6.78 -16.2 4.93 -14 2 C-9.79 -0.89 -4.91 -0.67 0 0 Z " fill="#FDFCF9" transform="translate(304,102)" />
<path d="M0 0 C2.97 0 5.94 0 9 0 C9.12 0.71 9.23 1.41 9.35 2.14 C9.88 5.34 10.41 8.55 10.94 11.75 C11.12 12.86 11.3 13.97 11.49 15.12 C11.67 16.19 11.84 17.26 12.03 18.36 C12.19 19.34 12.35 20.33 12.52 21.34 C12.93 23.6 13.41 25.79 14 28 C14.12 27.26 14.23 26.52 14.35 25.75 C14.88 22.4 15.41 19.04 15.94 15.69 C16.12 14.52 16.3 13.35 16.49 12.15 C16.67 11.03 16.84 9.91 17.03 8.76 C17.19 7.73 17.35 6.7 17.52 5.64 C18 3 18 3 19 0 C21.31 0 23.62 0 26 0 C26.36 6.63 25 12.72 23.62 19.19 C22.07 26.62 20.61 34.03 19.44 41.53 C19 44 19 44 18 47 C15.03 47 12.06 47 9 47 C6.98 39.56 5.42 32.12 4.13 24.52 C3.07 18.31 1.84 12.15 0.55 5.98 C0 3 0 3 0 0 Z " fill="#FDFBF7" transform="translate(367,166)" />
<path d="M0 0 C6.27 0 12.54 0 19 0 C19 2.31 19 4.62 19 7 C15.7 7 12.4 7 9 7 C9 10.96 9 14.92 9 19 C11.31 19 13.62 19 16 19 C16 21.31 16 23.62 16 26 C13.69 26 11.38 26 9 26 C9 30.62 9 35.24 9 40 C12.3 40 15.6 40 19 40 C19 42.31 19 44.62 19 47 C12.73 47 6.46 47 0 47 C0 31.49 0 15.98 0 0 Z " fill="#FCF9F2" transform="translate(397,166)" />
<path d="M0 0 C6.27 0 12.54 0 19 0 C19 2.31 19 4.62 19 7 C15.37 7 11.74 7 8 7 C8 11.29 8 15.58 8 20 C10.64 20 13.28 20 16 20 C16 21.98 16 23.96 16 26 C13.36 26 10.72 26 8 26 C8 30.95 8 35.9 8 41 C11.63 41 15.26 41 19 41 C19 42.98 19 44.96 19 47 C12.73 47 6.46 47 0 47 C0 31.49 0 15.98 0 0 Z " fill="#FDFCF9" transform="translate(158,102)" />
<path d="M0 0 C6.27 0 12.54 0 19 0 C19 1.98 19 3.96 19 6 C15.37 6 11.74 6 8 6 C8 10.62 8 15.24 8 20 C10.64 20 13.28 20 16 20 C16 21.98 16 23.96 16 26 C13.36 26 10.72 26 8 26 C8 30.62 8 35.24 8 40 C11.63 40 15.26 40 19 40 C19 42.31 19 44.62 19 47 C12.73 47 6.46 47 0 47 C0 31.49 0 15.98 0 0 Z " fill="#FEFDFB" transform="translate(299,38)" />
<path d="M0 0 C6.27 0 12.54 0 19 0 C19 1.98 19 3.96 19 6 C15.37 6 11.74 6 8 6 C8 10.62 8 15.24 8 20 C10.64 20 13.28 20 16 20 C16 21.98 16 23.96 16 26 C13.36 26 10.72 26 8 26 C8 30.62 8 35.24 8 40 C11.63 40 15.26 40 19 40 C19 42.31 19 44.62 19 47 C12.73 47 6.46 47 0 47 C0 31.49 0 15.98 0 0 Z " fill="#FDFBF7" transform="translate(243,38)" />
<path d="M0 0 C6.27 0 12.54 0 19 0 C19 1.98 19 3.96 19 6 C15.37 6 11.74 6 8 6 C8 10.62 8 15.24 8 20 C10.31 20 12.62 20 15 20 C15 21.98 15 23.96 15 26 C12.69 26 10.38 26 8 26 C8 30.62 8 35.24 8 40 C11.63 40 15.26 40 19 40 C19 42.31 19 44.62 19 47 C12.73 47 6.46 47 0 47 C0 31.49 0 15.98 0 0 Z " fill="#FDFCFA" transform="translate(264,166)" />
<path d="M0 0 C6.6 0 13.2 0 20 0 C20 6.07 19.73 8.55 17.63 13.89 C17.39 14.51 17.15 15.14 16.9 15.78 C16.13 17.75 15.35 19.72 14.56 21.69 C13.79 23.67 13.01 25.65 12.24 27.63 C11.54 29.42 10.83 31.21 10.12 32.99 C8.89 36.12 8.89 36.12 8 40 C11.63 40 15.26 40 19 40 C19 42.31 19 44.62 19 47 C12.4 47 5.8 47 -1 47 C-1 39.09 -0.75 34.96 2.19 28.19 C2.83 26.63 3.47 25.08 4.11 23.52 C4.59 22.38 4.59 22.38 5.08 21.22 C6.43 17.96 7.68 14.67 8.94 11.38 C9.34 10.33 9.74 9.29 10.15 8.21 C10.43 7.48 10.71 6.75 11 6 C7.37 6 3.74 6 0 6 C0 4.02 0 2.04 0 0 Z " fill="#FDFAF6" transform="translate(275,38)" />
<path d="M0 0 C6.93 0 13.86 0 21 0 C21 2.31 21 4.62 21 7 C19.02 7 17.04 7 15 7 C15 20.2 15 33.4 15 47 C12.03 47 9.06 47 6 47 C6 33.8 6 20.6 6 7 C4.02 7 2.04 7 0 7 C0 4.69 0 2.38 0 0 Z " fill="#FBF7F0" transform="translate(314,166)" />
<path d="M0 0 C6.93 0 13.86 0 21 0 C21 2.31 21 4.62 21 7 C19.02 7 17.04 7 15 7 C15 20.2 15 33.4 15 47 C12.03 47 9.06 47 6 47 C6 33.8 6 20.6 6 7 C4.02 7 2.04 7 0 7 C0 4.69 0 2.38 0 0 Z " fill="#FCF8F1" transform="translate(363,102)" />
<path d="M0 0 C6.27 0 12.54 0 19 0 C19 1.98 19 3.96 19 6 C15.37 6 11.74 6 8 6 C8 10.62 8 15.24 8 20 C10.64 20 13.28 20 16 20 C16 21.98 16 23.96 16 26 C13.36 26 10.72 26 8 26 C8 32.93 8 39.86 8 47 C5.36 47 2.72 47 0 47 C0 31.49 0 15.98 0 0 Z " fill="#FDFBF8" transform="translate(158,38)" />
<path d="M0 0 C2.97 0 5.94 0 9 0 C9 13.53 9 27.06 9 41 C11.97 41 14.94 41 18 41 C18 42.98 18 44.96 18 47 C12.06 47 6.12 47 0 47 C0 31.49 0 15.98 0 0 Z " fill="#FBF8F0" transform="translate(342,102)" />
<path d="M0 0 C6.93 0 13.86 0 21 0 C21 1.98 21 3.96 21 6 C18.69 6 16.38 6 14 6 C14 19.53 14 33.06 14 47 C11.36 47 8.72 47 6 47 C6 33.8 6 20.6 6 7 C4.02 7 2.04 7 0 7 C0 4.69 0 2.38 0 0 Z " fill="#FEFDFC" transform="translate(239,166)" />
<path d="M0 0 C2.64 0 5.28 0 8 0 C8 13.2 8 26.4 8 40 C10.97 40 13.94 40 17 40 C17 42.31 17 44.62 17 47 C11.39 47 5.78 47 0 47 C0 31.49 0 15.98 0 0 Z " fill="#FEFEFD" transform="translate(421,166)" />
<path d="M0 0 C2.64 0 5.28 0 8 0 C8 15.51 8 31.02 8 47 C5.36 47 2.72 47 0 47 C0 31.49 0 15.98 0 0 Z " fill="#FEFEFD" transform="translate(274,102)" />
<path d="M0 0 C4.71 0.71 4.71 0.71 6 2 C6.1 4.28 6.13 6.56 6.13 8.84 C6.13 9.53 6.13 10.21 6.14 10.92 C6.14 12.37 6.13 13.82 6.13 15.27 C6.13 17.49 6.13 19.72 6.14 21.94 C6.14 23.35 6.13 24.75 6.13 26.16 C6.13 27.44 6.13 28.73 6.13 30.06 C6 33 6 33 5 34 C2.5 34.12 2.5 34.12 0 34 C-1.68 32.32 -1.13 30.27 -1.14 28.03 C-1.14 27.34 -1.13 26.65 -1.13 25.94 C-1.13 25.23 -1.13 24.52 -1.14 23.8 C-1.14 22.3 -1.13 20.8 -1.13 19.31 C-1.13 17.01 -1.13 14.71 -1.14 12.41 C-1.14 10.96 -1.13 9.51 -1.13 8.06 C-1.13 7.37 -1.14 6.68 -1.14 5.97 C-1.11 1.11 -1.11 1.11 0 0 Z " fill="#D4A03E" transform="translate(359,44)" />
<path d="M0 0 C2.62 0.38 2.62 0.38 5 1 C5.02 5.54 5.04 10.08 5.05 14.62 C5.06 16.16 5.07 17.71 5.08 19.25 C5.09 21.47 5.09 23.69 5.1 25.9 C5.1 26.6 5.11 27.29 5.11 28.01 C5.11 29.67 5.06 31.34 5 33 C4 34 4 34 1.5 34.12 C-1 34 -1 34 -2 33 C-2.22 28.6 -2.19 24.19 -2.19 19.79 C-2.19 17.58 -2.21 15.36 -2.22 13.15 C-2.23 11.74 -2.23 10.34 -2.23 8.94 C-2.23 7.66 -2.24 6.38 -2.24 5.06 C-2 2 -2 2 0 0 Z " fill="#D4A03E" transform="translate(191,44)" />
<path d="M0 0 C1.65 0 3.3 0 5 0 C7 2 7 2 7.23 4.57 C7.21 6.05 7.21 6.05 7.19 7.56 C7.18 8.55 7.17 9.55 7.17 10.57 C7 13 7 13 6 14 C4.02 14 2.04 14 0 14 C0 9.38 0 4.76 0 0 Z " fill="#D9AC56" transform="translate(330,44)" />
<path d="M0 0 C1.65 0 3.3 0 5 0 C6 1 6 1 6.13 3.69 C6.13 5.33 6.13 5.33 6.12 7 C6.13 8.09 6.13 9.19 6.13 10.31 C6 13 6 13 5 14 C3.35 14 1.7 14 0 14 C0 9.38 0 4.76 0 0 Z " fill="#D5A140" transform="translate(424,109)" />
<path d="M0 0 C1.65 0 3.3 0 5 0 C6 1 6 1 6.13 3.69 C6.13 5.33 6.13 5.33 6.12 7 C6.13 8.09 6.13 9.19 6.13 10.31 C6 13 6 13 5 14 C3.35 14 1.7 14 0 14 C0 9.38 0 4.76 0 0 Z " fill="#D4A140" transform="translate(255,109)" />
<path d="M0 0 C0 1.98 0 3.96 0 6 C-6.43 6.5 -6.43 6.5 -13 7 C-12.67 5.35 -12.34 3.7 -12 2 C-10.56 1.66 -9.13 1.33 -7.69 1 C-6.89 0.81 -6.09 0.63 -5.26 0.44 C-3 0 -3 0 0 0 Z " fill="#FAF5EC" transform="translate(358,157)" />
<path d="M0 0 C0.66 0 1.32 0 2 0 C2.66 5.61 3.32 11.22 4 17 C2.02 17 0.04 17 -2 17 C-1.86 16.05 -1.71 15.1 -1.56 14.12 C-0.89 9.43 -0.45 4.72 0 0 Z " fill="#DBAF5C" transform="translate(350,181)" />
<path d="M0 0 C3.52 3.52 3.06 8.13 3.06 12.88 C3.05 14.25 3.03 15.63 3 17 C1.35 17 -0.3 17 -2 17 C-1.04 5.48 -1.04 5.48 0 0 Z " fill="#D9AC56" transform="translate(454,117)" />
<path d="M0 0 C0.33 0 0.66 0 1 0 C1.66 5.61 2.32 11.22 3 17 C1.35 17 -0.3 17 -2 17 C-1.86 14.92 -1.71 12.83 -1.56 10.75 C-1.48 9.59 -1.4 8.43 -1.32 7.23 C-1.07 4.69 -0.72 2.44 0 0 Z " fill="#D7A74C" transform="translate(201,117)" />
</g></svg>