<?xml version='1.0' encoding='UTF-8'?>
<svg xmlns="http://www.w3.org/2000/svg" version="1.1" viewBox="0 0 610 610" width="512" height="512">
<g transform="translate(23.0, 21.0)"><path d="M0 0 C186.12 0 372.24 0 564 0 C564 187.11 564 374.22 564 567 C377.88 567 191.76 567 0 567 C0 379.89 0 192.78 0 0 Z " fill="#2EAFD1" transform="translate(0,1)" />
<path d="M0 0 C1.21 0 1.21 0 2.44 0 C3.29 0 4.14 0 5.01 -0 C7.88 -0.01 10.75 -0.01 13.61 -0.01 C15.66 -0.01 17.7 -0.01 19.75 -0.02 C25.32 -0.03 30.9 -0.03 36.47 -0.03 C41.12 -0.03 45.76 -0.03 50.41 -0.04 C61.36 -0.05 72.32 -0.05 83.27 -0.05 C94.59 -0.05 105.91 -0.06 117.23 -0.07 C126.93 -0.09 136.63 -0.09 146.33 -0.09 C152.13 -0.09 157.93 -0.09 163.73 -0.1 C169.19 -0.11 174.64 -0.11 180.1 -0.11 C182.1 -0.11 184.11 -0.11 186.12 -0.11 C188.85 -0.12 191.58 -0.12 194.31 -0.11 C195.11 -0.11 195.91 -0.12 196.74 -0.12 C202.21 -0.09 202.21 -0.09 204.44 2.14 C204.48 4.08 204.48 4.08 204.18 6.48 C204.07 7.38 203.95 8.29 203.84 9.21 C203.71 10.18 203.57 11.14 203.44 12.14 C203.31 13.09 203.17 14.04 203.04 15.02 C202.58 18.23 202.1 21.43 201.61 24.63 C201.42 25.86 201.24 27.08 201.05 28.35 C200.54 31.71 200.02 35.08 199.51 38.45 C199.18 40.59 198.86 42.74 198.53 44.88 C193.37 78.83 188.04 112.76 182.71 146.69 C181.08 157 179.47 167.32 177.87 177.64 C177.31 181.21 176.75 184.77 176.2 188.34 C175.86 190.52 175.52 192.69 175.19 194.87 C174.74 197.78 174.28 200.69 173.83 203.61 C173.7 204.44 173.57 205.28 173.44 206.14 C172.95 209.25 172.43 212.15 171.44 215.14 C156.59 215.14 141.74 215.14 126.44 215.14 C125.45 226.36 124.46 237.58 123.44 249.14 C129.05 249.14 134.66 249.14 140.44 249.14 C136 254.45 131.32 259.39 126.41 264.26 C125.67 265 124.92 265.75 124.15 266.52 C121.79 268.87 119.43 271.22 117.06 273.58 C115.45 275.18 113.84 276.79 112.23 278.39 C108.3 282.31 104.37 286.23 100.44 290.14 C97.17 288.71 95.01 286.96 92.49 284.44 C91.73 283.68 90.97 282.92 90.19 282.14 C89.38 281.33 88.57 280.51 87.73 279.67 C86.9 278.83 86.06 277.99 85.19 277.13 C83.43 275.36 81.66 273.58 79.9 271.81 C77.19 269.08 74.47 266.36 71.75 263.64 C70.03 261.92 68.32 260.2 66.61 258.48 C65.79 257.66 64.97 256.84 64.13 255.99 C63.38 255.24 62.63 254.49 61.86 253.71 C61.2 253.04 60.54 252.37 59.85 251.69 C58.44 250.14 58.44 250.14 58.44 249.14 C64.05 249.14 69.66 249.14 75.44 249.14 C74.94 246.66 74.94 246.66 74.44 244.14 C74.23 241.86 74.05 239.59 73.9 237.31 C73.82 236.14 73.74 234.98 73.66 233.78 C73.52 231.57 73.52 231.57 73.37 229.33 C73.06 224.64 72.75 219.96 72.44 215.14 C57.92 215.14 43.4 215.14 28.44 215.14 C27.17 210.72 26.11 206.82 25.39 202.36 C25.21 201.24 25.03 200.12 24.84 198.97 C24.64 197.76 24.45 196.54 24.25 195.28 C24.03 193.95 23.82 192.62 23.6 191.29 C23.12 188.39 22.65 185.48 22.18 182.58 C21.01 175.34 19.83 168.1 18.65 160.87 C18.36 159.1 18.07 157.34 17.79 155.57 C15.14 139.36 12.45 123.15 9.74 106.94 C9.44 105.13 9.44 105.13 9.14 103.29 C7.32 92.38 5.49 81.48 3.67 70.57 C2.71 64.82 1.75 59.06 0.79 53.3 C0.26 50.17 -0.26 47.03 -0.79 43.89 C-1.57 39.2 -2.35 34.5 -3.12 29.81 C-3.42 28.01 -3.72 26.22 -4.02 24.42 C-4.45 21.83 -4.88 19.24 -5.3 16.64 C-5.43 15.88 -5.56 15.12 -5.69 14.34 C-6.41 9.9 -6.77 5.65 -6.56 1.14 C-4.78 -0.65 -2.38 0.01 0 0 Z " fill="#FDFEFE" transform="translate(184.56376498937607,229.8615944981575)" />
<path d="M0 0 C63.36 0 126.72 0 192 0 C191.37 7.61 190.67 15.04 189.5 22.56 C189.3 23.87 189.3 23.87 189.11 25.21 C188.59 28.61 188.09 31.73 187 35 C186.19 34.93 185.37 34.86 184.54 34.79 C174.55 34.32 167.27 36.66 158.08 40.23 C130.76 50.37 105.6 46.4 79.29 35.77 C66.23 30.52 55.05 29.28 41.69 34.31 C30.45 38.29 20.02 41.26 8 41 C4.81 27.39 2.4 13.81 0 0 Z " fill="#2EAFD1" transform="translate(187,240)" />
<path d="M0 0 C6.96 8.42 6.18 17.61 6 28 C0.06 28 -5.88 28 -12 28 C-12.2 25.01 -12.39 22.01 -12.59 19.02 C-12.98 16.17 -13.45 14.39 -15 12 C-18.18 10.41 -21.54 10.6 -25 11 C-27.67 12.81 -27.96 13.88 -29 17 C-29.08 19.06 -29.11 21.13 -29.1 23.2 C-29.09 25.01 -29.09 25.01 -29.09 26.86 C-29.08 28.12 -29.07 29.39 -29.06 30.69 C-29.06 31.96 -29.05 33.24 -29.05 34.55 C-29.04 37.7 -29.02 40.85 -29 44 C-28.26 43.22 -27.52 42.43 -26.75 41.62 C-21.45 36.57 -17.38 36.56 -10.2 36.69 C-4.37 37.26 -1.53 39.58 2.75 43.56 C8.81 51.6 8.48 62.45 8.39 72.06 C8.37 74.2 8.39 76.33 8.41 78.46 C8.43 88.53 7.31 95.83 1 104 C-5.93 110.74 -13.46 111.47 -22.7 111.43 C-28.5 111.24 -33.08 110.21 -38 107 C-39.39 106.13 -39.39 106.13 -40.81 105.25 C-46.92 98.97 -49.24 90.24 -49.29 81.68 C-49.3 80.98 -49.3 80.27 -49.31 79.54 C-49.33 77.22 -49.33 74.9 -49.34 72.58 C-49.34 70.95 -49.35 69.32 -49.36 67.7 C-49.37 64.29 -49.37 60.89 -49.37 57.48 C-49.37 53.14 -49.4 48.8 -49.43 44.46 C-49.45 41.1 -49.46 37.74 -49.46 34.38 C-49.46 32.78 -49.47 31.18 -49.48 29.58 C-49.58 18.21 -48.83 8.19 -40.71 -0.53 C-29.28 -10.36 -11.38 -9.16 0 0 Z " fill="#FCFDFE" transform="translate(106,54)" />
<path d="M0 0 C0.66 0 1.32 0 2 0 C3.59 2.33 5.06 4.65 6.5 7.06 C7.4 8.54 8.31 10.02 9.22 11.5 C9.68 12.26 10.14 13.01 10.62 13.79 C12.67 17.08 14.83 20.29 17 23.5 C37.53 54.12 37.53 54.12 35 74 C33.86 77.81 32.31 80.78 30 84 C29.62 84.58 29.23 85.16 28.84 85.75 C24.15 92.11 17.5 95.26 10 97 C-1.46 98.29 -12.47 98.2 -22 91 C-27.85 86 -30.62 80.21 -33 73 C-33.33 72.01 -33.66 71.02 -34 70 C-35.87 54.13 -27.29 41.63 -19 29 C-18.56 28.33 -18.12 27.65 -17.66 26.96 C-15.6 23.84 -13.53 20.73 -11.43 17.64 C-9.72 15.1 -8.07 12.54 -6.45 9.96 C-5.83 8.98 -5.83 8.98 -5.2 7.98 C-4.42 6.73 -3.64 5.47 -2.87 4.21 C-1.96 2.78 -0.99 1.38 0 0 Z " fill="#2FAFD1" transform="translate(283,310)" />
<path d="M0 0 C3.3 0 6.6 0 10 0 C11.32 6.6 12.64 13.2 14 20 C15.75 13.31 17.34 6.88 18 0 C21.63 0 25.26 0 29 0 C29 15.51 29 31.02 29 47 C26.69 47 24.38 47 22 47 C19.9 44.9 20.58 40.36 20.44 37.44 C20.29 34.65 20.15 31.87 20 29 C19.01 34.61 18.02 40.22 17 46 C15.35 46 13.7 46 12 46 C10.68 39.73 9.36 33.46 8 27 C7.67 33.6 7.34 40.2 7 47 C4.69 47 2.38 47 0 47 C0 31.49 0 15.98 0 0 Z " fill="#F5FBFC" transform="translate(325,117)" />
<path d="M0 0 C3.57 1.78 5.62 4.07 7.14 7.8 C8.01 11.03 8.26 13.72 8.27 17.06 C8.27 18.75 8.27 18.75 8.27 20.48 C8.27 21.64 8.26 22.8 8.25 24 C8.26 25.16 8.27 26.33 8.27 27.52 C8.27 28.65 8.27 29.78 8.27 30.94 C8.26 31.96 8.26 32.98 8.26 34.03 C7.87 38.45 6.93 41.89 4.06 45.31 C0.66 48.09 -2.61 48.35 -6.93 48.28 C-10.44 47.81 -12.42 46.34 -15 44 C-17.81 37.31 -17.33 30.58 -17.31 23.44 C-17.33 22.12 -17.34 20.81 -17.36 19.46 C-17.36 18.19 -17.36 16.92 -17.36 15.62 C-17.37 14.47 -17.37 13.32 -17.37 12.13 C-16.83 7.57 -14.93 5.01 -11.88 1.69 C-7.86 -0.67 -4.54 -0.92 0 0 Z " fill="#EFF9FB" transform="translate(448,116)" />
<path d="M0 0 C3.09 1.49 5.43 3.41 6.63 6.75 C7.44 11.71 7.27 16.78 7.3 21.79 C7.31 23.18 7.33 24.56 7.36 25.95 C7.4 27.96 7.41 29.98 7.43 31.99 C7.44 33.19 7.45 34.39 7.47 35.63 C6.9 39.7 5.56 41.82 3 45 C-1.44 47.96 -5.79 47.77 -11 47 C-13.9 44.8 -15.39 43.21 -17 40 C-17.13 37.59 -17.21 35.21 -17.24 32.8 C-17.25 32.08 -17.25 31.37 -17.26 30.63 C-17.28 29.11 -17.29 27.6 -17.3 26.08 C-17.31 23.77 -17.36 21.47 -17.4 19.16 C-17.41 17.68 -17.42 16.21 -17.43 14.73 C-17.44 14.05 -17.46 13.37 -17.48 12.66 C-17.46 7.66 -16.13 4.85 -13 1 C-9.03 -0.98 -4.31 -0.55 0 0 Z " fill="#FAFDFE" transform="translate(328,48)" />
<path d="M0 0 C2.97 0 5.94 0 9 0 C11.31 7.26 13.62 14.52 16 22 C16.33 14.74 16.66 7.48 17 0 C19.31 0 21.62 0 24 0 C24 15.18 24 30.36 24 46 C21.36 46 18.72 46 16 46 C15.21 43.65 14.42 41.29 13.62 38.94 C13.4 38.28 13.18 37.62 12.95 36.95 C11.52 32.66 10.21 28.36 9 24 C8.97 24.66 8.95 25.32 8.92 26 C8.81 28.98 8.69 31.96 8.56 34.94 C8.52 35.98 8.48 37.02 8.44 38.09 C8.4 39.08 8.36 40.07 8.32 41.09 C8.26 42.46 8.26 42.46 8.21 43.87 C8 46 8 46 7 47 C4 47.12 4 47.12 1 47 C0 46 0 46 -0.12 44.13 C-0.12 43.32 -0.12 42.5 -0.11 41.66 C-0.11 40.74 -0.11 39.82 -0.11 38.87 C-0.11 37.87 -0.1 36.87 -0.1 35.84 C-0.1 34.82 -0.09 33.8 -0.09 32.75 C-0.09 29.48 -0.08 26.21 -0.06 22.94 C-0.06 20.73 -0.05 18.51 -0.05 16.3 C-0.04 10.87 -0.02 5.43 0 0 Z " fill="#EEF8FB" transform="translate(246,117)" />
<path d="M0 0 C2.64 0 5.28 0 8 0 C10.54 6.6 12.79 13.28 15 20 C15.33 13.4 15.66 6.8 16 0 C18.31 0 20.62 0 23 0 C23 15.51 23 31.02 23 47 C20.69 47 18.38 47 16 47 C12.89 39.14 10.49 31.08 8 23 C7.67 30.92 7.34 38.84 7 47 C4.69 47 2.38 47 0 47 C0 31.49 0 15.98 0 0 Z " fill="#F6FBFD" transform="translate(381,117)" />
<path d="M0 0 C16 0 16 0 21 3 C22.87 6.74 22.31 11.19 22.38 15.31 C22.41 16.26 22.45 17.21 22.49 18.19 C22.55 22.86 22.53 25.25 19.78 29.15 C15.54 31.97 12.99 31.37 8 31 C8 36.28 8 41.56 8 47 C5.36 47 2.72 47 0 47 C0 31.49 0 15.98 0 0 Z " fill="#F8FCFD" transform="translate(284,48)" />
<path d="M0 0 C3.3 0 6.6 0 10 0 C10.98 5.25 11.96 10.49 12.94 15.74 C13.27 17.52 13.6 19.3 13.93 21.09 C14.42 23.66 14.89 26.23 15.37 28.81 C15.52 29.59 15.67 30.38 15.82 31.19 C16.79 36.44 17.46 41.68 18 47 C15.36 47 12.72 47 10 47 C9.67 44.36 9.34 41.72 9 39 C6.03 39 3.06 39 0 39 C-0.33 41.64 -0.66 44.28 -1 47 C-3.64 47 -6.28 47 -9 47 C-8.04 41.59 -7.08 36.18 -6.12 30.78 C-5.79 28.94 -5.47 27.1 -5.14 25.27 C-4.67 22.61 -4.2 19.96 -3.73 17.31 C-3.58 16.5 -3.44 15.69 -3.29 14.85 C-2.39 9.84 -1.29 4.93 0 0 Z " fill="#F6FBFD" transform="translate(169,48)" />
<path d="M0 0 C3.3 0 6.6 0 10 0 C12.97 15.51 15.94 31.02 19 47 C16.03 47 13.06 47 10 47 C9.67 44.36 9.34 41.72 9 39 C6.03 39 3.06 39 0 39 C0.02 39.95 0.04 40.9 0.06 41.88 C0 45 0 45 -1 47 C-3.31 47 -5.62 47 -8 47 C-7.46 36.93 -5.41 27.18 -3.44 17.31 C-3.1 15.63 -2.77 13.94 -2.44 12.26 C-1.63 8.17 -0.82 4.09 0 0 Z " fill="#F7FBFD" transform="translate(371,48)" />
<path d="M0 0 C2.97 0 5.94 0 9 0 C11.02 4.45 11.87 8.89 12.73 13.66 C12.88 14.49 13.03 15.31 13.19 16.17 C13.51 17.91 13.83 19.65 14.14 21.39 C14.62 24.06 15.12 26.72 15.61 29.38 C15.92 31.08 16.23 32.78 16.54 34.47 C16.76 35.66 16.76 35.66 16.98 36.88 C17.6 40.33 18 43.48 18 47 C15.36 47 12.72 47 10 47 C9.67 44.36 9.34 41.72 9 39 C6.03 39 3.06 39 0 39 C-0.33 41.64 -0.66 44.28 -1 47 C-3.64 47 -6.28 47 -9 47 C-8.04 41.75 -7.08 36.51 -6.12 31.26 C-5.79 29.48 -5.47 27.7 -5.14 25.91 C-4.67 23.34 -4.2 20.77 -3.73 18.19 C-3.58 17.41 -3.44 16.62 -3.29 15.81 C-2.32 10.51 -1.19 5.26 0 0 Z " fill="#F7FCFD" transform="translate(254,48)" />
<path d="M0 0 C3.47 0.05 3.47 0.05 6.93 0.1 C9.49 8.59 11.18 17.15 12.72 25.86 C13.13 28.12 13.54 30.38 13.95 32.64 C15.93 43.66 15.93 43.66 15.93 47.1 C13.29 47.1 10.65 47.1 7.93 47.1 C6.46 44.14 6.87 41.36 6.93 38.1 C3.96 38.1 0.99 38.1 -2.07 38.1 C-2.4 41.07 -2.73 44.04 -3.07 47.1 C-5.71 47.1 -8.35 47.1 -11.07 47.1 C-9.56 37.96 -8 28.84 -6.41 19.72 C-6.13 18.16 -5.86 16.6 -5.6 15.04 C-5.2 12.76 -4.81 10.49 -4.41 8.21 C-4.23 7.16 -4.23 7.16 -4.04 6.09 C-2.99 0.14 -2.99 0.14 0 0 Z " fill="#F6FBFD" transform="translate(306.06640625,116.90234375)" />
<path d="M0 0 C3.3 0 6.6 0 10 0 C10.82 3.93 11.64 7.86 12.45 11.79 C12.87 13.77 13.28 15.75 13.69 17.72 C18.32 40.03 18.32 40.03 18 46 C15.36 46 12.72 46 10 46 C9.67 43.36 9.34 40.72 9 38 C6.36 38 3.72 38 1 38 C0.86 39.3 0.71 40.6 0.56 41.94 C0.12 45.88 0.12 45.88 -1 47 C-3.33 47.04 -5.67 47.04 -8 47 C-7.28 37.15 -5.31 27.56 -3.44 17.88 C-3.1 16.14 -2.77 14.4 -2.44 12.66 C-1.63 8.44 -0.82 4.22 0 0 Z " fill="#F6FBFD" transform="translate(225,117)" />
<path d="M0 0 C2.64 0 5.28 0 8 0 C8.33 12.87 8.66 25.74 9 39 C10.32 39.33 11.64 39.66 13 40 C15.11 37.89 14.26 33.29 14.32 30.37 C14.34 29.51 14.36 28.64 14.38 27.75 C14.44 24.98 14.5 22.21 14.56 19.44 C14.61 17.56 14.65 15.69 14.69 13.81 C14.8 9.21 14.9 4.6 15 0 C17.64 0 20.28 0 23 0 C23.1 5.59 23.17 11.17 23.22 16.76 C23.24 18.66 23.27 20.56 23.3 22.46 C23.35 25.19 23.37 27.93 23.39 30.66 C23.41 31.51 23.43 32.35 23.45 33.22 C23.46 38.77 22.62 41.73 19 46 C15.06 47.97 10.29 47.46 6 47 C3 45.2 1.55 44.1 0 41 C-0.09 37.94 -0.12 34.9 -0.1 31.84 C-0.1 30.93 -0.09 30.02 -0.09 29.09 C-0.09 26.18 -0.08 23.28 -0.06 20.38 C-0.06 18.41 -0.05 16.44 -0.05 14.48 C-0.04 9.65 -0.02 4.83 0 0 Z " fill="#F7FBFD" transform="translate(219,48)" />
<path d="M0 0 C3 1.8 4.45 2.9 6 6 C6.07 7.71 6.08 9.42 6.06 11.12 C6.05 12.04 6.04 12.95 6.04 13.88 C6.02 14.58 6.01 15.28 6 16 C3.69 16 1.38 16 -1 16 C-1.33 13.36 -1.66 10.72 -2 8 C-3.66 7.62 -5.32 7.29 -7 7 C-8.88 8.88 -8.13 12.09 -8.13 14.59 C-8.13 15.25 -8.13 15.91 -8.14 16.59 C-8.14 17.99 -8.13 19.38 -8.13 20.78 C-8.13 22.93 -8.13 25.07 -8.14 27.21 C-8.14 28.57 -8.13 29.92 -8.13 31.28 C-8.13 32.52 -8.13 33.76 -8.13 35.03 C-8.2 37.93 -8.2 37.93 -7 40 C-5.02 39.51 -5.02 39.51 -3 39 C-2.67 35.37 -2.34 31.74 -2 28 C-2.99 28 -3.98 28 -5 28 C-5 26.02 -5 24.04 -5 22 C-1.37 22 2.26 22 6 22 C6 30.25 6 38.5 6 47 C4.02 47 2.04 47 0 47 C-0.33 46.34 -0.66 45.68 -1 45 C-1.66 45.66 -2.32 46.32 -3 47 C-6.05 47.56 -8.94 47.55 -12 47 C-15.28 43.88 -16.92 41.35 -17.18 36.84 C-17.2 35.49 -17.22 34.14 -17.24 32.8 C-17.25 32.08 -17.25 31.37 -17.26 30.63 C-17.28 29.11 -17.29 27.6 -17.3 26.08 C-17.31 23.77 -17.36 21.47 -17.4 19.16 C-17.41 17.68 -17.42 16.21 -17.43 14.73 C-17.44 14.05 -17.46 13.37 -17.48 12.66 C-17.46 7.66 -16.13 4.85 -13 1 C-9.06 -0.97 -4.29 -0.46 0 0 Z " fill="#FAFDFD" transform="translate(208,48)" />
<path d="M0 0 C2.19 1.6 2.19 1.6 4 4 C4.5 7.31 4.5 7.31 4.5 11.21 C4.5 11.91 4.5 12.6 4.5 13.31 C4.5 14.78 4.49 16.24 4.47 17.7 C4.44 19.93 4.45 22.15 4.46 24.38 C4.41 36.52 4.41 36.52 1 41 C-2.14 42.57 -4.54 42.35 -8 42 C-10.63 39.83 -12.47 38.05 -14 35 C-14.23 30.91 -14.23 26.83 -14.24 22.73 C-14.25 20.71 -14.28 18.68 -14.31 16.65 C-14.32 15.37 -14.32 14.08 -14.33 12.76 C-14.34 11.59 -14.35 10.41 -14.36 9.2 C-13.96 5.68 -13.08 3.83 -11 1 C-7.45 -1.79 -4.21 -1.05 0 0 Z " fill="#32B0D2" transform="translate(90,107)" />
<path d="M0 0 C3.63 1.62 4.77 2.66 7 6 C7.2 8.26 7.2 8.26 7.12 10.69 C7.11 11.5 7.09 12.3 7.07 13.14 C7.05 13.75 7.02 14.37 7 15 C4.36 15 1.72 15 -1 15 C-1.33 12.69 -1.66 10.38 -2 8 C-3.65 8.33 -5.3 8.66 -7 9 C-6.67 14.53 -4.5 17.11 -0.56 20.69 C6.83 27.62 6.83 27.62 7.37 31.96 C7.55 41 7.55 41 5.95 43.93 C2.8 47.07 0.01 48.17 -4.31 48.31 C-7.65 48.26 -8.93 48.04 -11.94 46.38 C-16.04 41.65 -16.24 37.08 -16 31 C-13.36 31 -10.72 31 -8 31 C-7.67 33.97 -7.34 36.94 -7 40 C-5.35 40 -3.7 40 -2 40 C-1.31 36.69 -1.08 35.2 -2 32 C-4.6 28.86 -7.39 26.15 -10.4 23.42 C-13.24 20.78 -14.86 19.16 -15.34 15.26 C-15.44 6.75 -15.44 6.75 -13.12 2.81 C-9.03 -0.68 -5.2 -0.51 0 0 Z " fill="#F5FBFC" transform="translate(207,116)" />
<path d="M0 0 C2.97 0 5.94 0 9 0 C9.12 0.87 9.24 1.74 9.37 2.64 C10.47 10.45 11.66 18.23 13 26 C14.6 20.77 15.68 15.59 16.56 10.19 C17.87 2.26 17.87 2.26 19 0 C21.31 0 23.62 0 26 0 C25.46 10.07 23.41 19.82 21.44 29.69 C21.1 31.37 20.77 33.06 20.44 34.74 C19.63 38.83 18.82 42.91 18 47 C15.03 47 12.06 47 9 47 C7.47 41.9 6.28 36.81 5.27 31.58 C5.12 30.8 4.97 30.02 4.81 29.22 C4.49 27.58 4.17 25.95 3.86 24.31 C3.37 21.81 2.88 19.31 2.39 16.81 C2.08 15.21 1.77 13.62 1.46 12.02 C1.31 11.27 1.17 10.53 1.02 9.76 C0.38 6.42 0 3.42 0 0 Z " fill="#F6FBFD" transform="translate(392,48)" />
<path d="M0 0 C6.27 0 12.54 0 19 0 C19 2.31 19 4.62 19 7 C15.37 7 11.74 7 8 7 C8 11.29 8 15.58 8 20 C10.64 20 13.28 20 16 20 C16 21.98 16 23.96 16 26 C13.36 26 10.72 26 8 26 C8 30.62 8 35.24 8 40 C11.63 40 15.26 40 19 40 C19 42.31 19 44.62 19 47 C12.73 47 6.46 47 0 47 C0 31.49 0 15.98 0 0 Z " fill="#FAFDFE" transform="translate(422,48)" />
<path d="M0 0 C6.27 0 12.54 0 19 0 C19 1.98 19 3.96 19 6 C15.37 6 11.74 6 8 6 C8 10.62 8 15.24 8 20 C10.64 20 13.28 20 16 20 C16 21.98 16 23.96 16 26 C13.36 26 10.72 26 8 26 C8 30.62 8 35.24 8 40 C11.63 40 15.26 40 19 40 C19 42.31 19 44.62 19 47 C12.73 47 6.46 47 0 47 C0 31.49 0 15.98 0 0 Z " fill="#F7FCFD" transform="translate(358,117)" />
<path d="M0 0 C5.94 0 11.88 0 18 0 C18 1.98 18 3.96 18 6 C14.7 6 11.4 6 8 6 C8 10.29 8 14.58 8 19 C10.31 19 12.62 19 15 19 C15 21.31 15 23.62 15 26 C12.69 26 10.38 26 8 26 C8 30.62 8 35.24 8 40 C11.3 40 14.6 40 18 40 C18 42.31 18 44.62 18 47 C12.06 47 6.12 47 0 47 C0 31.49 0 15.98 0 0 Z " fill="#F7FCFD" transform="translate(274,117)" />
<path d="M0 0 C6.27 0 12.54 0 19 0 C19 1.98 19 3.96 19 6 C15.37 6 11.74 6 8 6 C8 10.62 8 15.24 8 20 C10.64 20 13.28 20 16 20 C16 21.98 16 23.96 16 26 C13.36 26 10.72 26 8 26 C8 30.62 8 35.24 8 40 C11.63 40 15.26 40 19 40 C19 41.98 19 43.96 19 46 C12.73 46 6.46 46 0 46 C0 30.82 0 15.64 0 0 Z " fill="#FFFFFF" transform="translate(162,117)" />
<path d="M0 0 C6.93 0 13.86 0 21 0 C21 2.31 21 4.62 21 7 C19.02 7 17.04 7 15 7 C15 20.2 15 33.4 15 47 C12.03 47 9.06 47 6 47 C6 33.8 6 20.6 6 7 C4.02 7 2.04 7 0 7 C0 4.69 0 2.38 0 0 Z " fill="#EEF8FB" transform="translate(339,48)" />
<path d="M0 0 C6.93 0 13.86 0 21 0 C21 1.98 21 3.96 21 6 C19.02 6 17.04 6 15 6 C15 19.53 15 33.06 15 47 C12.36 47 9.72 47 7 47 C7 33.47 7 19.94 7 6 C4.69 6 2.38 6 0 6 C0 4.02 0 2.04 0 0 Z " fill="#F8FCFD" transform="translate(407,117)" />
<path d="M0 0 C2.31 0 4.62 0 7 0 C7 13.2 7 26.4 7 40 C10.3 40 13.6 40 17 40 C17 42.31 17 44.62 17 47 C11.39 47 5.78 47 0 47 C0 31.49 0 15.98 0 0 Z " fill="#FCFEFE" transform="translate(446,48)" />
<path d="M0 0 C2.56 0.25 2.56 0.25 5 1 C6.39 3.79 6.13 6.1 6.13 9.21 C6.13 11.08 6.13 11.08 6.14 12.98 C6.13 14.29 6.13 15.59 6.12 16.94 C6.13 18.24 6.13 19.54 6.14 20.88 C6.14 22.13 6.13 23.37 6.13 24.65 C6.13 25.8 6.13 26.94 6.13 28.12 C6 31 6 31 5 34 C2.62 34.62 2.62 34.62 0 35 C-2.87 32.13 -2.26 30.1 -2.27 26.09 C-2.27 25.41 -2.27 24.73 -2.27 24.03 C-2.27 22.59 -2.27 21.15 -2.26 19.71 C-2.25 17.51 -2.26 15.3 -2.27 13.1 C-2.27 11.7 -2.27 10.3 -2.27 8.91 C-2.26 7.63 -2.26 6.36 -2.26 5.04 C-2 2 -2 2 0 0 Z " fill="#37B2D3" transform="translate(321,54)" />
<path d="M0 0 C2.97 0.49 2.97 0.49 6 1 C6.02 5.54 6.04 10.08 6.05 14.62 C6.06 16.16 6.07 17.71 6.08 19.25 C6.09 21.47 6.09 23.69 6.1 25.9 C6.1 26.6 6.11 27.29 6.11 28.01 C6.11 29.67 6.06 31.34 6 33 C5 34 5 34 2.5 34.12 C0 34 0 34 -1 33 C-1.1 30.73 -1.13 28.46 -1.13 26.19 C-1.13 25.51 -1.13 24.83 -1.14 24.12 C-1.14 22.68 -1.13 21.23 -1.13 19.79 C-1.13 17.58 -1.13 15.36 -1.14 13.15 C-1.14 11.74 -1.13 10.34 -1.13 8.94 C-1.13 7.66 -1.13 6.38 -1.13 5.06 C-1 2 -1 2 0 0 Z " fill="#30AFD1" transform="translate(441,123)" />
<path d="M0 0 C1.65 0 3.3 0 5 0 C6.82 1.82 6.13 4.31 6.14 6.73 C6.13 7.48 6.13 8.23 6.12 9 C6.13 9.75 6.13 10.5 6.14 11.27 C6.13 16.87 6.13 16.87 5 18 C3.35 18 1.7 18 0 18 C0 12.06 0 6.12 0 0 Z " fill="#32B0D1" transform="translate(292,55)" />
<path d="M0 0 C0 1.65 0 3.3 0 5 C-2.88 5.96 -4.7 6.11 -7.69 6.06 C-8.9 6.05 -8.9 6.05 -10.14 6.04 C-11.06 6.02 -11.06 6.02 -12 6 C-12 4.68 -12 3.36 -12 2 C-10.76 1.67 -9.53 1.34 -8.25 1 C-7.55 0.81 -6.86 0.63 -6.14 0.44 C-4 0 -4 0 0 0 Z " fill="#F8FCFD" transform="translate(382,40)" />
<path d="M0 0 C0 1.65 0 3.3 0 5 C-3.98 6.33 -7.85 6.07 -12 6 C-12 4.68 -12 3.36 -12 2 C-7.88 0.71 -4.33 -0.26 0 0 Z " fill="#FAFCFD" transform="translate(180,40)" />
<path d="M0 0 C2.15 3.53 2.38 6.66 2.62 10.75 C2.7 11.92 2.77 13.09 2.85 14.3 C2.9 15.19 2.95 16.08 3 17 C1.35 17 -0.3 17 -2 17 C-1.86 15.1 -1.71 13.21 -1.56 11.31 C-1.48 10.26 -1.4 9.2 -1.32 8.11 C-1.04 5.35 -0.6 2.71 0 0 Z " fill="#41B6D5" transform="translate(258,63)" />
<path d="M0 0 C2.15 3.53 2.38 6.66 2.62 10.75 C2.7 11.92 2.77 13.09 2.85 14.3 C2.9 15.19 2.95 16.08 3 17 C1.35 17 -0.3 17 -2 17 C-1.04 5.48 -1.04 5.48 0 0 Z " fill="#3EB5D4" transform="translate(173,63)" />
<path d="M0 0 C3.52 5.28 3.11 10.86 3 17 C1.35 17 -0.3 17 -2 17 C-1.46 11.31 -0.86 5.65 0 0 Z " fill="#40B5D5" transform="translate(375,63)" />
<path d="M0 0 C0.33 0 0.66 0 1 0 C1.66 5.61 2.32 11.22 3 17 C1.35 17 -0.3 17 -2 17 C-1.86 14.92 -1.71 12.83 -1.56 10.75 C-1.48 9.59 -1.4 8.43 -1.32 7.23 C-1.07 4.69 -0.72 2.44 0 0 Z " fill="#43B6D5" transform="translate(308,131)" />
<path d="M0 0 C0.66 0.33 1.32 0.66 2 1 C2.63 3.94 2.63 3.94 3.12 7.56 C3.29 8.76 3.46 9.96 3.63 11.19 C3.75 12.12 3.88 13.05 4 14 C2.02 14 0.04 14 -2 14 C-1.34 9.38 -0.68 4.76 0 0 Z " fill="#37B2D3" transform="translate(229,134)" />
</g></svg>