<?xml version='1.0' encoding='UTF-8'?>
<svg xmlns="http://www.w3.org/2000/svg" version="1.1" viewBox="0 0 610 610" width="512" height="512">
<g transform="translate(2.0, 14.0)"><path d="M0 0 C187.77 0 375.54 0 569 0 C569 188.1 569 376.2 569 570 C381.23 570 193.46 570 0 570 C0 381.9 0 193.8 0 0 Z " fill="#5BAD49" transform="translate(23,12)" />
<path d="M0 0 C1.25 0.01 1.25 0.01 2.53 0.03 C13.48 0.32 21.76 3.81 29.69 11.44 C38.56 21.35 42.19 31.09 42.02 44.35 C41.48 49.38 39.72 53.84 37.69 58.44 C38.3 58.58 38.92 58.73 39.56 58.88 C50.73 61.84 60.1 68.38 66.45 78.15 C73.08 89.87 74.45 101.54 71.56 114.75 C68.38 125.75 61.53 135.32 51.65 141.26 C44.17 145.09 37.58 147.74 29.1 147.73 C28.36 147.73 27.63 147.74 26.87 147.75 C24.45 147.77 22.03 147.77 19.61 147.77 C17.92 147.78 16.22 147.79 14.53 147.79 C10.98 147.81 7.43 147.81 3.89 147.81 C-0.64 147.81 -5.16 147.84 -9.68 147.87 C-13.18 147.89 -16.68 147.9 -20.18 147.89 C-21.85 147.9 -23.51 147.91 -25.18 147.92 C-37.36 148.02 -47.29 147.14 -56.56 138.43 C-59.48 135.11 -61.49 131.45 -63.31 127.44 C-63.68 126.66 -64.04 125.88 -64.42 125.08 C-67.11 117.1 -65.95 108.1 -62.47 100.57 C-60.91 97.7 -59.25 95.06 -57.31 92.44 C-57.9 92.18 -58.49 91.92 -59.09 91.66 C-64.29 88.8 -68.15 83.68 -70.25 78.19 C-72.56 69.85 -72.55 60.13 -68.31 52.44 C-63.37 45.49 -57.63 39.9 -49.31 37.44 C-45.93 37.09 -42.7 37.11 -39.31 37.44 C-39.3 36.83 -39.28 36.23 -39.27 35.6 C-38.67 25 -34.05 16.64 -26.31 9.44 C-18.17 2.97 -10.4 -0.13 0 0 Z " fill="#FEFEFE" transform="translate(246.3125,238.5625)" />
<path d="M0 0 C1.45 -0 1.45 -0 2.93 -0.01 C4 -0.01 5.08 -0 6.18 -0 C7.31 -0 8.45 -0 9.61 -0.01 C13.43 -0.01 17.26 -0.01 21.08 -0 C23.81 -0 26.53 -0.01 29.26 -0.01 C35.92 -0.01 42.58 -0.01 49.24 -0.01 C54.65 -0.01 60.06 -0.01 65.46 -0.01 C66.62 -0.01 66.62 -0.01 67.79 -0.01 C69.35 -0.01 70.91 -0.01 72.47 -0.01 C87.13 -0.01 101.78 -0.01 116.43 -0 C129.01 0 141.6 0 154.19 -0 C168.78 -0.01 183.38 -0.01 197.98 -0.01 C199.53 -0.01 201.09 -0.01 202.64 -0.01 C203.41 -0.01 204.17 -0.01 204.96 -0.01 C210.37 -0.01 215.77 -0.01 221.18 -0.01 C227.76 -0.01 234.35 -0.01 240.93 -0.01 C244.29 -0 247.65 -0 251.01 -0.01 C254.65 -0.01 258.29 -0.01 261.92 -0 C263.54 -0 263.54 -0 265.18 -0.01 C266.15 -0.01 267.11 -0 268.11 0 C268.95 0 269.79 0 270.65 0 C272.55 0.13 272.55 0.13 273.55 1.13 C273.65 2.46 273.68 3.79 273.69 5.13 C273.69 5.93 273.69 6.73 273.69 7.56 C273.69 8.41 273.68 9.25 273.68 10.13 C273.68 10.97 273.69 11.82 273.69 12.69 C273.69 13.89 273.69 13.89 273.69 15.13 C273.69 15.87 273.68 16.61 273.68 17.38 C273.55 19.13 273.55 19.13 272.55 20.13 C271.07 20.22 269.59 20.25 268.11 20.25 C267.14 20.25 266.17 20.26 265.18 20.26 C264.11 20.26 263.03 20.26 261.92 20.25 C260.23 20.26 260.23 20.26 258.5 20.26 C254.67 20.26 250.85 20.26 247.03 20.26 C244.3 20.26 241.57 20.26 238.85 20.26 C232.19 20.27 225.53 20.26 218.87 20.26 C213.46 20.26 208.05 20.26 202.64 20.26 C201.49 20.26 201.49 20.26 200.32 20.26 C198.75 20.26 197.19 20.26 195.63 20.26 C180.98 20.26 166.33 20.26 151.68 20.26 C139.09 20.25 126.51 20.25 113.92 20.26 C99.32 20.26 84.73 20.26 70.13 20.26 C68.57 20.26 67.02 20.26 65.46 20.26 C64.32 20.26 64.32 20.26 63.15 20.26 C57.74 20.26 52.33 20.26 46.93 20.26 C40.35 20.26 33.76 20.26 27.18 20.26 C23.82 20.26 20.45 20.26 17.09 20.26 C13.46 20.26 9.82 20.26 6.18 20.25 C4.57 20.26 4.57 20.26 2.93 20.26 C1.96 20.26 1 20.25 0 20.25 C-0.84 20.25 -1.68 20.25 -2.55 20.25 C-4.45 20.13 -4.45 20.13 -5.45 19.13 C-5.54 17.8 -5.58 16.46 -5.58 15.13 C-5.58 14.32 -5.58 13.52 -5.58 12.69 C-5.58 11.84 -5.58 11 -5.57 10.13 C-5.58 9.28 -5.58 8.43 -5.58 7.56 C-5.58 6.76 -5.58 5.95 -5.58 5.13 C-5.58 4.38 -5.58 3.64 -5.58 2.88 C-5.31 -0.7 -3.05 0 0 0 Z " fill="#FAFCFA" transform="translate(170.4462661743164,491.87415885925293)" />
<path d="M0 0 C1.45 -0 1.45 -0 2.93 -0.01 C4 -0.01 5.08 -0 6.18 -0 C7.31 -0 8.45 -0 9.61 -0.01 C13.43 -0.01 17.26 -0.01 21.08 -0 C23.81 -0 26.53 -0.01 29.26 -0.01 C35.92 -0.01 42.58 -0.01 49.24 -0.01 C54.65 -0.01 60.06 -0.01 65.46 -0.01 C66.62 -0.01 66.62 -0.01 67.79 -0.01 C69.35 -0.01 70.91 -0.01 72.47 -0.01 C87.13 -0.01 101.78 -0.01 116.43 -0 C129.01 0 141.6 0 154.19 -0 C168.78 -0.01 183.38 -0.01 197.98 -0.01 C199.53 -0.01 201.09 -0.01 202.64 -0.01 C203.41 -0.01 204.17 -0.01 204.96 -0.01 C210.37 -0.01 215.77 -0.01 221.18 -0.01 C227.76 -0.01 234.35 -0.01 240.93 -0.01 C244.29 -0 247.65 -0 251.01 -0.01 C254.65 -0.01 258.29 -0.01 261.92 -0 C263.54 -0 263.54 -0 265.18 -0.01 C266.15 -0.01 267.11 -0 268.11 0 C268.95 0 269.79 0 270.65 0 C272.55 0.13 272.55 0.13 273.55 1.13 C273.55 7.07 273.55 13.01 273.55 19.13 C181.48 19.13 89.41 19.13 -5.45 19.13 C-5.45 0 -5.45 0 0 0 Z " fill="#FEFEFE" transform="translate(170.4462661743164,458.87415885925293)" />
<path d="M0 0 C17.16 0 34.32 0 52 0 C52 5.28 52 10.56 52 16 C40.78 16 29.56 16 18 16 C18.33 24.91 18.66 33.82 19 43 C20.98 41.35 22.96 39.7 25 38 C30.02 35.49 37.99 36.2 43.3 37.61 C48.97 40.47 52.06 46.19 54 52 C54.11 53.54 54.16 55.08 54.18 56.62 C54.2 58.02 54.2 58.02 54.22 59.45 C54.22 60.46 54.23 61.47 54.24 62.51 C54.25 63.55 54.25 64.6 54.26 65.67 C54.28 67.88 54.29 70.09 54.3 72.29 C54.31 75.66 54.36 79.02 54.4 82.38 C54.41 84.53 54.42 86.68 54.43 88.82 C54.44 89.82 54.46 90.82 54.48 91.85 C54.45 99.74 52.82 105.12 47.25 110.81 C37.73 117.22 27.23 117.15 16.14 115.6 C10.18 114.02 6.14 110.25 3 105 C-0.11 98.18 -0.38 91.84 -0.19 84.44 C-0.17 83.43 -0.16 82.42 -0.15 81.38 C-0.11 78.92 -0.06 76.46 0 74 C5.94 74 11.88 74 18 74 C18.06 75.31 18.12 76.63 18.18 77.98 C18.27 79.72 18.35 81.45 18.44 83.19 C18.48 84.05 18.52 84.92 18.56 85.81 C18.76 89.96 19 93.95 20 98 C23.55 99.18 26.27 99.27 30 99 C32.62 97.17 32.97 96.09 34 93 C34.13 90.32 34.21 87.66 34.24 84.97 C34.25 84.19 34.25 83.4 34.26 82.59 C34.28 80.93 34.29 79.27 34.3 77.61 C34.31 75.08 34.36 72.54 34.4 70 C34.41 68.39 34.42 66.77 34.43 65.16 C34.44 64.4 34.46 63.65 34.48 62.87 C34.46 59.38 34.27 57.37 32.2 54.52 C29.02 52.32 26.77 52.52 23 53 C19.01 56.36 19.01 56.36 19 65 C12.73 65 6.46 65 0 65 C0 43.55 0 22.1 0 0 Z " fill="#FBFDFB" transform="translate(109,60)" />
<path d="M0 0 C5.28 0 10.56 0 16 0 C16 37.95 16 75.9 16 115 C9.73 115 3.46 115 -3 115 C-3 86.29 -3 57.58 -3 28 C-7.14 31.31 -10.06 34.28 -13.35 38.29 C-15 40 -15 40 -18 41 C-20.1 23.3 -20.1 23.3 -15.28 16.54 C-12.65 13.39 -9.8 10.49 -6.76 7.74 C-4.32 5.33 -2.19 2.63 0 0 Z " fill="#FDFEFD" transform="translate(82,60)" />
<path d="M0 0 C0.75 0.56 1.5 1.12 2.27 1.7 C2.84 2.13 3.41 2.56 4 3 C7.18 2.23 9.55 0.67 12.38 -1 C20.17 -5.47 29.03 -6.49 37.75 -4.31 C43.19 -2.32 48.35 0.39 52 5 C52.44 7.88 52.44 7.88 52 10 C48.53 9.54 45.33 9.11 42 8 C29.95 6.96 20.9 10.33 11 17 C10.35 17.58 9.7 18.16 9.02 18.75 C7 20 7 20 4.59 19.9 C1.57 18.85 -0.73 17.42 -3.38 15.62 C-12.38 9.72 -20.17 7.23 -31 8 C-33.01 8.64 -35.01 9.31 -37 10 C-39.88 9.62 -39.88 9.62 -42 9 C-41.68 5.96 -41.46 4.43 -39.18 2.3 C-25.07 -6.45 -15.33 -6.93 0 0 Z " fill="#FAFCFA" transform="translate(385,347)" />
<path d="M0 0 C16 0 16 0 22 4 C23.51 7.02 23.18 10.15 23.2 13.46 C23.21 14.2 23.21 14.94 23.22 15.7 C23.23 17.27 23.24 18.83 23.24 20.4 C23.25 22.79 23.28 25.18 23.31 27.57 C23.32 29.1 23.32 30.62 23.33 32.14 C23.34 32.86 23.35 33.57 23.37 34.3 C23.35 38.71 22.8 41.55 20 45 C16 47 16 47 0 47 C0 31.49 0 15.98 0 0 Z " fill="#F9FCF9" transform="translate(247,60)" />
<path d="M0 0 C16 0 16 0 21 3 C24.61 7.93 23.7 15.24 23 21 C21.57 23.59 20.52 24.36 18 26 C19.89 33.04 21.87 40.03 24 47 C21.03 47 18.06 47 15 47 C13.02 41.06 11.04 35.12 9 29 C8.67 34.94 8.34 40.88 8 47 C5.36 47 2.72 47 0 47 C0 31.49 0 15.98 0 0 Z " fill="#F7FAF6" transform="translate(375,128)" />
<path d="M0 0 C0.8 -0 1.61 -0 2.44 -0 C3.28 -0 4.13 0 5 0.01 C6.27 0 6.27 0 7.56 -0 C8.37 -0 9.17 -0 10 0 C10.74 0 11.48 0 12.25 0 C14 0.13 14 0.13 15 1.13 C15.09 2.48 15.12 3.84 15.11 5.19 C15.11 6.05 15.11 6.92 15.11 7.8 C15.11 8.74 15.1 9.67 15.1 10.64 C15.1 11.59 15.09 12.54 15.09 13.52 C15.09 16.58 15.08 19.64 15.06 22.7 C15.06 24.76 15.05 26.83 15.05 28.9 C15.04 33.98 15.02 39.05 15 44.13 C11.85 44.16 8.71 44.18 5.56 44.2 C4.66 44.2 3.77 44.21 2.84 44.22 C1.56 44.23 1.56 44.23 0.25 44.23 C-0.54 44.24 -1.33 44.24 -2.14 44.25 C-4 44.13 -4 44.13 -5 43.13 C-5.1 40.04 -5.14 36.97 -5.13 33.88 C-5.13 32.95 -5.13 32.03 -5.14 31.07 C-5.14 29.1 -5.13 27.14 -5.13 25.17 C-5.13 22.15 -5.13 19.12 -5.14 16.1 C-5.14 14.2 -5.13 12.29 -5.13 10.38 C-5.13 9.47 -5.14 8.56 -5.14 7.62 C-5.11 0.01 -5.11 0.01 0 0 Z " fill="#FAFCF9" transform="translate(245,396.8671875)" />
<path d="M0 0 C5.94 0 11.88 0 18 0 C22 4 22 4 22.49 5.97 C22.47 6.98 22.47 6.98 22.46 8 C22.46 8.74 22.45 9.49 22.45 10.25 C22.42 11.01 22.4 11.78 22.38 12.56 C22.37 13.33 22.37 14.1 22.37 14.89 C22.31 18.75 22.18 20.73 20 24 C19.01 24.66 18.02 25.32 17 26 C17.62 27.92 18.25 29.83 18.88 31.75 C19.22 32.82 19.57 33.88 19.93 34.98 C20.89 37.91 20.89 37.91 22.13 40.14 C23 42 23 42 23 46 C20.36 46 17.72 46 15 46 C13.02 40.72 11.04 35.44 9 30 C8.67 35.28 8.34 40.56 8 46 C5.36 46 2.72 46 0 46 C0 30.82 0 15.64 0 0 Z " fill="#FCFDFC" transform="translate(277,129)" />
<path d="M0 0 C5.61 0 11.22 0 17 0 C22 5 22 5 22.66 8.56 C22.64 10.48 22.64 10.48 22.62 12.44 C22.64 13.71 22.65 14.99 22.66 16.31 C22 20 22 20 19.29 22.93 C16.75 25.63 16.75 25.63 17.15 28.01 C17.86 30.32 18.72 32.48 19.69 34.69 C20.3 36.19 20.91 37.69 21.51 39.2 C21.79 39.86 22.08 40.52 22.37 41.19 C23 43 23 43 23 46 C20.36 46 17.72 46 15 46 C13.02 40.72 11.04 35.44 9 30 C8.67 35.28 8.34 40.56 8 46 C5.36 46 2.72 46 0 46 C0 30.82 0 15.64 0 0 Z " fill="#FBFCFA" transform="translate(251,129)" />
<path d="M0 0 C2.91 1.54 3.98 2.41 5.51 5.36 C6.19 7.81 6.19 7.81 5.19 9.81 C4.42 9.65 3.66 9.48 2.88 9.31 C-6.37 8.06 -15.36 7.87 -23.2 13.54 C-24.71 14.76 -26.21 16 -27.67 17.29 C-30.18 19.08 -31.73 19.68 -34.81 19.81 C-37.24 18.67 -37.24 18.67 -39.69 17 C-46.91 12.41 -53.33 11.08 -61.81 11.81 C-65.09 12.74 -65.09 12.74 -67.81 13.81 C-69.13 13.81 -70.45 13.81 -71.81 13.81 C-72.13 10.73 -72.22 9.32 -70.24 6.86 C-69.54 6.29 -68.84 5.72 -68.12 5.12 C-67.44 4.54 -66.76 3.96 -66.05 3.36 C-59.75 -1 -53.25 -0.94 -45.81 -0.19 C-43.07 0.7 -40.6 1.73 -38.03 3.04 C-35.18 4.03 -33.68 3.71 -30.81 2.81 C-29.33 1.99 -27.88 1.14 -26.44 0.25 C-18.16 -3.99 -8.42 -3.84 0 0 Z " fill="#FBFCFA" transform="translate(386.8125,273.1875)" />
<path d="M0 0 C2.97 0 5.94 0 9 0 C9.13 0.63 9.26 1.26 9.4 1.9 C9.79 3.79 10.18 5.68 10.58 7.57 C11.03 9.74 11.48 11.92 11.93 14.09 C13.01 19.29 14.1 24.49 15.22 29.68 C15.41 30.54 15.59 31.4 15.78 32.29 C16.13 33.9 16.48 35.5 16.83 37.11 C17.56 40.52 18 43.5 18 47 C15.03 47 12.06 47 9 47 C8.67 44.03 8.34 41.06 8 38 C5.36 38 2.72 38 0 38 C-0.33 40.97 -0.66 43.94 -1 47 C-3.64 47 -6.28 47 -9 47 C-7.97 37.57 -6.36 28.3 -4.5 19 C-4.18 17.39 -4.18 17.39 -3.85 15.75 C-2.77 10.42 -1.59 5.2 0 0 Z " fill="#F9FBF8" transform="translate(283,60)" />
<path d="M0 0 C2.93 1.8 4.47 2.94 6 6 C6.07 7.54 6.08 9.08 6.06 10.62 C6.05 11.44 6.04 12.26 6.04 13.1 C6.02 13.73 6.01 14.35 6 15 C3.36 15 0.72 15 -2 15 C-2.33 12.69 -2.66 10.38 -3 8 C-4.65 8 -6.3 8 -8 8 C-7.74 13.12 -6.85 15.81 -3.1 19.38 C-2.59 19.83 -2.09 20.28 -1.56 20.75 C5.85 27.64 5.85 27.64 6.3 31.74 C6.31 33.29 6.31 33.29 6.31 34.88 C6.33 35.9 6.35 36.93 6.36 37.99 C5.95 41.44 5.12 43.26 3 46 C-1 48.7 -5.33 48.7 -10 48 C-12.87 46.21 -14.49 45.02 -16 42 C-16.07 40.13 -16.08 38.25 -16.06 36.38 C-16.05 35.37 -16.04 34.37 -16.04 33.34 C-16.02 32.57 -16.01 31.79 -16 31 C-13.69 31 -11.38 31 -9 31 C-8.67 33.64 -8.34 36.28 -8 39 C-6.35 39.33 -4.7 39.66 -3 40 C-2.4 36.77 -2.16 35.12 -3 32 C-5.31 29.19 -7.81 26.82 -10.52 24.39 C-14.82 20.25 -16.45 16.99 -16.56 11 C-16.36 4.45 -16.36 4.45 -13.62 1.75 C-9.45 -0.9 -4.75 -0.88 0 0 Z " fill="#F8FBF7" transform="translate(342,128)" />
<path d="M0 0 C2.64 0 5.28 0 8 0 C9.65 9.57 11.3 19.14 13 29 C13.45 26.07 13.91 23.14 14.38 20.12 C15.43 13.38 16.58 6.68 18 0 C20.64 0 23.28 0 26 0 C24.72 9.62 23.14 19.14 21.34 28.67 C20.93 30.85 20.53 33.04 20.12 35.22 C19.86 36.61 19.6 38 19.34 39.39 C19.11 40.64 18.87 41.89 18.63 43.17 C18 46 18 46 17 47 C15.48 47.07 13.96 47.08 12.44 47.06 C11.61 47.05 10.78 47.04 9.93 47.04 C9.3 47.02 8.66 47.01 8 47 C6.65 40.34 5.32 33.67 4 27 C3.85 26.23 3.69 25.46 3.53 24.66 C1.9 16.47 0.51 8.35 0 0 Z " fill="#F8FBF7" transform="translate(204,60)" />
<path d="M0 0 C6.27 0 12.54 0 19 0 C19 2.31 19 4.62 19 7 C15.7 7 12.4 7 9 7 C9 11.29 9 15.58 9 20 C11.31 20 13.62 20 16 20 C16 22.31 16 24.62 16 27 C13.69 27 11.38 27 9 27 C9 31.29 9 35.58 9 40 C12.3 40 15.6 40 19 40 C19 42.31 19 44.62 19 47 C12.73 47 6.46 47 0 47 C0 31.49 0 15.98 0 0 Z " fill="#F0F7EF" transform="translate(401,128)" />
<path d="M0 0 C1.12 0.92 2.22 1.86 3.31 2.81 C4.2 3.53 5.09 4.26 6 5 C6.99 4.67 7.98 4.34 9 4 C16.15 3.3 22.12 3.63 28 8 C30.39 10.12 32.42 12.21 34 15 C33.88 17.94 33.88 17.94 33 20 C30.48 19.53 28.95 18.97 26.82 17.48 C23.2 15.58 20.57 15.63 16.5 15.69 C14.57 15.69 14.57 15.69 12.59 15.7 C9.23 15.98 7.08 16.76 4 18 C1.06 17.85 0.2 17.2 -1.86 15.07 C-2.48 14.29 -3.11 13.5 -3.75 12.69 C-7.88 7.88 -11.8 4.42 -18.28 3.77 C-20.19 3.75 -22.1 3.86 -24 4 C-24.62 1.62 -24.62 1.62 -25 -1 C-18.66 -7.34 -6.63 -4.57 0 0 Z " fill="#F9FCF9" transform="translate(397,243)" />
<path d="M0 0 C6.27 0 12.54 0 19 0 C19 2.31 19 4.62 19 7 C15.37 7 11.74 7 8 7 C8 11.29 8 15.58 8 20 C10.64 20 13.28 20 16 20 C16 22.31 16 24.62 16 27 C13.36 27 10.72 27 8 27 C8 31.62 8 36.24 8 41 C11.63 41 15.26 41 19 41 C19 42.98 19 44.96 19 47 C12.73 47 6.46 47 0 47 C0 31.49 0 15.98 0 0 Z " fill="#F8FBF7" transform="translate(303,128)" />
<path d="M0 0 C6.27 0 12.54 0 19 0 C19 2.31 19 4.62 19 7 C15.37 7 11.74 7 8 7 C8 11.29 8 15.58 8 20 C10.64 20 13.28 20 16 20 C16 22.31 16 24.62 16 27 C13.36 27 10.72 27 8 27 C8 31.62 8 36.24 8 41 C11.63 41 15.26 41 19 41 C19 42.98 19 44.96 19 47 C12.73 47 6.46 47 0 47 C0 31.49 0 15.98 0 0 Z " fill="#FBFDFB" transform="translate(228,128)" />
<path d="M0 0 C6.93 0 13.86 0 21 0 C21 1.98 21 3.96 21 6 C19.02 6 17.04 6 15 6 C15 19.2 15 32.4 15 46 C12.03 46 9.06 46 6 46 C6 32.8 6 19.6 6 6 C4.02 6 2.04 6 0 6 C0 4.02 0 2.04 0 0 Z " fill="#F4F9F3" transform="translate(204,129)" />
<path d="M0 0 C6.93 0 13.86 0 21 0 C21 1.98 21 3.96 21 6 C18.69 6 16.38 6 14 6 C14 19.2 14 32.4 14 46 C11.69 46 9.38 46 7 46 C7 32.8 7 19.6 7 6 C4.69 6 2.38 6 0 6 C0 4.02 0 2.04 0 0 Z " fill="#FFFFFF" transform="translate(351,129)" />
<path d="M0 0 C2.64 0 5.28 0 8 0 C8 15.51 8 31.02 8 47 C5.36 47 2.72 47 0 47 C0 31.49 0 15.98 0 0 Z " fill="#F8FBF8" transform="translate(234,60)" />
<path d="M0 0 C1.98 0 3.96 0 6 0 C7.91 1.91 7.13 5.31 7.13 7.84 C7.13 8.53 7.13 9.21 7.14 9.92 C7.14 11.37 7.13 12.82 7.13 14.27 C7.13 16.49 7.13 18.72 7.14 20.94 C7.14 22.35 7.13 23.75 7.13 25.16 C7.13 26.44 7.13 27.73 7.13 29.06 C7 32 7 32 6 33 C4.02 33 2.04 33 0 33 C0 22.11 0 11.22 0 0 Z " fill="#5CAD4A" transform="translate(255,67)" />
<path d="M0 0 C1.65 0 3.3 0 5 0 C6 1 6 1 6.13 3.69 C6.13 5.33 6.13 5.33 6.12 7 C6.13 8.09 6.13 9.19 6.13 10.31 C6 13 6 13 5 14 C3.35 14 1.7 14 0 14 C0 9.38 0 4.76 0 0 Z " fill="#62B051" transform="translate(383,135)" />
<path d="M0 0 C1.65 0 3.3 0 5 0 C6 1 6 1 6.13 3.69 C6.13 5.33 6.13 5.33 6.12 7 C6.13 8.09 6.13 9.19 6.13 10.31 C6 13 6 13 5 14 C3.35 14 1.7 14 0 14 C0 9.38 0 4.76 0 0 Z " fill="#5CAD4B" transform="translate(285,135)" />
<path d="M0 0 C5 1 5 1 6 2 C6.1 3.83 6.13 5.67 6.12 7.5 C6.13 8.5 6.13 9.5 6.13 10.53 C6 13 6 13 5 14 C3.35 14 1.7 14 0 14 C0 9.38 0 4.76 0 0 Z " fill="#5CAD4A" transform="translate(259,135)" />
<path d="M0 0 C0.33 0 0.66 0 1 0 C1.66 5.28 2.32 10.56 3 16 C1.02 16 -0.96 16 -3 16 C-2.69 13.52 -2.38 11.04 -2.06 8.56 C-1.98 7.86 -1.89 7.15 -1.8 6.42 C-1.11 1.11 -1.11 1.11 0 0 Z " fill="#6DB55E" transform="translate(287,76)" />
</g></svg>