<?xml version='1.0' encoding='UTF-8'?>
<svg xmlns="http://www.w3.org/2000/svg" version="1.1" viewBox="0 0 610 610" width="512" height="512">
<g transform="translate(14.0, 18.5)"><path d="M0 0 C187.77 0 375.54 0 569 0 C569 187.77 569 375.54 569 569 C381.23 569 193.46 569 0 569 C0 381.23 0 193.46 0 0 Z " fill="#4D9747" transform="translate(5,1)" />
<path d="M0 0 C6.84 2.99 9.96 12.96 13.12 19.38 C13.6 20.33 14.07 21.29 14.56 22.27 C18.37 29.97 22.11 37.7 25.78 45.46 C28.25 50.7 30.79 55.9 33.39 61.07 C33.95 62.2 34.51 63.32 35.09 64.48 C36.17 66.65 37.27 68.82 38.38 70.98 C42.44 79.18 42.44 79.18 42.02 83.41 C41 86.31 41 86.31 38 88.31 C35.06 88.75 35.06 88.75 32 88.31 C27.81 84.06 25.53 78.68 22.97 73.37 C22.5 72.4 22.03 71.44 21.55 70.44 C20.05 67.36 18.55 64.27 17.06 61.19 C16.06 59.14 15.06 57.08 14.06 55.03 C13.1 53.04 12.13 51.05 11.16 49.05 C10.72 48.14 10.27 47.23 9.82 46.29 C6.78 40.01 3.86 33.68 1 27.31 C-0.07 30.46 -1.13 33.6 -2.19 36.75 C-2.48 37.61 -2.77 38.47 -3.07 39.35 C-5.15 45.53 -7.04 51.76 -8.86 58.01 C-10.8 64.68 -12.8 71.32 -14.81 77.97 C-15.15 79.09 -15.49 80.21 -15.84 81.37 C-17.25 86.02 -18.65 90.67 -20.06 95.32 C-24.86 111.16 -24.86 111.16 -29.56 127.03 C-32.01 135.41 -34.56 143.76 -37.11 152.11 C-40.12 161.98 -43.1 171.87 -46.09 181.76 C-47.13 185.21 -48.17 188.65 -49.21 192.1 C-55.91 214.26 -55.91 214.26 -62.32 236.51 C-64.33 243.69 -66.4 250.85 -68.69 257.94 C-69.06 259.11 -69.44 260.27 -69.82 261.48 C-70.94 264.18 -71.64 265.62 -74 267.31 C-77.5 267.75 -77.5 267.75 -81 267.31 C-84.81 263.85 -85.07 258.96 -85.87 254.13 C-86.03 253.22 -86.19 252.31 -86.35 251.37 C-86.87 248.39 -87.37 245.42 -87.88 242.44 C-88.23 240.37 -88.59 238.31 -88.95 236.24 C-89.98 230.27 -90.99 224.29 -92 218.31 C-92.25 216.81 -92.51 215.32 -92.76 213.82 C-93.78 207.78 -94.78 201.75 -95.78 195.71 C-97.1 187.7 -98.43 179.69 -99.79 171.68 C-100.05 170.12 -100.31 168.56 -100.57 167 C-100.93 164.83 -101.3 162.67 -101.67 160.5 C-101.98 158.63 -101.98 158.63 -102.3 156.73 C-102.97 153.47 -103.88 150.44 -105 147.31 C-105.61 148.46 -105.61 148.46 -106.23 149.63 C-120.33 176.07 -120.33 176.07 -127.13 188.01 C-129.42 192.06 -131.63 196.16 -133.81 200.27 C-135 202.31 -135 202.31 -137 204.31 C-140.44 204.69 -140.44 204.69 -144 204.31 C-147.67 200.95 -147.88 196.48 -148.52 191.8 C-148.71 190.51 -148.71 190.51 -148.9 189.2 C-149.31 186.37 -149.71 183.54 -150.1 180.71 C-150.39 178.74 -150.67 176.78 -150.96 174.81 C-151.71 169.64 -152.44 164.47 -153.17 159.3 C-154.35 151.01 -155.55 142.73 -156.74 134.44 C-157.16 131.54 -157.57 128.64 -157.98 125.74 C-158.23 123.97 -158.49 122.21 -158.74 120.44 C-158.85 119.63 -158.97 118.81 -159.08 117.98 C-159.32 114.34 -159.32 114.34 -161 111.31 C-161.51 112.49 -162.03 113.67 -162.56 114.89 C-164.49 119.32 -166.42 123.74 -168.36 128.17 C-169.19 130.08 -170.03 131.98 -170.86 133.89 C-183.87 163.75 -183.87 163.75 -187 165.31 C-190.06 165.43 -193.1 165.48 -196.16 165.49 C-197.11 165.5 -198.06 165.5 -199.04 165.51 C-202.19 165.53 -205.34 165.54 -208.49 165.55 C-210.1 165.56 -210.1 165.56 -211.75 165.56 C-217.43 165.58 -223.12 165.6 -228.8 165.61 C-234.68 165.62 -240.56 165.65 -246.44 165.69 C-250.96 165.72 -255.47 165.73 -259.98 165.73 C-262.15 165.74 -264.32 165.75 -266.49 165.77 C-269.52 165.79 -272.55 165.79 -275.58 165.78 C-276.48 165.8 -277.38 165.81 -278.31 165.82 C-284.36 165.77 -284.36 165.77 -287.56 163.47 C-289.51 160.55 -289.51 158.75 -289 155.31 C-287.71 153.65 -287.71 153.65 -286 152.31 C-283 152.03 -280.21 151.93 -277.21 151.97 C-276.32 151.97 -275.42 151.97 -274.49 151.97 C-271.52 151.97 -268.55 152 -265.58 152.02 C-263.52 152.03 -261.47 152.03 -259.41 152.03 C-253.99 152.04 -248.57 152.07 -243.15 152.11 C-237.62 152.14 -232.09 152.15 -226.56 152.17 C-215.7 152.2 -204.85 152.25 -194 152.31 C-193.8 151.7 -193.6 151.1 -193.4 150.47 C-193.13 149.67 -192.87 148.86 -192.59 148.04 C-192.33 147.24 -192.07 146.45 -191.8 145.63 C-190.69 142.41 -189.31 139.33 -187.88 136.23 C-187.59 135.59 -187.3 134.95 -186.99 134.29 C-186.04 132.21 -185.08 130.14 -184.12 128.06 C-182.78 125.13 -181.43 122.19 -180.09 119.26 C-179.75 118.52 -179.41 117.78 -179.06 117.01 C-176.74 111.96 -174.47 106.89 -172.23 101.8 C-171.93 101.13 -171.63 100.46 -171.33 99.77 C-169.62 95.91 -169.62 95.91 -167.93 92.05 C-167.16 90.29 -166.38 88.54 -165.61 86.79 C-165.18 85.8 -164.74 84.81 -164.3 83.79 C-163.06 81.43 -162.12 79.92 -160 78.31 C-153.88 77.66 -153.88 77.66 -151.34 79.54 C-149.67 81.75 -149.39 83.32 -149 86.05 C-148.86 87.02 -148.72 87.99 -148.57 88.99 C-148.35 90.57 -148.35 90.57 -148.13 92.19 C-147.89 93.84 -147.89 93.84 -147.65 95.52 C-147.13 99.12 -146.63 102.72 -146.12 106.31 C-145.77 108.77 -145.42 111.23 -145.06 113.69 C-144.19 119.78 -143.33 125.87 -142.47 131.96 C-141.67 137.65 -140.86 143.34 -140.05 149.03 C-139.51 152.77 -138.98 156.51 -138.46 160.25 C-138.19 162.19 -138.19 162.19 -137.91 164.16 C-137.76 165.27 -137.6 166.37 -137.45 167.5 C-137.08 169.83 -136.62 172.05 -136 174.31 C-135.65 173.66 -135.3 173.01 -134.94 172.34 C-134.44 171.41 -133.94 170.49 -133.43 169.54 C-132.87 168.5 -132.31 167.46 -131.73 166.39 C-130.48 164.07 -129.23 161.75 -127.98 159.43 C-124.99 153.89 -122.01 148.35 -119.08 142.78 C-118.14 141 -117.2 139.21 -116.25 137.43 C-115.06 135.18 -113.88 132.93 -112.71 130.68 C-107.42 120.72 -107.42 120.72 -103 117.31 C-99.82 117.31 -97.95 117.59 -95.4 119.53 C-93.54 121.9 -93.24 123.85 -92.72 126.81 C-92.52 127.91 -92.32 129.02 -92.11 130.16 C-91.91 131.35 -91.71 132.53 -91.5 133.75 C-91.28 134.96 -91.07 136.18 -90.85 137.43 C-89.44 145.44 -88.18 153.46 -87.02 161.51 C-86.15 167.56 -84.99 173.52 -83.75 179.5 C-82.91 183.76 -82.22 188.03 -81.56 192.31 C-80.41 199.83 -79.17 207.32 -77.88 214.81 C-77.7 215.81 -77.53 216.81 -77.36 217.84 C-77.2 218.77 -77.03 219.7 -76.87 220.66 C-76.65 221.9 -76.65 221.9 -76.43 223.16 C-76.01 225.48 -76.01 225.48 -75 228.31 C-74.75 227.49 -74.5 226.66 -74.25 225.81 C-71.88 217.91 -69.52 210.02 -67.15 202.12 C-65.93 198.07 -64.72 194.01 -63.5 189.95 C-54.28 159.19 -54.28 159.19 -49.66 144.07 C-47.07 135.58 -44.52 127.07 -41.97 118.56 C-41.64 117.45 -41.64 117.45 -41.3 116.32 C-39.7 110.99 -38.1 105.65 -36.5 100.31 C-34.9 94.97 -33.3 89.64 -31.7 84.3 C-31.26 82.81 -30.81 81.32 -30.36 79.84 C-27.67 70.83 -24.95 61.84 -22.2 52.85 C-20.09 45.97 -18.05 39.07 -16.09 32.15 C-15.41 29.78 -14.73 27.41 -14.05 25.04 C-13.59 23.44 -13.14 21.84 -12.69 20.23 C-12.03 17.85 -11.34 15.47 -10.65 13.09 C-10.46 12.37 -10.26 11.66 -10.06 10.93 C-8.45 5.48 -6.07 0.63 0 0 Z " fill="#FBFDFB" transform="translate(388,214.6875)" />
<path d="M0 0 C3.22 2.46 6.28 5 9.27 7.73 C9.84 7.2 10.41 6.67 10.99 6.12 C19.13 -1.32 23.73 -5.06 35.12 -4.64 C42.68 -3.74 47.06 -0.15 51.8 5.65 C56.66 12.53 58.14 20.44 57.27 28.73 C53.77 44.95 37.48 56.65 26.21 67.86 C24.56 69.5 22.92 71.14 21.27 72.78 C17.27 76.77 13.27 80.75 9.27 84.73 C1.18 77.95 -6.28 70.55 -13.79 63.13 C-15.5 61.45 -17.21 59.78 -18.93 58.12 C-21.44 55.69 -23.92 53.24 -26.39 50.79 C-27.16 50.06 -27.92 49.33 -28.7 48.58 C-35.63 41.62 -39.74 33.63 -40.36 23.73 C-39.9 14.79 -36.87 7.26 -30.29 1.11 C-20.96 -6.26 -9.86 -6.69 0 0 Z " fill="#FEFEFE" transform="translate(423.73046875,332.265625)" />
<path d="M0 0 C0.8 -0.01 1.61 -0.01 2.43 -0.02 C8.86 0.12 14.57 1.2 19.68 5.3 C20.22 5.94 20.76 6.59 21.31 7.25 C22.14 8.2 22.14 8.2 22.99 9.17 C27.03 15.67 26.77 22.58 26.75 30 C26.77 31.01 26.78 32.01 26.8 33.05 C26.8 40.56 26 45.56 20.94 51.38 C18.44 53.5 18.44 53.5 15.44 54.5 C15.97 54.78 16.5 55.06 17.05 55.35 C17.75 55.75 18.46 56.15 19.19 56.56 C19.88 56.95 20.58 57.33 21.3 57.72 C25.61 61.3 27.21 64.41 27.82 69.91 C27.95 73.33 28 76.73 27.96 80.15 C27.94 82.3 27.96 84.44 27.98 86.59 C28 95.16 27.59 103.52 21.86 110.4 C15.53 116.72 7.4 117.67 -1.19 117.88 C-10.02 117.64 -14.77 116.7 -20.94 110.25 C-27.48 102.9 -26.83 94.9 -26.69 85.56 C-26.68 84.4 -26.67 83.24 -26.66 82.04 C-26.64 79.2 -26.6 76.35 -26.56 73.5 C-20.62 73.5 -14.68 73.5 -8.56 73.5 C-8.54 75.11 -8.51 76.73 -8.48 78.39 C-8.43 80.51 -8.37 82.63 -8.31 84.75 C-8.3 85.81 -8.28 86.88 -8.27 87.97 C-8.24 89 -8.21 90.02 -8.17 91.08 C-8.15 92.02 -8.13 92.96 -8.11 93.93 C-7.41 97.23 -6.18 98.44 -3.56 100.5 C-0.56 101.17 -0.56 101.17 2.44 100.5 C4.74 98.63 6.12 97.14 7.44 94.5 C7.71 90.21 7.67 85.92 7.69 81.62 C7.71 80.43 7.73 79.23 7.75 78 C7.76 76.84 7.76 75.69 7.77 74.51 C7.77 73.45 7.78 72.4 7.79 71.31 C7.39 68.11 6.72 66.75 4.44 64.5 C1.02 63.8 1.02 63.8 -2.75 63.75 C-6.12 63.63 -6.12 63.63 -9.56 63.5 C-9.56 58.22 -9.56 52.94 -9.56 47.5 C-6.27 47.27 -2.99 47.04 0.3 46.82 C3.46 46.61 3.46 46.61 6.44 45.5 C8.05 41.23 7.62 36.5 7.62 32 C7.64 30.72 7.64 30.72 7.66 29.41 C7.66 28.58 7.67 27.76 7.67 26.91 C7.67 26.16 7.68 25.41 7.68 24.63 C7.4 22.18 6.74 20.59 5.44 18.5 C2.39 16.98 -0.2 17.26 -3.56 17.5 C-5.7 19.06 -6.45 19.98 -6.99 22.58 C-7.02 23.37 -7.05 24.15 -7.07 24.95 C-7.11 25.71 -7.14 26.48 -7.17 27.26 C-7.21 28.71 -7.21 28.71 -7.25 30.19 C-7.35 33.26 -7.46 36.33 -7.56 39.5 C-13.83 39.5 -20.1 39.5 -26.56 39.5 C-27.29 15.33 -27.29 15.33 -20.09 6.93 C-13.87 1.11 -8.35 0.06 0 0 Z " fill="#FBFCFB" transform="translate(86.5625,47.5)" />
<path d="M0 0 C16 0 16 0 22 4 C25.61 8.8 24.37 15.89 24.37 21.64 C24.37 23.86 24.41 26.08 24.45 28.29 C24.46 29.71 24.46 31.13 24.46 32.55 C24.47 33.84 24.48 35.12 24.49 36.44 C23.92 40.6 22.61 42.76 20 46 C14.03 48.99 6.67 47 0 47 C0 31.49 0 15.98 0 0 Z " fill="#F9FBF9" transform="translate(251,48)" />
<path d="M0 0 C3.3 0 6.6 0 10 0 C11.28 5.66 12.47 11.33 13.54 17.03 C13.82 18.99 13.82 18.99 15 20 C15.2 18.72 15.41 17.45 15.62 16.13 C15.89 14.46 16.17 12.79 16.44 11.12 C16.57 10.28 16.71 9.44 16.85 8.57 C16.98 7.77 17.11 6.96 17.25 6.13 C17.37 5.39 17.49 4.65 17.61 3.88 C18 2 18 2 19 0 C22.3 0 25.6 0 29 0 C29 15.51 29 31.02 29 47 C26.69 47 24.38 47 22 47 C21.5 35.12 21.5 35.12 21 23 C19.68 30.59 18.36 38.18 17 46 C15.68 46 14.36 46 13 46 C12.35 43.46 11.71 40.92 11.06 38.38 C10.88 37.66 10.7 36.95 10.51 36.21 C10.33 35.51 10.16 34.81 9.97 34.09 C9.81 33.45 9.65 32.81 9.48 32.15 C8.88 29.46 8.45 26.72 8 24 C7.67 31.59 7.34 39.18 7 47 C4.69 47 2.38 47 0 47 C0 31.49 0 15.98 0 0 Z " fill="#F7FAF6" transform="translate(218,116)" />
<path d="M0 0 C17 0 17 0 22 4 C22.4 6.78 22.53 8.88 22.38 11.62 C22.35 12.65 22.35 12.65 22.33 13.69 C22.19 18.63 22.19 18.63 21 21 C20.34 21 19.68 21 19 21 C19 21.66 19 22.32 19 23 C20.32 23.66 21.64 24.32 23 25 C23.14 27.75 23.23 30.5 23.31 33.25 C23.35 34.03 23.4 34.8 23.44 35.61 C23.56 41.4 23.56 41.4 20.67 44.48 C13.33 48.65 10.56 47 0 47 C0 31.49 0 15.98 0 0 Z " fill="#F6F9F5" transform="translate(167,116)" />
<path d="M0 0 C17 0 17 0 22 4 C22.63 5.95 22.63 5.95 22.63 7.97 C22.63 9.07 22.63 9.07 22.63 10.2 C22.61 10.96 22.59 11.72 22.56 12.5 C22.57 13.26 22.58 14.02 22.6 14.8 C22.52 20.43 22.52 20.43 19.93 23.27 C19.29 23.84 18.66 24.41 18 25 C17.84 27.12 17.84 27.12 18.56 29.25 C18.78 30.03 18.99 30.81 19.21 31.62 C19.96 33.88 20.77 36.1 21.62 38.31 C23 42 23 42 23 46 C20.36 46 17.72 46 15 46 C13.02 40.39 11.04 34.78 9 29 C8.67 34.94 8.34 40.88 8 47 C5.36 47 2.72 47 0 47 C0 31.49 0 15.98 0 0 Z " fill="#FBFDFB" transform="translate(371,116)" />
<path d="M0 0 C2.97 0 5.94 0 9 0 C11.66 9.8 13.47 19.69 15.19 29.69 C15.46 31.26 15.74 32.84 16.01 34.41 C18 45.8 18 45.8 18 47 C15.03 47 12.06 47 9 47 C8.67 44.36 8.34 41.72 8 39 C5.36 39 2.72 39 0 39 C-0.33 41.64 -0.66 44.28 -1 47 C-3.64 47 -6.28 47 -9 47 C-3.86 13.29 -3.86 13.29 0 0 Z " fill="#F6FAF5" transform="translate(202,48)" />
<path d="M0 0 C3.3 0 6.6 0 10 0 C10.82 3.93 11.64 7.86 12.45 11.79 C12.87 13.77 13.28 15.75 13.69 17.72 C18.32 40.03 18.32 40.03 18 46 C15.36 46 12.72 46 10 46 C9.67 43.36 9.34 40.72 9 38 C6.03 38 3.06 38 0 38 C0.02 39.3 0.04 40.6 0.06 41.94 C0.08 43.29 0.07 44.65 0 46 C-1 47 -1 47 -4.56 47.06 C-5.7 47.04 -6.83 47.02 -8 47 C-7.34 38.7 -6 30.57 -4.56 22.38 C-4.35 21.1 -4.13 19.83 -3.9 18.52 C-2.82 12.28 -1.66 6.12 0 0 Z " fill="#F6FAF6" transform="translate(349,116)" />
<path d="M0 0 C2.9 1.23 4.4 2.22 6.31 4.69 C7.35 8.17 7.12 11.38 7 15 C4.36 15 1.72 15 -1 15 C-1.33 12.69 -1.66 10.38 -2 8 C-3.65 8 -5.3 8 -7 8 C-6.64 13.83 -5.44 16.23 -1.12 20.12 C6.58 27.16 6.58 27.16 7.4 32.72 C7.32 42.33 7.32 42.33 4 46 C1.08 47.76 -1.11 48.27 -4.5 48.25 C-5.25 48.26 -6.01 48.26 -6.78 48.27 C-9.3 47.96 -10.86 47.36 -13 46 C-15.35 42.47 -15.21 40.97 -15.12 36.81 C-15.11 35.73 -15.09 34.64 -15.07 33.52 C-15.05 32.69 -15.02 31.86 -15 31 C-12.69 31 -10.38 31 -8 31 C-7.67 33.97 -7.34 36.94 -7 40 C-5.35 40 -3.7 40 -2 40 C-1.46 36.27 -1.22 34.14 -3.38 30.96 C-5.2 28.92 -7.08 26.95 -9 25 C-13.47 20.07 -16.29 16.34 -16 9.5 C-15.47 5.88 -14.94 4.93 -12.5 1.94 C-8.6 -0.78 -4.57 -0.78 0 0 Z " fill="#F8FBF8" transform="translate(306,115)" />
<path d="M0 0 C2.92 1.4 4.72 2.72 7 5 C7.2 7.38 7.2 7.38 7.12 10.12 C7.11 11.04 7.09 11.95 7.07 12.88 C7.05 13.58 7.02 14.28 7 15 C4.69 15 2.38 15 0 15 C-0.33 12.69 -0.66 10.38 -1 8 C-2.65 8 -4.3 8 -6 8 C-6.44 11.02 -6.54 13.17 -4.84 15.78 C-2.47 18.55 0.08 21.08 2.69 23.62 C6.36 27.4 8.17 30.14 8.44 35.44 C8.29 39.93 6.95 42.55 4 46 C-0.04 48.69 -3.25 48.67 -8 48 C-13.64 45.08 -13.64 45.08 -15 41 C-15.07 39.27 -15.08 37.54 -15.06 35.81 C-15.05 34.91 -15.04 34.01 -15.04 33.08 C-15.02 32.39 -15.01 31.71 -15 31 C-12.36 31 -9.72 31 -7 31 C-6.67 33.97 -6.34 36.94 -6 40 C-3.52 39.51 -3.52 39.51 -1 39 C-0.63 35.27 -0.63 33.52 -2.83 30.4 C-3.63 29.59 -4.43 28.78 -5.25 27.94 C-15.41 17.43 -15.41 17.43 -15.36 8.48 C-15 6 -15 6 -12.62 2.94 C-8.45 -0.14 -5.12 -0.57 0 0 Z " fill="#F8FAF7" transform="translate(182,48)" />
<path d="M0 0 C2.31 0 4.62 0 7 0 C7.03 1.11 7.05 2.22 7.08 3.36 C7.17 7.48 7.27 11.59 7.37 15.7 C7.42 17.48 7.46 19.26 7.5 21.04 C7.55 23.6 7.62 26.15 7.68 28.71 C7.7 29.51 7.72 30.31 7.73 31.13 C7.75 35.2 7.75 35.2 9 39 C11.47 38.51 11.47 38.51 14 38 C14.33 25.46 14.66 12.92 15 0 C17.31 0 19.62 0 22 0 C22.12 5.75 22.21 11.49 22.27 17.24 C22.3 19.2 22.33 21.15 22.38 23.11 C22.44 25.92 22.47 28.73 22.49 31.54 C22.51 32.41 22.54 33.29 22.57 34.18 C22.57 38.65 22.47 40.41 19.59 44.03 C15.14 47.41 11.5 47.71 6 47 C3.13 45.21 1.51 44.02 0 41 C-0.09 37.94 -0.12 34.9 -0.1 31.84 C-0.1 30.93 -0.09 30.02 -0.09 29.09 C-0.09 26.18 -0.08 23.28 -0.06 20.38 C-0.06 18.41 -0.05 16.44 -0.05 14.48 C-0.04 9.65 -0.02 4.83 0 0 Z " fill="#FDFEFD" transform="translate(224,49)" />
<path d="M0 0 C6.27 0 12.54 0 19 0 C19 1.98 19 3.96 19 6 C15.7 6 12.4 6 9 6 C9 10.29 9 14.58 9 19 C11.31 19 13.62 19 16 19 C16 21.31 16 23.62 16 26 C13.69 26 11.38 26 9 26 C9 30.62 9 35.24 9 40 C12.3 40 15.6 40 19 40 C19 42.31 19 44.62 19 47 C12.73 47 6.46 47 0 47 C0 31.49 0 15.98 0 0 Z " fill="#F4F8F3" transform="translate(267,116)" />
<path d="M0 0 C6.27 0 12.54 0 19 0 C19 2.31 19 4.62 19 7 C15.37 7 11.74 7 8 7 C8 11.29 8 15.58 8 20 C10.64 20 13.28 20 16 20 C16 22.31 16 24.62 16 27 C13.36 27 10.72 27 8 27 C8 31.62 8 36.24 8 41 C11.63 41 15.26 41 19 41 C19 42.98 19 44.96 19 47 C12.73 47 6.46 47 0 47 C0 31.49 0 15.98 0 0 Z " fill="#F7FAF7" transform="translate(311,48)" />
<path d="M0 0 C6.27 0 12.54 0 19 0 C19 1.98 19 3.96 19 6 C15.37 6 11.74 6 8 6 C8 10.29 8 14.58 8 19 C10.64 19 13.28 19 16 19 C16 21.31 16 23.62 16 26 C13.36 26 10.72 26 8 26 C8 30.62 8 35.24 8 40 C11.63 40 15.26 40 19 40 C19 41.98 19 43.96 19 46 C12.73 46 6.46 46 0 46 C0 30.82 0 15.64 0 0 Z " fill="#FCFDFC" transform="translate(280,49)" />
<path d="M0 0 C6.27 0 12.54 0 19 0 C19 1.98 19 3.96 19 6 C15.37 6 11.74 6 8 6 C8 10.62 8 15.24 8 20 C10.64 20 13.28 20 16 20 C16 21.98 16 23.96 16 26 C13.36 26 10.72 26 8 26 C8 30.62 8 35.24 8 40 C11.63 40 15.26 40 19 40 C19 41.98 19 43.96 19 46 C12.73 46 6.46 46 0 46 C0 30.82 0 15.64 0 0 Z " fill="#FDFEFD" transform="translate(195,116)" />
<path d="M0 0 C6.93 0 13.86 0 21 0 C21 1.98 21 3.96 21 6 C18.69 6 16.38 6 14 6 C14 19.53 14 33.06 14 47 C11.36 47 8.72 47 6 47 C6 33.47 6 19.94 6 6 C4.02 6 2.04 6 0 6 C0 4.02 0 2.04 0 0 Z " fill="#F9FBF8" transform="translate(317,116)" />
<path d="M0 0 C1.98 0 3.96 0 6 0 C9.36 3.36 8.3 7.77 8.32 12.34 C8.32 13.01 8.32 13.68 8.32 14.38 C8.31 16.43 8.34 18.48 8.36 20.53 C8.36 22.46 8.36 22.46 8.36 24.43 C8.37 25.62 8.37 26.81 8.37 28.03 C8 31 8 31 6.79 32.91 C5 34 5 34 0 34 C0 22.78 0 11.56 0 0 Z " fill="#5A9F54" transform="translate(259,55)" />
<path d="M0 0 C2.31 0 4.62 0 7 0 C7.03 2.15 7.05 4.29 7.06 6.44 C7.07 7.63 7.09 8.83 7.1 10.06 C7 13 7 13 6 14 C4.02 14 2.04 14 0 14 C0 9.38 0 4.76 0 0 Z " fill="#5EA158" transform="translate(175,142)" />
<path d="M0 0 C1.65 0 3.3 0 5 0 C6.81 1.81 6.17 4.5 6.19 6.94 C6.2 8.02 6.22 9.1 6.23 10.21 C6 13 6 13 4 15 C2.68 15 1.36 15 0 15 C0 10.05 0 5.1 0 0 Z " fill="#5DA057" transform="translate(379,122)" />
<path d="M0 0 C1.65 0 3.3 0 5 0 C7 2 7 2 7.23 4.09 C7.22 4.89 7.2 5.68 7.19 6.5 C7.18 7.29 7.17 8.09 7.17 8.91 C7 11 7 11 6 13 C4.02 13 2.04 13 0 13 C0 8.71 0 4.42 0 0 Z " fill="#64A55F" transform="translate(175,122)" />
<path d="M0 0 C3.63 0 7.26 0 11 0 C11 2.31 11 4.62 11 7 C7.37 7 3.74 7 0 7 C0 4.69 0 2.38 0 0 Z " fill="#F2F7F2" transform="translate(252,137)" />
<path d="M0 0 C0 1.98 0 3.96 0 6 C-6.43 6.5 -6.43 6.5 -13 7 C-13 5.35 -13 3.7 -13 2 C-11.4 1.66 -9.79 1.33 -8.19 1 C-7.29 0.81 -6.4 0.63 -5.48 0.44 C-3 0 -3 0 0 0 Z " fill="#F0F6F0" transform="translate(242,40)" />
<path d="M0 0 C0.33 0 0.66 0 1 0 C1.66 5.28 2.32 10.56 3 16 C1.02 16 -0.96 16 -3 16 C-2.69 13.52 -2.38 11.04 -2.06 8.56 C-1.98 7.86 -1.89 7.15 -1.8 6.42 C-1.11 1.11 -1.11 1.11 0 0 Z " fill="#5DA158" transform="translate(206,64)" />
<path d="M0 0 C2.35 3.52 2.38 5.51 2.62 9.69 C2.7 10.87 2.77 12.05 2.85 13.26 C2.9 14.17 2.95 15.07 3 16 C1.35 16 -0.3 16 -2 16 C-1.34 10.72 -0.68 5.44 0 0 Z " fill="#5B9F54" transform="translate(353,131)" />
</g></svg>